<svg id="_01" data-name="01" xmlns="http://www.w3.org/2000/svg" xmlns:xlink="http://www.w3.org/1999/xlink" viewBox="0 0 4680 3120"><defs><style>.cls-1{fill:#ad3697;}.cls-2{fill:#fd9;}.cls-3{fill:none;}.cls-4{fill:#923fa0;}.cls-5{fill:#ffcad2;}.cls-6{fill:#fff9f0;}.cls-7{fill:#fce6c7;}.cls-8{fill:#fff;}.cls-9{fill:#fdddaa;}.cls-10{fill:#ffd597;}.cls-11{fill:#fdf0db;}.cls-12{fill:#e068c1;}.cls-13{fill:#a83592;}.cls-14{clip-path:url(#clip-path);}.cls-15{fill:#c94bae;}.cls-16{fill:#000202;}.cls-17{opacity:0.43;}.cls-18{clip-path:url(#clip-path-2);}.cls-19{fill:#ffeecf;}.cls-20{clip-path:url(#clip-path-3);}.cls-21{fill:#ffcad8;}.cls-22{fill:#ff8da6;}.cls-23{fill:#ff6485;}.cls-24{fill:#ffc336;}.cls-25{fill:#ca4e4b;}.cls-26{clip-path:url(#clip-path-4);}.cls-27{fill:#992e2e;}.cls-28{fill:#6c1b75;}.cls-29{clip-path:url(#clip-path-5);}.cls-30{fill:#ff8aa6;}.cls-31{fill:#6b0e1e;}.cls-32{fill:#720d1e;}.cls-33{clip-path:url(#clip-path-6);}.cls-34{fill:#ce2840;}.cls-35{clip-path:url(#clip-path-7);}.cls-36{opacity:0.68;}</style><clipPath id="clip-path"><path class="cls-1" d="M3065,2558.26l-254.87-129.69H1403.76l-261.15,136.86c-16.09,2.74-25.25,7-25.25,13.23,0,82.9,445,150.1,993.86,150.1s993.87-67.2,993.87-150.1C3105.09,2569.57,3090.07,2563.13,3065,2558.26Z"/></clipPath><clipPath id="clip-path-2"><polygon class="cls-2" points="1977.14 473.11 2083.44 693.42 2173.21 723.35 2075.18 808.84 2132.6 864.41 1920.95 1104.27 2346.38 1117.19 2220.23 885.78 2233.05 851.59 2181.76 813.12 2295.69 719.07 2254.43 629.3 2106.95 629.3 1985.12 449.77 1977.14 473.11"/></clipPath><clipPath id="clip-path-3"><path class="cls-2" d="M2053.52,2388.27l29.92-74.74h-88.25s-.38-89.77-18-98.32,53.15-158.16,53.15-158.16l-92.19-100.34-39.82-32.18L1923,1821.94l-147.33-171h122.62l96.91,136.79-36.1,89.77,81.6,79.2,115.42-79.2,89.77-166.71,114.41-145.34,39,51.3L2250.15,1792l-89.77,164.69L2087.47,2040l49,81.22-100,81.22,21.37,51.29,124,25.65-49.16,149.24-45.13-40.3Z"/></clipPath><clipPath id="clip-path-4"><path class="cls-3" d="M3079.31,1541.85s-24.82,121.4-41.61,301.44c-15.53,166.64-16.78,450.27-16.78,542.71S3000,2641.1,3000,2641.1s62-12.91,122.57,10.33,68.13,10.33,68.13,10.33,14.81-402.78,14.81-516.38,28-307.25,42-309.83,40.72,204,44.14,278.85S3351,2665.34,3351,2665.34s120.29-38.15,153.86-35.07c0-83.43-64.34-732.17-69.94-806s-30.77-282.37-30.77-282.37Z"/></clipPath><clipPath id="clip-path-5"><path class="cls-4" d="M3306.94,794s15.83-64-60.65-59.34-81.09,40.22-105.49,46.81-85.71,69.89,9.23,96.92,183.29,52.08,183.29,52.08S3446.06,830.87,3306.94,794Z"/></clipPath><clipPath id="clip-path-6"><path class="cls-5" d="M3174.15,1541.16s-15.22-1.4-24.08-26.58,2.33-28.67,17-9.09,22.38,9.09,42.66-9.09,18.18,4.19,16.79,6.29,18.88-14,23.78-9.79,0,14,0,14,18.88-12.59,23.77-9.09,0,13.28,0,13.28,16.09-7.69,17.49-3.49-15.39,35-49,33.57S3187.51,1543.26,3174.15,1541.16Z"/></clipPath><clipPath id="clip-path-7"><path class="cls-3" d="M3326.64,972.83a48.05,48.05,0,0,1-28.53,3.27L3296.18,992l5.28,61.55s-39.56,44.83-51.87,46.57-43.07-33.38-43.07-33.38a179.35,179.35,0,0,0,2.32-25.58,125.84,125.84,0,0,0-2.32-28.06c-17.59,4.4-69.46-10.55-73-65.93s9.68-91.41,9.68-91.41,68.56,14.93,134.49-18.46c-3.16,32.25,21.84,67.3,27.14,74.32,19.78-6.7,40.16-.42,46.84,15C3358.82,943.08,3347.58,963.78,3326.64,972.83Z"/></clipPath></defs><title>01</title><rect id="_01-2" data-name="01" class="cls-6" width="4680" height="3120"/><circle class="cls-7" cx="2932.37" cy="634.11" r="36.28"/><circle class="cls-7" cx="3048.53" cy="634.11" r="36.28"/><circle class="cls-7" cx="3164.69" cy="634.11" r="36.28"/><circle class="cls-7" cx="3280.86" cy="634.11" r="36.28"/><circle class="cls-7" cx="3397.02" cy="634.11" r="36.28"/><circle class="cls-7" cx="3513.18" cy="634.11" r="36.28"/><circle class="cls-7" cx="2932.37" cy="741.03" r="36.28"/><circle class="cls-7" cx="3048.53" cy="741.03" r="36.28"/><circle class="cls-7" cx="3164.69" cy="741.03" r="36.28"/><circle class="cls-7" cx="3280.86" cy="741.03" r="36.28"/><circle class="cls-7" cx="3397.02" cy="741.03" r="36.28"/><circle class="cls-7" cx="3513.18" cy="741.03" r="36.28"/><circle class="cls-7" cx="2932.37" cy="847.95" r="36.28"/><circle class="cls-7" cx="3048.53" cy="847.95" r="36.28"/><circle class="cls-7" cx="3164.69" cy="847.95" r="36.28"/><circle class="cls-7" cx="3280.86" cy="847.95" r="36.28"/><circle class="cls-7" cx="3397.02" cy="847.95" r="36.28"/><circle class="cls-7" cx="3513.18" cy="847.95" r="36.28"/><circle class="cls-7" cx="2932.37" cy="954.88" r="36.28"/><circle class="cls-7" cx="3048.53" cy="954.88" r="36.28"/><circle class="cls-7" cx="3164.69" cy="954.88" r="36.28"/><circle class="cls-7" cx="3280.86" cy="954.88" r="36.28"/><circle class="cls-7" cx="3397.02" cy="954.88" r="36.28"/><circle class="cls-7" cx="3513.18" cy="954.88" r="36.28"/><circle class="cls-7" cx="2932.37" cy="1061.8" r="36.28"/><circle class="cls-7" cx="3048.53" cy="1061.8" r="36.28"/><circle class="cls-7" cx="3164.69" cy="1061.8" r="36.28"/><circle class="cls-7" cx="3280.86" cy="1061.8" r="36.28"/><circle class="cls-7" cx="3397.02" cy="1061.8" r="36.28"/><circle class="cls-7" cx="3513.18" cy="1061.8" r="36.28"/><circle class="cls-7" cx="2932.37" cy="1168.72" r="36.28"/><circle class="cls-7" cx="3048.53" cy="1168.72" r="36.28"/><circle class="cls-7" cx="3164.69" cy="1168.72" r="36.28"/><circle class="cls-7" cx="3280.86" cy="1168.72" r="36.28"/><circle class="cls-7" cx="3397.02" cy="1168.72" r="36.28"/><circle class="cls-7" cx="3513.18" cy="1168.72" r="36.28"/><circle class="cls-7" cx="874.99" cy="1931.43" r="36.28"/><circle class="cls-7" cx="991.15" cy="1931.43" r="36.28"/><circle class="cls-7" cx="1107.31" cy="1931.43" r="36.28"/><circle class="cls-7" cx="1223.47" cy="1931.43" r="36.28"/><circle class="cls-7" cx="1339.64" cy="1931.43" r="36.28"/><circle class="cls-7" cx="1455.8" cy="1931.43" r="36.28"/><circle class="cls-7" cx="874.99" cy="2038.36" r="36.28"/><circle class="cls-7" cx="991.15" cy="2038.36" r="36.28"/><circle class="cls-7" cx="1107.31" cy="2038.36" r="36.28"/><circle class="cls-7" cx="1223.47" cy="2038.36" r="36.28"/><circle class="cls-7" cx="1339.64" cy="2038.36" r="36.28"/><circle class="cls-7" cx="1455.8" cy="2038.36" r="36.28"/><circle class="cls-7" cx="874.99" cy="2145.28" r="36.28"/><circle class="cls-7" cx="991.15" cy="2145.28" r="36.28"/><circle class="cls-7" cx="1107.31" cy="2145.28" r="36.28"/><circle class="cls-7" cx="1223.47" cy="2145.28" r="36.28"/><circle class="cls-7" cx="1339.64" cy="2145.28" r="36.28"/><circle class="cls-7" cx="1455.8" cy="2145.28" r="36.28"/><circle class="cls-7" cx="874.99" cy="2252.2" r="36.28"/><circle class="cls-7" cx="991.15" cy="2252.2" r="36.28"/><circle class="cls-7" cx="1107.31" cy="2252.2" r="36.28"/><circle class="cls-7" cx="1223.47" cy="2252.2" r="36.28"/><circle class="cls-7" cx="1339.64" cy="2252.2" r="36.28"/><circle class="cls-7" cx="1455.8" cy="2252.2" r="36.28"/><circle class="cls-7" cx="874.99" cy="2359.12" r="36.28"/><circle class="cls-7" cx="991.15" cy="2359.12" r="36.28"/><circle class="cls-7" cx="1107.31" cy="2359.12" r="36.28"/><circle class="cls-7" cx="1223.47" cy="2359.12" r="36.28"/><circle class="cls-7" cx="1339.64" cy="2359.12" r="36.28"/><circle class="cls-7" cx="1455.8" cy="2359.12" r="36.28"/><circle class="cls-7" cx="874.99" cy="2466.05" r="36.28"/><circle class="cls-7" cx="991.15" cy="2466.05" r="36.28"/><circle class="cls-7" cx="1107.31" cy="2466.05" r="36.28"/><circle class="cls-7" cx="1223.47" cy="2466.05" r="36.28"/><circle class="cls-7" cx="1339.64" cy="2466.05" r="36.28"/><circle class="cls-7" cx="1455.8" cy="2466.05" r="36.28"/><path class="cls-7" d="M3562.54,1896.22H3335.82a30.1,30.1,0,0,0-30,30V1945a29.57,29.57,0,0,0,3.09,13.12H3192.45a30.11,30.11,0,0,0-30,30v18.75a30.1,30.1,0,0,0,30,30h226.73a30.09,30.09,0,0,0,30-30v-18.75a29.74,29.74,0,0,0-3.08-13.13h116.44a30.09,30.09,0,0,0,30-30v-18.75A30.09,30.09,0,0,0,3562.54,1896.22Z"/><path class="cls-7" d="M1617.05,601.73H1390.32a30.09,30.09,0,0,0-30,30v18.74a29.57,29.57,0,0,0,3.08,13.13H1247a30.1,30.1,0,0,0-30,30v18.75a30.09,30.09,0,0,0,30,30h226.73a30.09,30.09,0,0,0,30-30V693.62a29.74,29.74,0,0,0-3.08-13.13h116.45a30.09,30.09,0,0,0,30-30V631.74A30.09,30.09,0,0,0,1617.05,601.73Z"/><polygon class="cls-8" points="783.18 1025.71 1505.61 978.58 1736.44 846.63 1291.87 874.17 783.18 1025.71"/><polygon class="cls-9" points="1069.59 2278.65 783.18 1025.71 1505.61 978.58 1556.68 2251.42 1069.59 2278.65"/><polygon class="cls-7" points="1082.35 2195.97 832.37 1102.39 1462.91 1061.26 1507.49 2172.21 1082.35 2195.97"/><polygon class="cls-10" points="1736.44 846.63 1759.88 2094.84 1556.68 2251.42 1505.61 978.58 1736.44 846.63"/><polygon class="cls-11" points="832.37 1102.39 858.32 1100.7 1109.07 2194.48 1082.35 2195.97 832.37 1102.39"/><polygon class="cls-9" points="934.26 1161.39 958.96 1315.54 1199.99 1281.37 1188.07 1145.85 934.26 1161.39"/><polygon class="cls-11" points="1240.13 1145.85 1251.55 1269.94 1416.85 1256.64 1416.85 1129.35 1240.13 1145.85"/><polygon class="cls-9" points="993.64 1367.79 1010.74 1426.11 1416.85 1388.31 1416.85 1333.59 993.64 1367.79"/><polygon class="cls-11" points="1008.78 1478.36 1025.88 1536.67 1432 1498.87 1432 1444.16 1008.78 1478.36"/><polygon class="cls-9" points="1023.93 1588.92 1041.04 1647.24 1447.15 1609.44 1447.15 1554.72 1023.93 1588.92"/><polygon class="cls-11" points="1093.86 1714.53 1109.07 1813.33 1169.93 1813.33 1158.46 1714.53 1093.86 1714.53"/><polygon class="cls-11" points="1321.51 1705.19 1336.72 1803.98 1397.59 1803.98 1386.11 1705.19 1321.51 1705.19"/><polygon class="cls-9" points="1197.51 1673.49 1212.72 1809.68 1273.58 1809.68 1262.11 1673.49 1197.51 1673.49"/><ellipse class="cls-9" cx="1161.17" cy="1926.38" rx="38.82" ry="56.05" transform="translate(-640.46 579.76) rotate(-22.14)"/><ellipse class="cls-9" cx="1197.51" cy="2079.36" rx="38.82" ry="56.05" transform="translate(-695.44 604.74) rotate(-22.14)"/><polygon class="cls-9" points="1240.13 1876.03 1289.55 2133.31 1464.35 2123.02 1447.15 1868.43 1240.13 1876.03"/><polygon class="cls-11" points="1240.13 1876.03 1273.58 1874.8 1322.99 2131.84 1289.55 2133.31 1240.13 1876.03"/><polygon class="cls-8" points="3331.65 1002.57 2609.23 955.44 2378.4 823.49 2822.96 851.03 3331.65 1002.57"/><polygon class="cls-9" points="3045.25 2255.5 3331.65 1002.57 2609.23 955.44 2558.16 2228.28 3045.25 2255.5"/><polygon class="cls-7" points="3032.49 2172.83 3282.46 1079.25 2651.92 1038.12 2607.35 2149.07 3032.49 2172.83"/><polygon class="cls-10" points="2378.4 823.49 2354.95 2071.69 2558.16 2228.28 2609.23 955.44 2378.4 823.49"/><polygon class="cls-11" points="3282.46 1079.25 3256.52 1077.56 3005.77 2171.34 3032.49 2172.83 3282.46 1079.25"/><polygon class="cls-9" points="3180.57 1138.25 3155.87 1292.4 2914.85 1258.22 2926.76 1122.71 3180.57 1138.25"/><polygon class="cls-11" points="2874.71 1122.71 2863.28 1246.8 2697.99 1233.5 2697.99 1106.2 2874.71 1122.71"/><polygon class="cls-9" points="3121.2 1344.65 3104.1 1402.96 2697.99 1365.16 2697.99 1310.45 3121.2 1344.65"/><polygon class="cls-11" points="3106.05 1455.21 3088.95 1513.53 2682.84 1475.73 2682.84 1421.01 3106.05 1455.21"/><polygon class="cls-9" points="3090.9 1565.78 3073.8 1624.1 2667.69 1586.29 2667.69 1531.58 3090.9 1565.78"/><polygon class="cls-11" points="3020.98 1691.39 3005.77 1790.19 2944.91 1790.19 2956.38 1691.39 3020.98 1691.39"/><polygon class="cls-11" points="2793.32 1682.04 2778.11 1780.84 2717.25 1780.84 2728.72 1682.04 2793.32 1682.04"/><polygon class="cls-9" points="2917.33 1650.35 2902.12 1786.54 2841.26 1786.54 2852.73 1650.35 2917.33 1650.35"/><ellipse class="cls-9" cx="2953.66" cy="1903.23" rx="56.05" ry="38.82" transform="translate(77.49 3921.66) rotate(-67.86)"/><ellipse class="cls-9" cx="2917.33" cy="2056.21" rx="56.05" ry="38.82" transform="translate(-86.85 3983.32) rotate(-67.86)"/><polygon class="cls-9" points="2874.71 1852.88 2825.28 2110.16 2650.49 2099.88 2667.69 1845.29 2874.71 1852.88"/><polygon class="cls-11" points="2874.71 1852.88 2841.26 1851.66 2791.85 2108.7 2825.28 2110.16 2874.71 1852.88"/><polygon class="cls-12" points="3084.45 2511.92 3003.7 2588.36 2945.92 2589.18 2774.14 2397.95 2794.77 2373.29 2830.29 2366.85 3084.45 2511.92"/><polygon class="cls-13" points="2794.77 2373.29 3003.7 2588.36 2945.92 2589.18 2774.14 2397.95 2794.77 2373.29"/><path class="cls-1" d="M3065,2558.26l-254.87-129.69H1403.76l-261.15,136.86c-16.09,2.74-25.25,7-25.25,13.23,0,82.9,445,150.1,993.86,150.1s993.87-67.2,993.87-150.1C3105.09,2569.57,3090.07,2563.13,3065,2558.26Z"/><path class="cls-1" d="M3065,2558.26l-254.87-129.69H1403.76l-261.15,136.86c-16.09,2.74-25.25,7-25.25,13.23,0,82.9,445,150.1,993.86,150.1s993.87-67.2,993.87-150.1C3105.09,2569.57,3090.07,2563.13,3065,2558.26Z"/><g class="cls-14"><path class="cls-15" d="M3065,2522.09l-254.87-129.7H1403.76l-261.15,136.86c-16.09,2.75-25.25,7-25.25,13.24,0,82.89,445,150.09,993.86,150.09s993.87-67.2,993.87-150.09C3105.09,2533.39,3090.07,2527,3065,2522.09Z"/></g><ellipse class="cls-16" cx="2106.95" cy="2428.57" rx="703.18" ry="57.71"/><g class="cls-17"><path class="cls-8" d="M1579,417.71,1609,2405.43c0,29.66,225.83,53.7,504.41,53.7s504.41-24,504.41-53.7l68.4-1987.72Z"/></g><polygon class="cls-12" points="1829.9 2661.87 1959.09 2669.47 1995.19 2642.87 1995.19 2401.57 1972.39 2388.28 1896.39 2388.28 1829.9 2661.87"/><polygon class="cls-13" points="1888.8 2578.66 1873.56 2664.44 1912.54 2666.73 1922.99 2578.66 1888.8 2578.66"/><polygon class="cls-13" points="1972.39 2388.28 1959.09 2669.47 1995.19 2642.87 1995.19 2401.57 1972.39 2388.28"/><polygon class="cls-12" points="1419.51 2646.67 1550.6 2661.87 1600 2646.67 1658.04 2428.57 1646.05 2384.98 1579.03 2370.86 1419.51 2646.67"/><polygon class="cls-13" points="1461.62 2651.55 1503.11 2563.07 1527.8 2563.07 1494.71 2657.25 1461.62 2651.55"/><polygon class="cls-13" points="1646.05 2384.98 1550.6 2661.87 1600 2646.67 1658.04 2428.57 1646.05 2384.98"/><polygon class="cls-12" points="2442.93 2661.87 2313.74 2669.47 2277.64 2642.87 2277.64 2401.57 2300.44 2388.28 2376.44 2388.28 2442.93 2661.87"/><polygon class="cls-13" points="2384.04 2578.66 2399.28 2664.44 2360.29 2666.73 2349.84 2578.66 2384.04 2578.66"/><polygon class="cls-13" points="2300.44 2388.28 2313.74 2669.47 2277.64 2642.87 2277.64 2401.57 2300.44 2388.28"/><polygon class="cls-12" points="2853.32 2626.09 2722.23 2641.28 2672.83 2626.09 2614.79 2407.98 2626.78 2364.4 2693.8 2350.28 2853.32 2626.09"/><polygon class="cls-13" points="2811.21 2630.97 2769.73 2542.49 2745.03 2542.49 2778.12 2636.67 2811.21 2630.97"/><polygon class="cls-13" points="2626.78 2364.4 2722.23 2641.28 2672.83 2626.09 2614.79 2407.98 2626.78 2364.4"/><polygon class="cls-12" points="1158.96 2528.38 1247.64 2595.46 1305.16 2589.92 1454.84 2380.94 1431.62 2358.7 1395.6 2356.21 1158.96 2528.38"/><polygon class="cls-13" points="1431.62 2358.7 1247.64 2595.46 1305.16 2589.92 1454.84 2380.94 1431.62 2358.7"/><circle class="cls-2" cx="1814.13" cy="872.96" r="38.47"/><circle class="cls-2" cx="2421.11" cy="856.32" r="21.83"/><circle class="cls-2" cx="2497.01" cy="688.08" r="16.03"/><circle class="cls-2" cx="2431.46" cy="1956.71" r="32.18"/><circle class="cls-2" cx="1794.9" cy="2101.93" r="19.24"/><polygon class="cls-2" points="1977.14 473.11 2083.44 693.42 2173.21 723.35 2075.18 808.84 2132.6 864.41 1920.95 1104.27 2346.38 1117.19 2220.23 885.78 2233.05 851.59 2181.76 813.12 2295.69 719.07 2254.43 629.3 2106.95 629.3 1985.12 449.77 1977.14 473.11"/><polygon class="cls-2" points="1977.14 473.11 2083.44 693.42 2173.21 723.35 2075.18 808.84 2132.6 864.41 1920.95 1104.27 2346.38 1117.19 2220.23 885.78 2233.05 851.59 2181.76 813.12 2295.69 719.07 2254.43 629.3 2106.95 629.3 1985.12 449.77 1977.14 473.11"/><g class="cls-18"><polygon class="cls-19" points="1988.83 1141.27 2152.38 933.82 2284.86 1162.29 1988.83 1141.27"/><polygon class="cls-19" points="2051.66 740.43 2083.44 693.42 1976.84 417.71 1900.08 536.54 2051.66 740.43"/></g><path class="cls-2" d="M2053.52,2388.27l29.92-74.74h-88.25s-.38-89.77-18-98.32,53.15-158.16,53.15-158.16l-92.19-100.34-39.82-32.18L1923,1821.94l-147.33-171h122.62l96.91,136.79-36.1,89.77,81.6,79.2,115.42-79.2,89.77-166.71,114.41-145.34,39,51.3L2250.15,1792l-89.77,164.69L2087.47,2040l49,81.22-100,81.22,21.37,51.29,124,25.65-49.16,149.24-45.13-40.3Z"/><path class="cls-2" d="M2053.52,2388.27l29.92-74.74h-88.25s-.38-89.77-18-98.32,53.15-158.16,53.15-158.16l-92.19-100.34-39.82-32.18L1923,1821.94l-147.33-171h122.62l96.91,136.79-36.1,89.77,81.6,79.2,115.42-79.2,89.77-166.71,114.41-145.34,39,51.3L2250.15,1792l-89.77,164.69L2087.47,2040l49,81.22-100,81.22,21.37,51.29,124,25.65-49.16,149.24-45.13-40.3Z"/><g class="cls-20"><polygon class="cls-19" points="1814.13 1609.69 1963.75 1803.98 1949.38 1903.23 2040.69 1956.71 2087.47 1780.84 1899.01 1507.07 1814.13 1609.69"/><polygon class="cls-19" points="2057.79 2253.68 2036.42 2202.39 2137.58 2056.42 2220.33 2101.93 2128.37 2228.28 2057.79 2253.68"/></g><polygon class="cls-21" points="1779.48 1168.35 1724.37 1655.23 2132.6 1839.04 2442.93 1638.13 2550.79 1218.47 2158.96 976.04 1779.48 1168.35"/><polygon class="cls-22" points="1779.48 1168.35 2203.13 1368.82 2132.6 1839.04 1724.37 1655.23 1779.48 1168.35"/><polygon class="cls-23" points="2550.79 1218.47 2203.13 1368.82 2132.6 1839.04 2442.93 1638.13 2550.79 1218.47"/><path class="cls-22" d="M2271.37,1184.86a266,266,0,0,1-50.94-1.58l-1.47.51c14.21,11.82,9.15,22-15.2,30.76a149.63,149.63,0,0,1-29,7.2,173.53,173.53,0,0,1-30.57,1.82,263.36,263.36,0,0,1-34.58-3.34c-2.91-.49-6.07-1.08-9.33-1.74l-42,14.77L2035,1227.7l41.84-14.55-30.17-7.58-42.8,14.67-24.44-5.85,43.57-14.77-59.28-14.91,12.7-4.19q8.82,1.14,15.07,1.34a71.63,71.63,0,0,0,11.87-.57,84.05,84.05,0,0,0,12.08-2.66q6.42-1.87,15.16-4.78l153.42-51.06q8.17-2.73,13.06-4.64a23.77,23.77,0,0,0,6.72-3.59q1.86-1.65.52-3.35a20.47,20.47,0,0,0-5.33-4.09l11.18-3.68,49.22,16,36.51-12.38,19.13,6.48-35.93,12.32,20.61,6.71c1.59.52,3,1,4.44,1.51l35.29-12.27,18.24,6.18-36.25,12.74c2.64,1.19,5.06,2.36,7,3.47,6,3.47,9.62,7,10.88,10.68s-.38,7.25-4.87,10.86-11.81,7.25-22,10.91C2300.53,1181,2286.85,1183.73,2271.37,1184.86Zm-189.55,17.06c5.88,1.52,11.57,2.67,17.13,3.56,3.57.56,7.09,1,10.54,1.35a127.08,127.08,0,0,0,24.73-.27c.58-.07,1.16-.1,1.74-.17a128,128,0,0,0,27.29-6.53q15.77-5.56,20.2-9.92a11.65,11.65,0,0,0,.74-.94c2.11-2.58,2.16-5.1-.1-7.55a19.09,19.09,0,0,0-5.61-3.63,87.43,87.43,0,0,0-13.58-4.86l-12.65-3.58-8.18-2.31-84.06,28.7c2.64.82,5.42,1.62,8.2,2.42C2072.6,1199.46,2077.09,1200.71,2081.82,1201.92Zm209.26-48.77a8.79,8.79,0,0,0,1.63-2.29c1.07-2.26.4-4.4-2-6.4a30.72,30.72,0,0,0-6-3.57,95.53,95.53,0,0,0-12.3-4.73c-4.3-1.37-8.35-2.62-12.2-3.78-2.71-.81-5.33-1.58-7.81-2.29l-88.22,30.12,8,2.33,13.37,3.87c5.34,1.54,10.41,2.74,15.25,3.64,2,.38,4.06.72,6,1a127.14,127.14,0,0,0,20.25,1.07c2,0,4.07-.17,6.13-.33a127.33,127.33,0,0,0,15.11-2.08,159.49,159.49,0,0,0,22.24-6.17C2281.29,1159.74,2288.11,1156.29,2291.08,1153.15Z"/><path class="cls-21" d="M2369.61,1512.49a287.89,287.89,0,0,1-13.58,33,239.45,239.45,0,0,1-16.91,29.31,236.84,236.84,0,0,1-19.23,24.83c-2.12,2.37-4.4,4.75-6.75,7.13l-13.73,40.29-12.61,10.57,13.06-38.39c-1,.89-2,1.78-3.05,2.67l-13.41,11.4-12.89,38-12.3,10.31,12.79-37.74-29.32,24.92,3.65-10.82c2.53-2.94,4.65-5.58,6.33-7.92a54.52,54.52,0,0,0,4.61-7.69,101.74,101.74,0,0,0,4.09-9.61q2-5.43,4.72-13.38l48.69-144q2.67-7.92,4.27-13.12a38.68,38.68,0,0,0,1.78-7.69c.12-1.67-.24-2.6-1.09-2.81s-2.23.2-4.17,1.2l3.76-11.13,30.77-28.29,13.56-40,13.12-12.22-13.66,40.23,17.24-15.85,13.8-40.56,13.46-12.54-14.22,41.72c1.71-1.38,3.32-2.63,4.7-3.61q8.32-5.85,12.94-5.59,4.16.18,4,7.79t-5.29,22.46c-9.09,26.55-24.78,54.32-46.8,83l-.53,1.56q10.86-4.32,13.05,3.92T2369.61,1512.49ZM2355.15,1422c-1.7,1.65-3.39,3.29-5.08,5l-27.55,81.2,4.82-4.29,7.58-6.74a115.31,115.31,0,0,0,9.86-9.92c2.35-2.66,4.59-5.4,6.65-8.24a159.15,159.15,0,0,0,11.78-19.11c.44-.83.89-1.65,1.33-2.5a218.63,218.63,0,0,0,11.56-28.14q4.93-14.43,4.71-20.07c0-.24-.08-.39-.1-.62-.31-3.21-1.81-4.41-4.58-3.45a20,20,0,0,0-4.17,2.26,72.6,72.6,0,0,0-8.7,7C2360.54,1416.84,2357.84,1419.41,2355.15,1422Zm-15.39,116.93a143.24,143.24,0,0,0,5.53-19.72,23.16,23.16,0,0,0,.38-7.88,5.38,5.38,0,0,0-.64-1.88c-1.05-1.6-2.86-1.84-5.45-.72a21.09,21.09,0,0,0-2.61,1.44,66.55,66.55,0,0,0-8.27,6.44l-8.11,7.16-4.8,4.24-30.28,89.21c1.43-1.12,3-2.38,4.61-3.71,2.33-1.92,4.85-4,7.62-6.4a120.87,120.87,0,0,0,9.25-8.84c2.28-2.41,4.47-4.9,6.53-7.49a121.87,121.87,0,0,0,10.36-15.52c1.11-2,2.22-4,3.31-6.1A223.11,223.11,0,0,0,2339.76,1538.94Z"/><path class="cls-23" d="M2068.44,1582.44q-10.52-18-35.7-38.7l.4-1.08c38.23,10.82,60.33,7.16,66.71-10.82q3.55-10-.49-21.09t-14.41-21.9a201.55,201.55,0,0,0-29-24.44c-2.89-2-6.2-4.24-9.7-6.53l10.28-28.38L2030,1413.75l-10.17,27.88-35.34-20.71,10.32-28-27.23-16.14-10.45,28.13L1890,1365.6l-3.06,8.07a102.52,102.52,0,0,1,11.16,9.87,22.05,22.05,0,0,1,5,7.78,14.52,14.52,0,0,1,.26,7.9,79.51,79.51,0,0,1-3.13,10l-40.07,106.55a64,64,0,0,1-4.36,9.58,11.43,11.43,0,0,1-5.26,5q-3.16,1.37-8.2.33a98.8,98.8,0,0,1-13.29-4l-3.14,8.29,68.88,37.69L1884.31,1601l28.2,15.24,10.43-28.29,29.69,16.24c2.29,1.26,4.4,2.35,6.61,3.52l-10.3,28.23,27.51,14.88,10.62-29.32c4.74,2.13,9.27,4.07,13.38,5.63q19.15,7.28,34.57,8.8t25-3.89q9.61-5.4,13.9-17.48Q2078.93,1600.4,2068.44,1582.44Zm-72.56-137.71c7,4.09,13.09,8,18.45,11.93,3.45,2.49,6.66,5,9.43,7.37,6.58,5.73,11.2,11.53,14,17.39.2.41.46.82.64,1.23a25.34,25.34,0,0,1,.49,19.38q-4.08,11.31-12.16,14.48c-.58.23-1.25.34-1.86.52-5.09,1.5-11.27,1.5-18.67-.2a78.84,78.84,0,0,1-12.31-4.17,181.75,181.75,0,0,1-20-10l-16.17-9.21-10.41-5.92,21.41-57.92c3.45,1.82,6.94,3.73,10.44,5.66C1984.69,1438.34,1990.24,1441.45,1995.88,1444.73Zm4.28,152.76a25.39,25.39,0,0,1-4.87,1.26q-7.72,1.23-17.67-1.65a114.44,114.44,0,0,1-12.81-4.72,217.5,217.5,0,0,1-19.55-9.63c-6.09-3.35-11.69-6.49-16.93-9.48-3.68-2.09-7.19-4.12-10.45-6L1942,1501.9l10.43,5.9,17.4,9.84c7,3.95,13,7.72,18.09,11.31,2.17,1.52,4.22,3,6,4.47a79.31,79.31,0,0,1,14.89,15.15,43.48,43.48,0,0,1,2.9,4.61,32.75,32.75,0,0,1,2.13,28.43Q2009.44,1594,2000.16,1597.49Z"/><path class="cls-8" d="M2054.08,1593q-10.51-18-35.7-38.7l.39-1.09c38.23,10.82,60.33,7.16,66.72-10.81q3.56-10-.49-21.09t-14.41-21.9a202.1,202.1,0,0,0-29-24.44c-2.89-2-6.2-4.25-9.7-6.53l10.27-28.38-26.58-15.75-10.17,27.88-35.34-20.71,10.32-28-27.23-16.13-10.45,28.13-67.08-39.3-3.06,8.07a102.45,102.45,0,0,1,11.15,9.86,21.89,21.89,0,0,1,5,7.79,14.33,14.33,0,0,1,.26,7.9,79.19,79.19,0,0,1-3.12,10l-40.07,106.55a65.17,65.17,0,0,1-4.36,9.59,11.48,11.48,0,0,1-5.26,4.95q-3.16,1.35-8.2.33a99.1,99.1,0,0,1-13.29-4.05l-3.14,8.3,68.88,37.69L1870,1611.52l28.2,15.25,10.42-28.3,29.7,16.25c2.29,1.26,4.4,2.34,6.6,3.52l-10.3,28.23,27.52,14.88,10.62-29.32c4.74,2.12,9.27,4.07,13.38,5.63q19.15,7.26,34.56,8.79t25-3.89q9.63-5.4,13.91-17.47Q2064.57,1611,2054.08,1593Zm-72.56-137.71c7,4.08,13.09,8,18.45,11.92,3.45,2.5,6.66,5,9.42,7.38,6.59,5.73,11.2,11.53,14,17.39.2.41.46.81.64,1.23a25.34,25.34,0,0,1,.49,19.38q-4.1,11.31-12.16,14.48c-.58.23-1.25.34-1.87.52-5.09,1.5-11.26,1.5-18.66-.2a80.34,80.34,0,0,1-12.32-4.17,182.83,182.83,0,0,1-20-10l-16.18-9.2-10.4-5.92,21.4-57.92c3.45,1.82,7,3.73,10.45,5.65C1970.33,1448.9,1975.88,1452,1981.52,1455.3Zm4.28,152.75a24.87,24.87,0,0,1-4.87,1.27q-7.73,1.23-17.68-1.65a115.61,115.61,0,0,1-12.8-4.72c-5.93-2.54-12.4-5.69-19.55-9.63-6.09-3.35-11.7-6.49-16.93-9.48-3.68-2.1-7.2-4.12-10.45-6l24.14-65.33,10.43,5.9,17.41,9.84c7,4,13,7.71,18.09,11.31,2.16,1.51,4.21,3,6,4.47a78.72,78.72,0,0,1,14.89,15.15,43.59,43.59,0,0,1,2.91,4.61,32.71,32.71,0,0,1,2.12,28.43Q1995.07,1604.6,1985.8,1608.05Z"/><path class="cls-8" d="M2378.4,1512.49a289.68,289.68,0,0,1-13.57,33,240.81,240.81,0,0,1-16.92,29.31,234.18,234.18,0,0,1-19.23,24.83c-2.12,2.37-4.4,4.75-6.74,7.13l-13.74,40.29-12.61,10.57,13.07-38.39c-1,.89-2,1.78-3,2.67l-13.41,11.4-12.9,38-12.3,10.31,12.8-37.74-29.33,24.92,3.66-10.82q3.79-4.41,6.33-7.92a54.49,54.49,0,0,0,4.6-7.69,101.63,101.63,0,0,0,4.1-9.61q2-5.43,4.71-13.38l48.69-144q2.68-7.92,4.28-13.12a38.47,38.47,0,0,0,1.77-7.69c.12-1.67-.24-2.6-1.08-2.81s-2.23.2-4.17,1.2l3.76-11.13,30.77-28.29,13.55-40,13.12-12.22-13.66,40.23,17.24-15.85L2402,1345.1l13.46-12.54-14.22,41.72c1.71-1.38,3.32-2.63,4.69-3.61q8.34-5.85,12.94-5.59,4.17.18,4,7.79t-5.29,22.46c-9.09,26.55-24.77,54.32-46.8,83l-.53,1.56q10.88-4.32,13.05,3.92T2378.4,1512.49ZM2363.94,1422c-1.69,1.65-3.39,3.29-5.07,5l-27.56,81.2,4.83-4.29,7.57-6.74a113.88,113.88,0,0,0,9.86-9.92c2.36-2.66,4.59-5.4,6.65-8.24a157.88,157.88,0,0,0,11.78-19.11c.45-.83.9-1.65,1.33-2.5a218.56,218.56,0,0,0,11.57-28.14q4.92-14.43,4.7-20.07c0-.24-.08-.39-.1-.62-.31-3.21-1.8-4.41-4.58-3.45a20.22,20.22,0,0,0-4.16,2.26,71,71,0,0,0-8.7,7C2369.33,1416.84,2366.63,1419.41,2363.94,1422Zm-15.39,116.93a141.82,141.82,0,0,0,5.53-19.72,23.22,23.22,0,0,0,.39-7.88,5.18,5.18,0,0,0-.65-1.88c-1-1.6-2.86-1.84-5.44-.72a19.74,19.74,0,0,0-2.61,1.44,67.27,67.27,0,0,0-8.28,6.44l-8.1,7.16-4.81,4.24-30.27,89.21c1.42-1.12,3-2.38,4.6-3.71,2.34-1.92,4.86-4,7.62-6.4a119.19,119.19,0,0,0,9.26-8.84c2.27-2.41,4.46-4.9,6.53-7.49a122.93,122.93,0,0,0,10.35-15.52q1.68-2.93,3.31-6.1A220.57,220.57,0,0,0,2348.55,1538.94Z"/><path class="cls-8" d="M2263,1175a265.89,265.89,0,0,1-50.93-1.58l-1.47.52c14.21,11.81,9.15,22-15.21,30.75a148.81,148.81,0,0,1-29,7.2,172.69,172.69,0,0,1-30.57,1.82,261.81,261.81,0,0,1-34.59-3.34c-2.91-.48-6.06-1.08-9.33-1.73l-42,14.76-23.2-5.56,41.83-14.54-30.17-7.59-42.8,14.67-24.44-5.85,43.57-14.77-59.28-14.9,12.71-4.19q8.82,1.13,15.06,1.33a71.7,71.7,0,0,0,11.88-.57,85.2,85.2,0,0,0,12.07-2.65q6.42-1.87,15.17-4.79l153.42-51.06q8.17-2.71,13.05-4.64a24,24,0,0,0,6.73-3.58q1.86-1.67.51-3.36a20.82,20.82,0,0,0-5.32-4.09l11.17-3.68,49.23,16,36.51-12.38,19.12,6.48L2270.78,1116l20.62,6.71c1.59.52,2.95,1,4.43,1.52l35.3-12.28,18.23,6.18-36.25,12.74c2.65,1.19,5.07,2.36,7,3.48q9,5.19,10.88,10.67t-4.87,10.86q-6.75,5.41-22,10.91C2292.19,1171.15,2278.51,1173.88,2263,1175Zm-189.54,17.07c5.87,1.51,11.57,2.67,17.12,3.55,3.58.56,7.1,1,10.54,1.35a126.29,126.29,0,0,0,24.73-.27c.59-.06,1.16-.1,1.74-.17a127.89,127.89,0,0,0,27.29-6.53q15.78-5.55,20.2-9.92a9.77,9.77,0,0,0,.74-.94c2.11-2.58,2.17-5.1-.09-7.55a19.58,19.58,0,0,0-5.62-3.63,86.66,86.66,0,0,0-13.58-4.86l-12.64-3.58-8.18-2.31-84.07,28.7c2.64.82,5.42,1.62,8.21,2.43C2064.25,1189.61,2068.74,1190.86,2073.48,1192.08Zm209.25-48.77a9.13,9.13,0,0,0,1.64-2.3c1.07-2.26.39-4.4-2-6.4a31.34,31.34,0,0,0-6-3.57,96.7,96.7,0,0,0-12.3-4.73c-4.3-1.37-8.35-2.62-12.2-3.78-2.71-.81-5.34-1.58-7.82-2.28l-88.22,30.11,8.06,2.33,13.36,3.87a155.93,155.93,0,0,0,15.26,3.64c2,.38,4.05.72,6,1a128.34,128.34,0,0,0,20.25,1.06c2,0,4.07-.17,6.12-.33a128.79,128.79,0,0,0,15.11-2.07,161.5,161.5,0,0,0,22.24-6.17C2273,1149.89,2279.77,1146.44,2282.73,1143.31Z"/><ellipse class="cls-8" cx="2132.6" cy="417.71" rx="553.57" ry="57.71"/><ellipse class="cls-7" cx="3388.09" cy="2708.9" rx="508.72" ry="51.1"/><path class="cls-8" d="M3670,2705.15c-1.22,9.87-332.58,30.81-330.11,6.15.75-7.65,2-16.16,3.34-24.25,3-17.85,6.5-33.63,6.5-33.63l110.86-27.1s12.32,14.78,71.45,27.1c30,6.25,65.32,16.91,92.73,27.19C3651.41,2690.64,3670.57,2700.3,3670,2705.15Z"/><path class="cls-24" d="M3670,2705.15c-1.22,9.87-332.58,30.81-330.11,6.15.75-7.65,2-16.16,3.34-24.25,22.78,9.31,56.38,20,85.67,17.6,33.16-2.75,128.67-20.41,195.87-24C3651.41,2690.64,3670.57,2700.3,3670,2705.15Z"/><path class="cls-24" d="M3529.9,2677.59a3,3,0,0,1-2.06-5.18l32.3-30.38a3,3,0,0,1,4.11,4.38l-32.3,30.37A3,3,0,0,1,3529.9,2677.59Z"/><path class="cls-24" d="M3497.6,2672a3,3,0,0,1-2.06-5.18l32.3-30.38a3,3,0,0,1,4.11,4.38l-32.3,30.37A3,3,0,0,1,3497.6,2672Z"/><path class="cls-8" d="M2870.71,2710.79c1.21,9.87,332.58,30.81,330.11,6.15-.75-7.65-2-16.15-3.35-24.25-3-17.85-6.5-33.63-6.5-33.63L3080.11,2632s-12.31,14.79-71.45,27.1c-30,6.25-65.32,16.91-92.73,27.19C2889.24,2696.28,2870.08,2705.94,2870.71,2710.79Z"/><path class="cls-24" d="M2870.71,2710.79c1.21,9.87,332.58,30.81,330.11,6.15-.75-7.65-2-16.15-3.35-24.25-22.78,9.31-56.38,20-85.67,17.6-33.16-2.75-128.67-20.41-195.87-24C2889.24,2696.28,2870.08,2705.94,2870.71,2710.79Z"/><path class="cls-24" d="M3010.76,2683.24a3,3,0,0,1-2.06-.82l-32.29-30.37a3,3,0,1,1,4.11-4.37l32.29,30.37a3,3,0,0,1-2,5.19Z"/><path class="cls-24" d="M3043.05,2677.6a3,3,0,0,1-2.05-.82l-32.3-30.37a3,3,0,1,1,4.11-4.37l32.3,30.37a3,3,0,0,1-2.06,5.19Z"/><path class="cls-25" d="M3079.31,1541.85s-24.82,121.4-41.61,301.44c-15.53,166.64-16.78,450.27-16.78,542.71S3000,2641.1,3000,2641.1s62-12.91,122.57,10.33,68.13,10.33,68.13,10.33,14.81-402.78,14.81-516.38,28-307.25,42-309.83,40.72,204,44.14,278.85S3351,2665.34,3351,2665.34s120.29-38.15,153.86-35.07c0-83.43-64.34-732.17-69.94-806s-30.77-282.37-30.77-282.37Z"/><g class="cls-26"><path class="cls-27" d="M3021,1694.39a3,3,0,0,1-.21-6c.36,0,37.37-3,73.86-25.27,21.32-13,38.32-29.94,50.53-50.37,15.29-25.58,23.09-56.78,23.2-92.74a3,3,0,0,1,3-3h0a3,3,0,0,1,3,3c-.11,37.11-8.23,69.38-24.13,95.93-12.74,21.28-30.47,38.92-52.68,52.41-37.72,22.92-74.78,25.89-76.34,26Z"/><path class="cls-27" d="M3043.05,2677.6a3,3,0,0,1-2.46-4.72c28.33-40.78,34.64-298.53,38.41-452.52.86-35.11,1.61-65.43,2.45-87.17,4.57-117.15,14.19-465.66,14.29-469.17a3,3,0,1,1,6,.17c-.1,3.5-9.73,352-14.29,469.23-.85,21.7-1.59,52-2.45,87.08-4,164.68-10.13,413.54-39.48,455.81A3,3,0,0,1,3043.05,2677.6Z"/><path class="cls-27" d="M3245.34,1883h-.15a3,3,0,0,1-2.85-3.15l2.2-44.85.13-.38c.25-.78,25.37-77.88,34.84-133s6.32-184.65,6.28-185.95a3,3,0,0,1,6-.15c0,1.31,3.18,131.47-6.37,187.11-9.19,53.55-33,127.47-34.93,133.48l-2.16,44.05A3,3,0,0,1,3245.34,1883Z"/><path class="cls-27" d="M3408,2689.25a3,3,0,0,1-3-2.67c-.42-3.86-42.24-387.54-54.17-501.76-13.84-132.64-69.63-499.1-70.19-502.79a3,3,0,0,1,5.93-.9c.56,3.69,56.37,370.28,70.23,503.07,11.92,114.2,53.74,497.87,54.16,501.73a3,3,0,0,1-2.65,3.3A1.94,1.94,0,0,1,3408,2689.25Z"/></g><path class="cls-24" d="M3182.47,1074.67s-119.59,6.29-164.35,93-39.17,237.79,0,321.71,77.4,121.7,174.38,74.14c29.37,4.19,95.58,14,138.94,7s67.15-8.39,67.15-8.39,69.93,32.17,114.69-19.58,23.78-324.52,0-377.67-121.69-107-214.71-106.75S3182.47,1074.67,3182.47,1074.67Z"/><path d="M3205,1056.35l-28.53,25.18s7.47,42.39,39.4,49.39,28.44-25.54,28.44-25.54a45.11,45.11,0,0,0,42.9,21c29.84-2.63,28-64.81,28-64.81l-22.38-15Z"/><path class="cls-8" d="M3211,1047.86l-28.54,26.81s7.47,45.14,39.4,52.6,28.45-27.2,28.45-27.2,13,25.19,42.89,22.39,28-69,28-69l-22.38-15.93Z"/><path class="cls-28" d="M3327,800.34a29.23,29.23,0,0,1-18.95-24.67c-1.55-18.51-12.5-44-61.8-41.06-76.48,4.62-81.09,40.22-105.49,46.81s-85.71,69.89,9.23,96.92c70,19.93,136.42,38.78,166.48,47.32a29.43,29.43,0,0,0,30.16-8.94C3370,890.1,3408.44,831.3,3327,800.34Z"/><path class="cls-4" d="M3306.94,794s15.83-64-60.65-59.34-81.09,40.22-105.49,46.81-85.71,69.89,9.23,96.92,183.29,52.08,183.29,52.08S3446.06,830.87,3306.94,794Z"/><g class="cls-29"><path class="cls-28" d="M3256.34,757c7.06,2.21,13.59,7.7,14.82,15,.77,4.56-.56,9.16-1.43,13.7s-1.22,9.56,1.26,13.46,8.74,5.53,11.74,2c0,0,12.35-12.18,3.42-28.24-4.76-8.57-13.3-14.7-22.75-17.31s-19.53-2.07-29.09.08C3241.7,755.24,3249.28,754.8,3256.34,757Z"/><path class="cls-28" d="M3239.09,775.42c-13.57-6.17-28.81-9.21-42.93-4.43-10.76,3.65-20.53,10.31-31.73,12.18-6.56,1.1-13.26.48-19.9.2-15.9-.68-32.22.65-46.78,7s-27.21,18.5-31.4,33.85c15.89-16.86,41.67-23.63,63.79-16.73,8.4,2.62,16.43,7.05,25.22,7.43,14,.61,26-9,37.77-16.65s27.34-13.76,39.23-6.35c7.62,4.74,11.18,13.54,13.67,22.37a45.35,45.35,0,0,0-18.84.58c-11.76,2.79-22.39,9-33.58,13.53-15.69,6.4-32.5,9.65-49.29,11.91-11.4,1.54-23,2.65-34.39,1s-22.66-6.26-30.49-14.7c-2.48,13.54-2.24,29.19,7.43,39,7.77,7.87,19.66,9.87,30.71,10.14,25,.6,73.23,13.19,95,.84,23.29-13.25,117-39.39,47.61-55.5C3264.54,816.89,3272.25,790.51,3239.09,775.42Z"/><path class="cls-28" d="M3300.57,909c1.62-16.27,5-32.56,3.45-48.84s-9.37-33.18-24.12-40.25c-5.52-2.65-12.8-3.48-17.24.73l-.33.28c-.73,0-1.46.11-2.19.19.32.3.65.58,1,.9l1,3.52c4.25.44,7.17,2.45,9.61,6,2.71,4-5.38,18.1-4.33,22.8,4.73,21.23,17.75,30.34,17.64,52.09-.05,10-.4,20.26,2.63,29.82s10.25,18.47,20.08,20.42C3299.36,942.67,3299,925.31,3300.57,909Z"/><path class="cls-28" d="M3412.54,833c-8.78-27-37.55-44.27-65.94-45.52s-55.95,11-78.92,27.75l-2.3,3.52c9-9.89,23.49-13.81,36.72-11.77s25.21,9.5,34.54,19.1a56,56,0,0,1,10.09,13.66c4.37,8.66,5.63,18.63,5.07,28.32-1.57,27.51-16.94,52.4-34.91,73.3,26.54-6,53.16-15.69,72.89-34.43S3421,858.9,3412.54,833Z"/></g><path class="cls-5" d="M3326.64,972.83a48.05,48.05,0,0,1-28.53,3.27L3296.18,992l5.28,61.55s-39.56,44.83-51.87,46.57-43.07-33.38-43.07-33.38a179.35,179.35,0,0,0,2.32-25.58,125.84,125.84,0,0,0-2.32-28.06c-17.59,4.4-69.46-10.55-73-65.93s9.68-91.41,9.68-91.41,68.56,14.93,134.49-18.46c-3.16,32.25,21.84,67.3,27.14,74.32,19.78-6.7,40.16-.42,46.84,15C3358.82,943.08,3347.58,963.78,3326.64,972.83Z"/><path class="cls-30" d="M3323.26,941.47a8.07,8.07,0,0,1-.68,4.51,12.12,12.12,0,0,1-2.75,3.74,19.09,19.09,0,0,1-8.36,4.42,17.92,17.92,0,0,1-9.86-.27,12.16,12.16,0,0,1-4.56-2.76,8.82,8.82,0,0,1-1.7-10.68,12,12,0,0,1,3.48-4,17.75,17.75,0,0,1,9.3-3.32,19,19,0,0,1,9.32,1.62,12.14,12.14,0,0,1,3.77,2.71A8,8,0,0,1,3323.26,941.47Zm0,0a7.32,7.32,0,0,0-2.14-4,10.29,10.29,0,0,0-3.88-2.3,16,16,0,0,0-8.8-.15,17.06,17.06,0,0,0-7.38,4c-2,1.86-3.09,4.25-2.74,6.4s2.15,4.09,4.59,5.25a17,17,0,0,0,8.25,1.5,16,16,0,0,0,8.32-2.88,10.19,10.19,0,0,0,3-3.39A7.26,7.26,0,0,0,3323.26,941.47Z"/><path class="cls-30" d="M3208.84,1041.11a125.84,125.84,0,0,0-2.32-28.06s25.92-.87,41.09-10.76S3248.5,1031.14,3208.84,1041.11Z"/><path class="cls-31" d="M3232.33,880.78a25.7,25.7,0,0,1,3.34-1.64,29.56,29.56,0,0,1,3.47-1.19,25.67,25.67,0,0,1,7.41-.93,20,20,0,0,1,7.55,1.67,22.61,22.61,0,0,1,6.47,4.36,3,3,0,0,1-4,4.54l-.14-.12-.21-.21a16.33,16.33,0,0,0-4.46-3.54,14.46,14.46,0,0,0-5.5-1.67,20.92,20.92,0,0,0-6,.3,24.8,24.8,0,0,0-3,.78,21.82,21.82,0,0,0-2.84,1.12l-.12.06a2,2,0,0,1-1.87-3.53Z"/><path class="cls-31" d="M3159.73,877.94a25.81,25.81,0,0,1,3.35-1.64,29.41,29.41,0,0,1,3.46-1.19,25.66,25.66,0,0,1,7.41-.92,19.57,19.57,0,0,1,7.55,1.67,22.11,22.11,0,0,1,6.47,4.35,3,3,0,0,1-4,4.55l-.13-.13-.21-.21a16.52,16.52,0,0,0-4.47-3.54,14.27,14.27,0,0,0-5.5-1.66,20.56,20.56,0,0,0-6,.29,24.8,24.8,0,0,0-3,.78,23.34,23.34,0,0,0-2.84,1.12l-.12.06a2,2,0,0,1-1.87-3.53Z"/><path class="cls-30" d="M3192,915s-24.92,30.21-8.79,36.48c11.86,4.62,14.06-2.2,15.82-7.91S3200.8,909.77,3192,915Z"/><circle class="cls-32" cx="3164.17" cy="910.5" r="9.08"/><circle class="cls-32" cx="3243.4" cy="914.38" r="9.08"/><path class="cls-30" d="M3204.81,979a29.58,29.58,0,0,1-10.51-1.94,2,2,0,0,1,1.57-3.67,25.61,25.61,0,0,0,9.67,1.65c6.83-.24,12-3.6,15.47-10a2,2,0,0,1,3.53,1.89C3219.29,976.71,3211.27,979,3204.81,979Z"/><path d="M3099.35,1192.09c2.09,2.36,3.78,4.75,5.56,7.19s3.34,5,4.87,7.54,3,5.17,4.45,7.78,2.73,5.31,4.09,8l3.69,8.16c1.18,2.75,2.26,5.53,3.4,8.29.58,1.38,1.08,2.79,1.57,4.2l1.49,4.22c.49,1.41,1,2.81,1.47,4.23l1.31,4.28,1.3,4.29c.43,1.43.89,2.85,1.23,4.3l2.22,8.67c.8,2.88,1.3,5.82,1.94,8.74s1.26,5.83,1.77,8.77l1.43,8.82.71,4.42c.23,1.47.35,3,.54,4.43.64,5.91,1.45,11.86,1.86,17.71,2,23.47,3.37,47,3.74,70.55.28,11.78.19,23.56,0,35.34s-.75,23.54-1.85,35.33l-1.84-2h0a109.26,109.26,0,0,1,15.57,2.39A126.83,126.83,0,0,1,3175,1472c1.24.42,2.48.86,3.69,1.36s2.46,1,3.67,1.46c2.4,1.09,4.84,2.09,7.17,3.34a117.4,117.4,0,0,1,13.71,8.06,3.87,3.87,0,1,1-4.28,6.46l-.18-.12-.14-.11a112.72,112.72,0,0,0-12.34-8.3c-2.12-1.31-4.37-2.39-6.58-3.56l-3.39-1.6c-1.13-.54-2.28-1-3.44-1.51a122.14,122.14,0,0,0-14.21-5,104.21,104.21,0,0,0-14.67-3.19h-1.74l-.1-2q-1.82-35.07-4.27-70.11t-5.61-69.94c-.47-5.86-1.17-11.55-1.78-17.31-.16-1.43-.29-2.87-.49-4.3l-.61-4.29-1.24-8.57c-1.92-11.37-4-22.74-7-33.89l-1-4.2-1.18-4.16-1.19-4.16-.59-2.09-.66-2.06c-.88-2.74-1.72-5.5-2.65-8.24l-2.94-8.13c-1.07-2.68-2.06-5.4-3.19-8s-2.26-5.32-3.5-7.92-2.48-5.21-3.8-7.78-2.74-5.12-4.2-7.45l-.05-.08a2,2,0,0,1,3.19-2.4Z"/><ellipse class="cls-5" cx="3443.5" cy="1478.25" rx="55.41" ry="47.63"/><polygon class="cls-12" points="3251.84 1271.19 3192.5 1479.61 3114.63 1489.33 3114.63 1508.99 3476.92 1508.99 3548.25 1285.18 3533.42 1271.19 3251.84 1271.19"/><polygon class="cls-15" points="3548.25 1285.18 3263.09 1285.18 3204.63 1508.99 3114.63 1508.99 3114.63 1489.33 3192.5 1479.61 3251.84 1271.19 3533.42 1271.19 3548.25 1285.18"/><path class="cls-8" d="M3382.61,1441.9c-18.21,0-34-9.35-38.6-24.48-5.91-19.51,9.07-41.37,33.38-48.73,11.69-3.53,23.8-3.24,34.1.84,10.46,4.14,17.81,11.67,20.69,21.21s1,19.88-5.46,29.12-16.22,16.07-27.92,19.6A56,56,0,0,1,3382.61,1441.9Zm11.07-71.66a52.45,52.45,0,0,0-15.13,2.28c-22.2,6.72-36,26.34-30.72,43.74s27.61,26.09,49.81,19.38c10.84-3.28,20-9.69,25.79-18.06,5.7-8.22,7.45-17.34,4.92-25.68h0c-2.52-8.35-9-15-18.33-18.65A44.28,44.28,0,0,0,3393.68,1370.24Z"/><path class="cls-5" d="M3174.15,1541.16s-15.22-1.4-24.08-26.58,2.33-28.67,17-9.09,22.38,9.09,42.66-9.09,18.18,4.19,16.79,6.29,18.88-14,23.78-9.79,0,14,0,14,18.88-12.59,23.77-9.09,0,13.28,0,13.28,16.09-7.69,17.49-3.49-15.39,35-49,33.57S3187.51,1543.26,3174.15,1541.16Z"/><path class="cls-5" d="M3174.15,1541.16s-15.22-1.4-24.08-26.58,2.33-28.67,17-9.09,22.38,9.09,42.66-9.09,18.18,4.19,16.79,6.29,18.88-14,23.78-9.79,0,14,0,14,18.88-12.59,23.77-9.09,0,13.28,0,13.28,16.09-7.69,17.49-3.49-15.39,35-49,33.57S3187.51,1543.26,3174.15,1541.16Z"/><g class="cls-33"><path class="cls-30" d="M3226.63,1489.59c2-2.57,3.94-5.75,3.18-8.93-.82-3.43-4.33-5.41-7.58-6.75a81.54,81.54,0,0,0-48-4.37c-9.45,2-18.51,5.74-28.07,7.21-12.76,2-25.75-.18-38.49-2.3l31.87,21.1c6.3-3.66,14.11,1.82,18.12,7.9s7,13.57,13.68,16.58c8.23,3.73,17.58-1.3,25.2-6.16C3207.47,1506.91,3218.6,1499.75,3226.63,1489.59Z"/><path class="cls-30" d="M3258,1485.6c-.63-1.56-2.38-2.31-4-2.79-7.79-2.31-17.7-1-21.79,6l-3.4,1.85q-5.15,15.24-11.54,30a384,384,0,0,0,37.7-28.81C3256.87,1490.29,3258.94,1487.92,3258,1485.6Z"/><path class="cls-30" d="M3280.39,1491.09c0-2.92-2.75-5.12-5.51-6.1a17,17,0,0,0-15.48,2.28l-5.43,12.91a116.6,116.6,0,0,1-16.12,22.16c14.57-4.88,26.67-15,38.39-24.95C3278.23,1495.71,3280.38,1493.69,3280.39,1491.09Z"/><path class="cls-30" d="M3293.43,1495.45c-2.89-1.6-6.46-1-9.71-.44l-5.48,8.62-15.78,21.1c.58.9,2,.32,2.8-.37,8.47-7.08,14.94-18.08,25.85-19.81a9,9,0,0,0,3.61-1C3297.5,1501.81,3296.33,1497.06,3293.43,1495.45Z"/></g><circle class="cls-30" cx="3263.09" cy="944.02" r="20.62"/><path class="cls-34" d="M3120.32,912.68a41.6,41.6,0,0,0,.56,6.28,45.12,45.12,0,0,0,1.46,6.23,32.13,32.13,0,0,0,5.76,11,24.68,24.68,0,0,0,4.4,4.21,26.51,26.51,0,0,0,5.31,3,33.45,33.45,0,0,0,12.2,2.13,35.76,35.76,0,0,0,12.28-2,21.18,21.18,0,0,0,9.51-6.93,26.36,26.36,0,0,0,4.71-11.09,39.18,39.18,0,0,0,.67-6.23c0-1,0-2.1,0-3.15s-.14-2.15-.27-3V913a3,3,0,1,1,5.94-.88v0c.18,1.36.25,2.48.3,3.7s0,2.4,0,3.6a43.46,43.46,0,0,1-.86,7.16,31.83,31.83,0,0,1-5.94,13.44,26.61,26.61,0,0,1-5.45,5.2,27.88,27.88,0,0,1-6.63,3.44,40.92,40.92,0,0,1-14.22,2.22,38.62,38.62,0,0,1-14.19-2.68,32.08,32.08,0,0,1-6.41-3.66,30.54,30.54,0,0,1-5.27-5.14,37.41,37.41,0,0,1-6.53-12.81,49.73,49.73,0,0,1-1.54-6.92,47.38,47.38,0,0,1-.55-7.14,2.41,2.41,0,0,1,4.81,0Z"/><path class="cls-34" d="M3215,912.85a42.35,42.35,0,0,0,.1,6.25,41.68,41.68,0,0,0,1,6.23,29.39,29.39,0,0,0,5,11.14,21.34,21.34,0,0,0,9.41,7.1,31.47,31.47,0,0,0,12.09,1.94,34.32,34.32,0,0,0,12.11-2.13,20.94,20.94,0,0,0,9.3-7,26.45,26.45,0,0,0,4.59-11,39.6,39.6,0,0,0,.65-6.17q0-1.56,0-3.12c0-1-.14-2.13-.27-3V913a3,3,0,1,1,5.94-.88v0c.18,1.35.25,2.45.3,3.67s0,2.37,0,3.56a44.8,44.8,0,0,1-.83,7.09,32.3,32.3,0,0,1-5.78,13.34,26.66,26.66,0,0,1-11.85,8.74,40,40,0,0,1-14.07,2.36,36.82,36.82,0,0,1-14.08-2.47,26.61,26.61,0,0,1-11.54-8.91,34.67,34.67,0,0,1-5.76-13.09,48.7,48.7,0,0,1-1-7,46.71,46.71,0,0,1,0-7.1,2.4,2.4,0,0,1,4.79.36Z"/><path class="cls-34" d="M3210.81,923.85a3,3,0,0,1-1.71-.53c-16-11.08-26.34-.83-26.77-.39a3,3,0,0,1-4.33-4.15c.14-.15,14.18-14.45,34.51-.4a3,3,0,0,1-1.7,5.47Z"/><g class="cls-35"><path class="cls-30" d="M3137.77,850.88c37.27,14.77,79.15,10.09,118.67,3.36a6.81,6.81,0,0,1,3.11,0c1.61.51,2.56,2.12,3.37,3.6,11.11,20.28,24.57,41.14,45.75,50.43-4.85-21.45,4.63-44,1.07-65.69a57.83,57.83,0,0,0-20.45-35A61.78,61.78,0,0,0,3251,794c-10.1-.07-20.07,2.28-29.74,5.16A265.23,265.23,0,0,0,3149,833.22Z"/></g><g class="cls-36"><path class="cls-8" d="M1530.65,961.28c4.41,70.1,69.83,119.17,131.85,152.14,207.14,110.11,448.84,154,681.47,123.81-191.59,93.19-440.08,79.55-644.49,4.93-53.56-19.55-105.22-47.33-144.5-88.66s-65.12-97.52-61.64-154.44,39.87-112.77,93.84-131.16C1587.18,867.9,1527.76,915.29,1530.65,961.28Z"/></g><g class="cls-36"><path class="cls-8" d="M2712.33,1700.64c-4.4,70.1-69.83,119.18-131.85,152.14-207.14,110.11-448.83,154-681.47,123.82,191.59,93.18,440.09,79.55,644.49,4.93,53.57-19.55,105.23-47.33,144.51-88.67s65.11-97.52,61.63-154.43-39.87-112.77-93.84-131.17C2655.8,1607.26,2715.22,1654.66,2712.33,1700.64Z"/></g></svg>