<?xml version="1.0" encoding="UTF-8"?>
<svg id="Layer_2" data-name="Layer 2" xmlns="http://www.w3.org/2000/svg" xmlns:xlink="http://www.w3.org/1999/xlink" viewBox="0 0 624.72 364.21">
  <defs>
    <style>
      .cls-1 {
        fill: url(#linear-gradient-38);
      }

      .cls-1, .cls-2, .cls-3, .cls-4, .cls-5, .cls-6, .cls-7, .cls-8, .cls-9, .cls-10, .cls-11, .cls-12, .cls-13, .cls-14, .cls-15, .cls-16, .cls-17, .cls-18, .cls-19, .cls-20, .cls-21, .cls-22, .cls-23, .cls-24, .cls-25, .cls-26, .cls-27, .cls-28, .cls-29, .cls-30, .cls-31, .cls-32, .cls-33, .cls-34, .cls-35, .cls-36, .cls-37, .cls-38, .cls-39, .cls-40, .cls-41, .cls-42, .cls-43, .cls-44, .cls-45, .cls-46, .cls-47, .cls-48, .cls-49, .cls-50, .cls-51, .cls-52, .cls-53, .cls-54, .cls-55, .cls-56, .cls-57, .cls-58, .cls-59, .cls-60, .cls-61, .cls-62, .cls-63, .cls-64, .cls-65, .cls-66 {
        stroke-width: 0px;
      }

      .cls-2 {
        fill: url(#linear-gradient-49);
      }

      .cls-2, .cls-50 {
        opacity: .63;
      }

      .cls-3 {
        fill: url(#linear-gradient-17);
      }

      .cls-67 {
        stroke: #cedbed;
        stroke-width: 2.19px;
      }

      .cls-67, .cls-68, .cls-69, .cls-70, .cls-71, .cls-72, .cls-73, .cls-74 {
        fill: none;
        stroke-miterlimit: 10;
      }

      .cls-4 {
        fill: url(#linear-gradient-19);
      }

      .cls-5 {
        fill: url(#linear-gradient-33);
      }

      .cls-6 {
        fill: url(#linear-gradient);
      }

      .cls-7 {
        fill: url(#linear-gradient-2);
        opacity: .24;
      }

      .cls-68 {
        stroke: #a61e1e;
      }

      .cls-68, .cls-69 {
        stroke-width: 1.13px;
      }

      .cls-69 {
        stroke: #471f10;
      }

      .cls-8 {
        fill: url(#linear-gradient-28);
      }

      .cls-8, .cls-9, .cls-75, .cls-20, .cls-26, .cls-37, .cls-42, .cls-44, .cls-48, .cls-60 {
        opacity: .5;
      }

      .cls-9 {
        fill: url(#linear-gradient-12);
      }

      .cls-10 {
        fill: url(#linear-gradient-21);
      }

      .cls-11 {
        fill: url(#linear-gradient-6);
      }

      .cls-12 {
        fill: #c9742e;
      }

      .cls-13 {
        fill: #cedbed;
      }

      .cls-70 {
        stroke: #d92727;
      }

      .cls-70, .cls-72, .cls-73 {
        stroke-width: .52px;
      }

      .cls-14 {
        fill: #c92c2c;
      }

      .cls-15 {
        fill: url(#linear-gradient-42);
      }

      .cls-16 {
        fill: #d92727;
      }

      .cls-17 {
        fill: #a83030;
      }

      .cls-18 {
        fill: url(#linear-gradient-11);
      }

      .cls-19 {
        fill: url(#linear-gradient-5);
      }

      .cls-20 {
        fill: url(#linear-gradient-29);
      }

      .cls-21 {
        fill: url(#linear-gradient-31);
      }

      .cls-22 {
        fill: url(#linear-gradient-34);
      }

      .cls-23 {
        fill: #0f3d85;
      }

      .cls-24 {
        fill: url(#linear-gradient-41);
      }

      .cls-71 {
        stroke: #80371d;
        stroke-width: .78px;
      }

      .cls-25 {
        fill: url(#linear-gradient-40);
      }

      .cls-26 {
        fill: url(#linear-gradient-25);
      }

      .cls-27 {
        fill: url(#linear-gradient-13);
      }

      .cls-28 {
        fill: #a1c1ed;
      }

      .cls-29 {
        fill: #471f10;
      }

      .cls-30 {
        fill: #ff6026;
      }

      .cls-31 {
        fill: url(#linear-gradient-43);
      }

      .cls-32 {
        fill: url(#linear-gradient-16);
      }

      .cls-33 {
        fill: url(#linear-gradient-22);
      }

      .cls-34 {
        fill: #fff;
      }

      .cls-35 {
        fill: url(#linear-gradient-35);
      }

      .cls-36 {
        fill: url(#linear-gradient-50);
      }

      .cls-37 {
        fill: url(#linear-gradient-4);
      }

      .cls-38 {
        fill: #0c3069;
      }

      .cls-39 {
        fill: url(#linear-gradient-32);
      }

      .cls-40 {
        fill: url(#linear-gradient-20);
      }

      .cls-41 {
        fill: url(#linear-gradient-14);
      }

      .cls-72 {
        stroke: #0c3069;
      }

      .cls-42 {
        fill: url(#linear-gradient-23);
      }

      .cls-43 {
        fill: url(#linear-gradient-45);
      }

      .cls-44 {
        fill: url(#linear-gradient-9);
      }

      .cls-45 {
        fill: #1656bd;
      }

      .cls-73 {
        stroke: #786337;
      }

      .cls-74 {
        stroke: #fff;
        stroke-width: 1.03px;
      }

      .cls-46 {
        fill: url(#linear-gradient-39);
      }

      .cls-47 {
        fill: url(#linear-gradient-3);
      }

      .cls-48 {
        fill: url(#linear-gradient-26);
      }

      .cls-49 {
        fill: url(#linear-gradient-27);
      }

      .cls-50 {
        fill: url(#linear-gradient-7);
      }

      .cls-51 {
        fill: url(#linear-gradient-36);
      }

      .cls-52 {
        fill: url(#linear-gradient-48);
      }

      .cls-53 {
        fill: url(#linear-gradient-8);
      }

      .cls-54 {
        fill: #80371d;
      }

      .cls-55 {
        fill: #ff6d6d;
      }

      .cls-56 {
        fill: url(#linear-gradient-47);
      }

      .cls-57 {
        fill: url(#linear-gradient-24);
      }

      .cls-58 {
        fill: url(#linear-gradient-18);
      }

      .cls-59 {
        fill: #ffa526;
      }

      .cls-60 {
        fill: url(#linear-gradient-15);
      }

      .cls-61 {
        fill: url(#linear-gradient-51);
      }

      .cls-62 {
        fill: url(#linear-gradient-30);
      }

      .cls-63 {
        fill: url(#linear-gradient-44);
      }

      .cls-64 {
        fill: url(#linear-gradient-46);
      }

      .cls-65 {
        fill: url(#linear-gradient-10);
      }

      .cls-66 {
        fill: url(#linear-gradient-37);
      }
    </style>
    <linearGradient id="linear-gradient" x1="381.8" y1="31.51" x2="246.38" y2="339.56" gradientUnits="userSpaceOnUse">
      <stop offset=".05" stop-color="#a1c1ed"/>
      <stop offset="1" stop-color="#a1c1ed" stop-opacity="0"/>
    </linearGradient>
    <linearGradient id="linear-gradient-2" x1="305.03" y1="239.49" x2="352.58" y2="170.75" gradientUnits="userSpaceOnUse">
      <stop offset=".03" stop-color="#000"/>
      <stop offset="1" stop-color="#000" stop-opacity="0"/>
    </linearGradient>
    <linearGradient id="linear-gradient-3" x1="337.72" y1="110.26" x2="337.72" y2="127.6" gradientUnits="userSpaceOnUse">
      <stop offset="0" stop-color="#f04f4f"/>
      <stop offset=".15" stop-color="#f04f4f" stop-opacity=".99"/>
      <stop offset=".28" stop-color="#f04f4f" stop-opacity=".94"/>
      <stop offset=".4" stop-color="#f04f4f" stop-opacity=".86"/>
      <stop offset=".53" stop-color="#f04f4f" stop-opacity=".76"/>
      <stop offset=".65" stop-color="#f04f4f" stop-opacity=".62"/>
      <stop offset=".76" stop-color="#f04f4f" stop-opacity=".45"/>
      <stop offset=".88" stop-color="#f04f4f" stop-opacity=".25"/>
      <stop offset=".99" stop-color="#f04f4f" stop-opacity=".02"/>
      <stop offset="1" stop-color="#f04f4f" stop-opacity="0"/>
    </linearGradient>
    <linearGradient id="linear-gradient-4" x1="438.91" y1="247.98" x2="374.28" y2="177.5" xlink:href="#linear-gradient-2"/>
    <linearGradient id="linear-gradient-5" x1="438.33" y1="124.17" x2="455.56" y2="290.94" xlink:href="#linear-gradient"/>
    <linearGradient id="linear-gradient-6" x1="314.41" y1="307.31" x2="296.98" y2="41.85" gradientUnits="userSpaceOnUse">
      <stop offset="0" stop-color="#6ab883"/>
      <stop offset="1" stop-color="#dbb883"/>
    </linearGradient>
    <linearGradient id="linear-gradient-7" x1="76.95" y1="278.44" x2="96.59" y2="186.96" gradientUnits="userSpaceOnUse">
      <stop offset=".16" stop-color="#187d38"/>
      <stop offset="1" stop-color="#187d38" stop-opacity="0"/>
    </linearGradient>
    <linearGradient id="linear-gradient-8" x1="507.03" y1="370.11" x2="555.17" y2="145.9" gradientUnits="userSpaceOnUse">
      <stop offset="0" stop-color="#187d38"/>
      <stop offset="1" stop-color="#187d38" stop-opacity="0"/>
    </linearGradient>
    <linearGradient id="linear-gradient-9" x1="410.67" y1="301.68" x2="495.84" y2="301.68" xlink:href="#linear-gradient-2"/>
    <linearGradient id="linear-gradient-10" x1="416.27" y1="182.48" x2="411.61" y2="221.58" xlink:href="#linear-gradient-3"/>
    <linearGradient id="linear-gradient-11" x1="436.65" y1="147.84" x2="448.95" y2="147.84" xlink:href="#linear-gradient-3"/>
    <linearGradient id="linear-gradient-12" x1="504.39" y1="269.22" x2="381.64" y2="203.32" xlink:href="#linear-gradient-2"/>
    <linearGradient id="linear-gradient-13" x1="163.92" y1="273.27" x2="170.47" y2="335.64" gradientUnits="userSpaceOnUse">
      <stop offset="0" stop-color="#0c3069"/>
      <stop offset="1" stop-color="#0c3069" stop-opacity="0"/>
    </linearGradient>
    <linearGradient id="linear-gradient-14" x1="167.64" y1="134.56" x2="169.44" y2="154.98" xlink:href="#linear-gradient-3"/>
    <linearGradient id="linear-gradient-15" x1="175.53" y1="236.34" x2="143.48" y2="332.82" xlink:href="#linear-gradient-2"/>
    <linearGradient id="linear-gradient-16" x1="168.64" y1="126.5" x2="161.9" y2="126.5" xlink:href="#linear-gradient-3"/>
    <linearGradient id="linear-gradient-17" x1="217.38" y1="193.28" x2="232.93" y2="193.28" xlink:href="#linear-gradient-3"/>
    <linearGradient id="linear-gradient-18" x1="285.13" y1="196.43" x2="303.23" y2="196.43" xlink:href="#linear-gradient-3"/>
    <linearGradient id="linear-gradient-19" x1="226.3" y1="210.83" x2="288.43" y2="210.83" xlink:href="#linear-gradient-13"/>
    <linearGradient id="linear-gradient-20" x1="254.57" y1="147.91" x2="267.53" y2="147.91" xlink:href="#linear-gradient-3"/>
    <linearGradient id="linear-gradient-21" x1="256.19" y1="140.31" x2="256.19" y2="134.2" xlink:href="#linear-gradient-3"/>
    <linearGradient id="linear-gradient-22" x1="315.97" y1="253" x2="315.97" y2="372.92" gradientUnits="userSpaceOnUse">
      <stop offset=".28" stop-color="#ffa526"/>
      <stop offset="1" stop-color="#ff6026"/>
    </linearGradient>
    <linearGradient id="linear-gradient-23" x1="315.97" y1="225.01" x2="315.97" y2="339.24" xlink:href="#linear-gradient-2"/>
    <linearGradient id="linear-gradient-24" x1="315.97" y1="249.56" x2="315.97" y2="339.78" xlink:href="#linear-gradient-2"/>
    <linearGradient id="linear-gradient-25" x1="396.27" y1="279.12" x2="416.89" y2="279.12" xlink:href="#linear-gradient-2"/>
    <linearGradient id="linear-gradient-26" x1="243.48" y1="255.03" x2="209.56" y2="290.69" xlink:href="#linear-gradient-2"/>
    <linearGradient id="linear-gradient-27" x1="192.08" y1="275.57" x2="204" y2="275.57" xlink:href="#linear-gradient-3"/>
    <linearGradient id="linear-gradient-28" x1="525.65" y1="155.39" x2="530.88" y2="177.94" xlink:href="#linear-gradient-2"/>
    <linearGradient id="linear-gradient-29" x1="503.22" y1="182.45" x2="558.56" y2="182.45" xlink:href="#linear-gradient-2"/>
    <linearGradient id="linear-gradient-30" x1="521.59" y1="152.56" x2="525.16" y2="152.56" xlink:href="#linear-gradient-2"/>
    <linearGradient id="linear-gradient-31" x1="528.09" y1="168.79" x2="531.66" y2="168.79" xlink:href="#linear-gradient-2"/>
    <linearGradient id="linear-gradient-32" x1="516.88" y1="155.87" x2="520.46" y2="155.87" xlink:href="#linear-gradient-2"/>
    <linearGradient id="linear-gradient-33" x1="533.03" y1="165.27" x2="536.6" y2="165.27" xlink:href="#linear-gradient-2"/>
    <linearGradient id="linear-gradient-34" x1="515.17" y1="160.95" x2="518.74" y2="160.95" xlink:href="#linear-gradient-2"/>
    <linearGradient id="linear-gradient-35" x1="534.79" y1="159.91" x2="538.36" y2="159.91" xlink:href="#linear-gradient-2"/>
    <linearGradient id="linear-gradient-36" x1="517.11" y1="165.84" x2="520.68" y2="165.84" xlink:href="#linear-gradient-2"/>
    <linearGradient id="linear-gradient-37" x1="532.71" y1="154.77" x2="536.28" y2="154.77" xlink:href="#linear-gradient-2"/>
    <linearGradient id="linear-gradient-38" x1="521.95" y1="168.68" x2="525.53" y2="168.68" xlink:href="#linear-gradient-2"/>
    <linearGradient id="linear-gradient-39" x1="527.58" y1="151.81" x2="531.15" y2="151.81" xlink:href="#linear-gradient-2"/>
    <linearGradient id="linear-gradient-40" x1="531.22" y1="160.09" x2="527.48" y2="138.58" xlink:href="#linear-gradient-2"/>
    <linearGradient id="linear-gradient-41" x1="516.38" y1="162.67" x2="512.65" y2="141.16" xlink:href="#linear-gradient-2"/>
    <linearGradient id="linear-gradient-42" x1="61.61" y1="253.19" x2="96.7" y2="253.19" gradientUnits="userSpaceOnUse">
      <stop offset=".04" stop-color="#ffa526"/>
      <stop offset="1" stop-color="#ff6026"/>
    </linearGradient>
    <linearGradient id="linear-gradient-43" x1="33.06" y1="207.66" x2="46.15" y2="260.03" gradientTransform="translate(-21.07 4.51) rotate(-4.99)" xlink:href="#linear-gradient-42"/>
    <linearGradient id="linear-gradient-44" x1="30.84" y1="277.21" x2="52.81" y2="321.14" xlink:href="#linear-gradient-42"/>
    <linearGradient id="linear-gradient-45" x1="-463.22" y1="260.79" x2="-428.12" y2="260.79" gradientTransform="translate(216.3 -139.45) rotate(-160.4) scale(1 -1)" xlink:href="#linear-gradient-42"/>
    <linearGradient id="linear-gradient-46" x1="-485.7" y1="218.01" x2="-472.61" y2="270.39" gradientTransform="translate(216.3 -139.45) rotate(-160.4) scale(1 -1)" xlink:href="#linear-gradient-42"/>
    <linearGradient id="linear-gradient-47" x1="-490.34" y1="285.55" x2="-468.37" y2="329.49" gradientTransform="translate(190.01 -118.09) rotate(-163.89) scale(1 -1)" xlink:href="#linear-gradient-42"/>
    <linearGradient id="linear-gradient-48" x1="140.24" y1="378.61" x2="140.24" y2="240.26" xlink:href="#linear-gradient-6"/>
    <linearGradient id="linear-gradient-49" x1="173.56" y1="360.35" x2="206.53" y2="285.65" xlink:href="#linear-gradient-7"/>
    <linearGradient id="linear-gradient-50" x1="461.51" y1="380.77" x2="524.57" y2="266.71" xlink:href="#linear-gradient-6"/>
    <linearGradient id="linear-gradient-51" x1="473.66" y1="423.95" x2="439.54" y2="310.76" xlink:href="#linear-gradient-8"/>
  </defs>
  <g id="OBJECTS">
    <g>
      <g>
        <path class="cls-67" d="m567.34,112.07c11.49,9.72,21.9,22.03,30.03,37.61,9.21,17.65,14.46,37.86,15.7,60.33"/>
        <path class="cls-67" d="m21.92,189.76c1.96-10.99,4.57-21.59,7.82-31.75,10.84-33.87,28.82-62.82,53.49-86.14"/>
        <path class="cls-67" d="m556.92,111.77c13.47,9.93,25.75,23.17,34.95,40.78,9.05,17.34,14.1,37.34,15.1,59.69"/>
        <path class="cls-67" d="m27.73,192.55c1.94-11.33,4.59-22.23,7.92-32.65,11.27-35.2,30.46-64.9,57.05-88.27"/>
        <path class="cls-67" d="m543.34,110.2c16.62,9.94,32.14,24.35,43.03,45.22,9.19,17.61,14.06,38.17,14.53,61.31"/>
        <path class="cls-67" d="m33.41,196.18c1.93-11.97,4.65-23.45,8.14-34.38,10.92-34.12,29.51-62.89,55.23-85.51,2.43-2.14,4.88-4.22,7.35-6.24"/>
      </g>
      <path class="cls-13" d="m53.4,351.62S-8.16,176.82,100.88,80.95c108.33-95.24,222.22-46.64,253.61-30.04,46.75,24.72,80.84,36.44,136.33,46.68,81.15,14.98,146.46,85.17,69.79,254.03H53.4Z"/>
      <path class="cls-6" d="m364.83,254.64c-24.87-130.25-142.27-119.54-142.27-119.54-30.08-49.23-66.66-67.48-98.47-72.36-7.74,5.39-15.49,11.42-23.21,18.21C-8.16,176.82,53.4,351.62,53.4,351.62h465.13c-36.78-91.69-153.7-96.98-153.7-96.98Z"/>
      <path class="cls-74" d="m103.18,145.9c7.11,10.47,21.59,9.59,32.57-2.3,26.83-29.04,60.51-43.93,87.48-49.23,35.71-7.02,61.89,2.09,70.94,12.02,7.86,8.63-3.88,14.9-10.6,11.72-6.72-3.19,4.08-9.82,19.65-9.03,18.47.93,61.22,15.76,87.51,24.07,41.19,13.02,84.89,7.07,96.26-1.8,11.37-8.87-6.67-15.22-11.15-2.56-4.48,12.66,12.58,26.26,34.63,25.07"/>
      <g>
        <path class="cls-54" d="m384.6,144.29l-27.23-12.95h-40.36l-27.23,12.95c-8.03,3.82-13.78,11.2-15.52,19.91l-12.19,60.92h150.24l-12.19-60.92c-1.74-8.71-7.5-16.1-15.52-19.91Z"/>
        <path class="cls-69" d="m300.73,164.4s3.88,14.86-1.16,22.03"/>
        <path class="cls-7" d="m337.19,225.12h43.87c-5.33-2.93-20.43-10.6-28.57-8.21-9.99,2.93-15.08-7.12-18.78-11.03-8.96-9.45-22.23-8.44-22.23-19.45s-7.93-21.04-17.73-26.22l-5.13,64.9h48.57Z"/>
        <path class="cls-69" d="m373.76,164.4s-3.88,14.86,1.16,22.03"/>
        <path class="cls-12" d="m357.37,131.34h-40.36l-3.47,1.65c-.74.35-.86,1.36-.23,1.88,4.34,3.56,13.4,6.02,23.87,6.02s19.53-2.45,23.87-6.02c.64-.52.52-1.53-.23-1.88l-3.47-1.65Z"/>
        <path class="cls-55" d="m352.11,128.29c-1.12-1.01-1.8-2.41-1.89-3.92l-1.22-20.49-11.63,2.76-11.63-2.76-1.22,20.49c-.09,1.5-.77,2.91-1.89,3.92l-5.62,5.06c6.17,3,13.21,4.22,17.19,4.7,2.11.26,4.24.26,6.35,0,3.98-.48,11.01-1.7,17.19-4.7l-5.62-5.06Z"/>
        <path class="cls-47" d="m350.19,123.75l-1.19-19.87-11.63,2.76-11.63-2.76-.5,8.34c2.29,5.34,8.91,15.6,24.94,11.53Z"/>
        <path class="cls-55" d="m324.45,97.56s-2.76-2.2-3.83-.39c-1.08,1.81-.52,10.51,5.34,7.49,5.86-3.02-1.51-7.11-1.51-7.11Z"/>
        <path class="cls-55" d="m349.63,97.56s2.76-2.2,3.83-.39.52,10.51-5.34,7.49c-5.86-3.02,1.51-7.11,1.51-7.11Z"/>
        <path class="cls-29" d="m325.45,102.06s-2.59-2.65-2.66-6.79c0,0-6.2-9.17-.78-14.34,0,0-.13-10.08,16.09-8.01,16.22,2.07,21.49,14.47,11.2,28.88l-23.85.26Z"/>
        <path class="cls-55" d="m328.86,87.79c-1.58-.76-3.41.43-3.41,2.18v11.51c0,5.86,2.15,15.25,11.37,15.25s12.49-8.27,12.49-13.96v-11.89s-11.19,1.36-20.45-3.09Z"/>
        <path class="cls-38" d="m334.13,95.37c0,.6-.49,1.09-1.09,1.09s-1.09-.49-1.09-1.09.49-1.09,1.09-1.09,1.09.49,1.09,1.09Z"/>
        <path class="cls-38" d="m342.79,95.37c0,.6-.49,1.09-1.09,1.09s-1.09-.49-1.09-1.09.49-1.09,1.09-1.09,1.09.49,1.09,1.09Z"/>
        <path class="cls-70" d="m336.56,95.02l-.93,6.03c-.08.5.29.95.79.99l1.61.11"/>
        <path class="cls-34" d="m331.27,104.1h12.22s-.89,4.57-6.34,4.57-5.88-4.57-5.88-4.57Z"/>
        <path class="cls-73" d="m331.25,92.3s1.97.06,3.59.68"/>
        <path class="cls-73" d="m343.5,92.3s-1.97.06-3.59.68"/>
        <path class="cls-12" d="m400.12,164.2c-1.49-7.46-5.93-13.93-12.21-18.04-3.04,6.41-11.43,24.48-13.11,32.07-1.7,7.65,2.54,36.76,4.1,46.89h33.41l-12.19-60.92Z"/>
        <path class="cls-12" d="m296.37,225.12c1.56-10.13,5.8-39.24,4.1-46.89-1.73-7.77-10.48-26.53-13.32-32.5-6.64,4.07-11.34,10.75-12.89,18.47l-12.19,60.92h34.3Z"/>
        <path class="cls-37" d="m400.12,164.2c-.1-.49-.21-.97-.33-1.44,1.8,7.29-4.33,13.09-6.43,29.91-2.1,16.83-13.72,21.37-14.46,32.45h33.41l-12.19-60.92Z"/>
      </g>
      <path class="cls-19" d="m314.46,351.62h246.16c42.97-94.64,41.34-158.28,17.32-198.58-16.8,5.63-43.07,19.26-63.9,51.96,0,0-83.95-2.72-120.68,96.51,0,0-59.57,14.46-78.9,50.11Z"/>
      <g>
        <path class="cls-11" d="m560.62,351.62c12.39-27.28,21.05-51.98,26.56-74.29-8.82-18.59-30.57-12.04-30.57-12.04,0,0-.03-38.9-19.43-44.58-19.4-5.68-30.17,20.84-30.17,20.84,0,0,8.21-34.37-8.4-44.58-38.31-23.55-81.71,49.93-81.71,49.93-37.41-55.38-148.17,7.17-148.17,7.17-49.85-59.21-124.87,6.67-124.87,6.67,0,0-17.51-89.31-73.99-74.3-16.39,4.36-26.75,17.14-33.02,34.15-4.99,69.83,16.56,131.03,16.56,131.03h507.21Z"/>
        <path class="cls-50" d="m117.84,308.05c5.34-42.55-17.58-56.8-17.58-56.8,1.9-33.84-13.01-44.07-13.01-44.07l-3.62,56.68h-9.65c0-31.01-11.47-59.58-16.98-71.52-9.22,6.32-15.71,16.22-20.15,28.25-4.99,69.83,16.56,131.03,16.56,131.03h60.36c.81-12.64,2.08-27.7,4.07-43.57Z"/>
        <path class="cls-53" d="m556.6,265.29s-.03-38.9-19.43-44.58c-1.46-.43-2.87-.65-4.23-.74-5.18,7.7-12.71,20.84-16.25,36.36,0,0-41.32,15.08-65.9,95.3h109.83c12.39-27.28,21.05-51.98,26.56-74.29-8.82-18.59-30.57-12.04-30.57-12.04Z"/>
      </g>
      <g>
        <polygon class="cls-30" points="482.08 272.41 501.98 357.06 396.28 357.06 411.53 272.41 482.08 272.41"/>
        <path class="cls-44" d="m482.08,272.41h-70.55l-.85,4.74c2.95,2.47,9.08,6.78,18.68,9.71,14.13,4.31,13.96,10.16,25.33,13.96,10.99,3.66,17.57,24.46,41.15,30.13l-13.76-58.54Z"/>
        <path class="cls-55" d="m422.46,169.76c-11.53,3.69-32.78,53.31-32.78,53.31h20.8l13.31-17.06s7.44-33.95-1.34-36.26Z"/>
        <path class="cls-65" d="m422.46,169.76c-5.14,1.65-12.22,12.43-18.48,23.87,1.49,8.1,3.39,19.73,4.03,29.44h2.47l13.31-17.06s7.44-33.95-1.34-36.26Z"/>
        <path class="cls-54" d="m432.52,112.85c-3.82.45-13.82,7.18-13.44,13.18.13,2.07,4.52,4.52,4.65,6.65.13,2.13-3.94,6.53-3.68,11.31.26,4.78,4.39,7.37,3.62,11.05-.78,3.68-4.01,10.4,3.42,12.21,7.43,1.81,13.76-1.29,13.76-1.29l-3.81-33.34-3.49-19.25-1.03-.52Z"/>
        <polygon class="cls-55" points="436.65 146.64 437.17 158.85 450.56 157.94 448.39 140.69 436.65 146.64"/>
        <path class="cls-18" d="m448.95,145.11l-.56-4.42-11.74,5.94.35,8.35c5.97-.71,10.11-6.64,11.94-9.88Z"/>
        <path class="cls-55" d="m432.97,117.5l-5.17,8.81c-1.01,1.72-1.33,3.75-.91,5.69.63,2.91,1.66,7.38,2.71,11.08,1.72,6.03,6.98,6.46,10.34,5,3.36-1.46,8.44-7.06,8.44-7.06l-3.1-15.76-12.32-7.75Z"/>
        <path class="cls-23" d="m450.2,155.05s-11.41,1.28-14.19,1.09c-2.78-.19-3.36.52-3.17,1.87.19,1.36.39,5.23.39,5.23,0,0-4.64,2.68-8.87,5.18-2.8,1.65-4.99,4.18-6.19,7.2-2.28,5.73-5.39,15.49-3.68,22.79,1.51,6.44,8.02,10.4-.49,39.34-8.51,28.94-9.37,36.52-9.37,36.52,0,0,35.66,14.56,82.18,0l-11.2-68.53s23.52-17.19,11.2-27.01c-7.16-5.71-13.26-10.47-16.63-12.79-7.2-4.97-19.99-10.91-19.99-10.91Z"/>
        <path class="cls-9" d="m468.25,192.67c-3.23,13.99-6.07,15.54-7.36,27.94-1.29,12.4-13.18,16.54-16.28,21.71-3.1,5.17-4.06,13.18-13.66,16.8-7.46,2.81-16.05,12.97-19.5,17.35,12.48,3.42,40.94,8.59,75.37-2.19l-11.2-68.53s.42-.31,1.1-.85l-8.47-12.23Z"/>
        <path class="cls-38" d="m431.65,131.8c0,.57-.46,1.03-1.03,1.03s-1.03-.46-1.03-1.03.46-1.03,1.03-1.03,1.03.46,1.03,1.03Z"/>
        <circle class="cls-38" cx="437.31" cy="129.9" r="1.03"/>
        <polyline class="cls-70" points="433.96 130.68 433.96 136.11 436.65 135.89"/>
        <path class="cls-70" d="m433.06,139.6s3.58-.63,7.49-2.89"/>
        <path class="cls-54" d="m432.52,118.26s1.65,6.56,11.04,8.45c0,0-.86,7.15,2.84,10.77s-2.88,16.96,1.98,22.74c3.83,4.57,15.85,2.89,21.79,5.73,0,0-3.62-17.97-6.59-23.85,0,0,2.46-7.42-1.16-15.95,0,0,.65-12.79-9.95-14.08-10.6-1.29-16.4.26-19.96.78s0,5.42,0,5.42Z"/>
        <path class="cls-70" d="m428.33,129.9s1.03-1.77,3.32-.69"/>
        <path class="cls-70" d="m435.31,128.48s1.03-1.77,3.32-.69"/>
      </g>
      <g>
        <polygon class="cls-38" points="216.34 308.74 220.44 357.06 117.13 357.06 127.44 303.91 216.34 308.74"/>
        <polygon class="cls-27" points="217.75 325.35 216.34 308.74 127.44 303.91 121.61 334.01 217.75 325.35"/>
        <path class="cls-14" d="m119.17,166.77s16.44-12.4,49.05-13.09c32.61-.69,54.06,8.18,60.96,25.07,6.89,16.88,21.62,64.87,21.62,64.87l33.42-2.41v9.65s-35.51,12.84-46.17,8.96c-10.66-3.88-21.36-30.32-21.36-30.32l.31,76.3c.02,4.37-3.46,7.96-7.83,8.06-17.86.42-61.77.68-85.51-5.8-18.95-5.17-5.17-7.93-4.48-16.54.69-8.61-3.1-8.61,0-39.97,3.1-31.36,0-84.77,0-84.77Z"/>
        <path class="cls-68" d="m157.82,155.49c-4.88.26-7.33,5.17-1.13,8.92,6.2,3.75,19.25,1.68,23.9-.9"/>
        <path class="cls-68" d="m210.55,184.2s-2.58,14.15,4.48,28.43"/>
        <path class="cls-68" d="m204.97,193.13s-.77,4.28,7.11,11.87"/>
        <path class="cls-55" d="m177.36,132.75h-19.25l-2.57,24.45c-.11,1.08.35,2.16,1.24,2.79,1.56,1.09,4.74,2.42,10.97,2.42,5.54,0,8.8-1.46,10.47-2.57.93-.62,1.43-1.69,1.33-2.8l-2.19-24.29Z"/>
        <path class="cls-41" d="m178.63,146.81l-1.27-14.06h-19.25l-.29,2.78c1.75,2.98,7.54,10.69,20.81,11.28Z"/>
        <path class="cls-60" d="m198.04,264.55c-5.96-6.04-12.54-8.53-25.72-14.73-13.18-6.2-11.37-21.45-16.8-39.02-5.43-17.57-21.6-29.1-21.6-29.1l-13.44,24.71c.19,15.24-.03,32.1-1.32,45.14-3.1,31.36.69,31.36,0,39.97-.69,8.61-14.47,11.37,4.48,16.54,23.74,6.47,67.65,6.21,85.51,5.8,4.37-.1,7.85-3.69,7.83-8.06l-.07-15.99c-9.7-6.11-14.37-20.67-18.89-25.25Z"/>
        <path class="cls-38" d="m176.54,113.28c7.75,2.93,15.76-2.33,16.45-9.82.69-7.49-6.26-12.15-14.37-10.34,0,0,1.36-4.65-5.1-4.65s-11.54,4.65-13.61,7.84c0,0-9.39-2.19-10.94,4.98,0,0-11.63,6.13-1.38,14.66,0,0-1.64,8.53,8.87,14.39l20.07-17.06Z"/>
        <path class="cls-55" d="m157.65,114.08c-1.02,2.75-1.88,7.12.02,12.05.17.45-.27.87-.71.67-.93-.43-2.23-.73-3.63-.12-2.71,1.16-.65,10.98,6.98,7.88,0,0,7.11,6.46,16.8,2.84,9.69-3.62,5.69-10.98,3.49-15.89-1.6-3.58-2.17-9.16-2.37-11.92-.04-.56-.72-.79-1.11-.39-1.93,2-6.7,5.42-15.3,2.8-1.72-.52-3.54.39-4.16,2.08Z"/>
        <circle class="cls-38" cx="168.95" cy="120.95" r="1.21"/>
        <circle class="cls-38" cx="175.48" cy="119.74" r="1.21"/>
        <polyline class="cls-70" points="173.03 120.67 174.71 125.12 172.71 125.7"/>
        <path class="cls-70" d="m176.69,127.64s-4.36,4.26-10.82,1.36"/>
        <line class="cls-70" x1="166.64" y1="128.03" x2="165.21" y2="130.01"/>
        <path class="cls-70" d="m154.1,130.74s-.68-2.26.71-2.71c1.39-.45,3.94.74,3.55,4.43"/>
        <line class="cls-70" x1="157.64" y1="129.12" x2="155.87" y2="129.8"/>
        <path class="cls-32" d="m166.76,126.5c0,1.52-1.23,2.75-2.75,2.75s-2.75-1.23-2.75-2.75,1.23-2.75,2.75-2.75,2.75,1.23,2.75,2.75Z"/>
        <path class="cls-70" d="m165.63,116.81s1.51-2.07,4.23-1.03"/>
        <path class="cls-70" d="m172.59,115.48s1.51-2.07,4.23-1.03"/>
      </g>
      <g>
        <path class="cls-55" d="m232.93,194.77l-9.95,33.6,12.04-6.91,11.48,2.6s-20.92,30.7-35.54,25.11c-7.32-2.8-10.07-10.78-5.94-26.86,4.13-16.08,15.2-43,16.33-47.59,0,0,10.74,6.52,11.58,20.05Z"/>
        <path class="cls-3" d="m227.87,211.85l5.06-17.07c-.84-13.53-11.58-20.05-11.58-20.05-.38,1.57-1.93,5.74-3.96,11.2,4.36,3.35,9.46,15.97,10.49,25.93Z"/>
        <polygon class="cls-55" points="299.81 174.04 311.49 231.22 291.95 231.22 285.13 188.65 299.81 174.04"/>
        <path class="cls-58" d="m299.81,174.04l-14.69,14.61,4.83,30.16c-1.99-12.4,12-34.26,13.27-28.05h0l-3.41-16.72Z"/>
        <path class="cls-45" d="m245.07,160.14l-.65-1.42s-9.43,2.46-27.01,14.86l13.83,20.03s2.97,25.97,6.2,41.61h48.46s4.91-36.48,5.94-42.08c0,0,10.98-15.03,13.44-21.62,0,0-16.92-8.93-27.48-12.02l-.78,1.68-31.96-1.03Z"/>
        <path class="cls-72" d="m231.25,193.61s1.68-8.27,1.68-14.34"/>
        <path class="cls-72" d="m291.51,191.22c-.5-2.9-1.24-7.92-1.24-11.96"/>
        <path class="cls-4" d="m288.43,216.69c-5.34,1.28-20.97,4.37-27.38-1.37-7.8-6.98-9.52-4.39-18.82-7.88-9.3-3.49-9.05-15.76-10.14-17.83-1.09-2.05-5.73-3.15-5.79-3.16l4.95,7.17s2.97,25.97,6.2,41.61h48.46s1.19-8.87,2.53-18.53Z"/>
        <path class="cls-17" d="m265.36,112.76s-5.99-6.03-13.22-2.67c-7.24,3.36-10.51,14.42-10.6,21.25-.09,6.83-1.46,16.22,2.41,16.22,0,0,.59,8.53,14.08,7.49s18.91-6.2,20.38-11.11c0,0,3.64-1.46,3.24-5.9s-3.68-26.92-16.29-25.28Z"/>
        <path class="cls-55" d="m254.81,142.57l-.64,12.53c-.08,1.57-1.16,2.9-2.67,3.31l-6.42,1.73s1.67,10.34,14.79,10.34,17.17-9.3,17.17-9.3l-7.25-3.06c-1.31-.55-2.17-1.81-2.21-3.23l-.36-12.32h-12.4Z"/>
        <path class="cls-40" d="m267.21,142.57h-12.4l-.23,4.57c2.46,1.98,7.03,5.01,12.95,6.11l-.31-10.68Z"/>
        <path class="cls-55" d="m269.98,132.04s1.42-2.38,3.37-1.37c1.95,1.01-.53,7.54-3.37,5.73-2.84-1.81,0-4.36,0-4.36Z"/>
        <path class="cls-55" d="m251.27,132.04s-1.42-2.38-3.37-1.37c-1.95,1.01.53,7.54,3.37,5.73,2.84-1.81,0-4.36,0-4.36Z"/>
        <path class="cls-55" d="m262.73,118.1s-3.48,9.02-9.79,10.74c-1.13.31-1.9,1.33-1.77,2.49.24,2.25.63,5.7.9,7.93.43,3.53,4.21,6.57,9.37,6.57s8.13-4.12,8.69-6.87c.36-1.75.51-5.84.57-9.08.05-2.62-1.24-5.06-3.39-6.57-1.83-1.28-3.85-3.1-4.58-5.22Z"/>
        <g>
          <path class="cls-38" d="m258.03,130.42c0,.51-.41.92-.92.92s-.92-.41-.92-.92.41-.92.92-.92.92.41.92.92Z"/>
          <path class="cls-38" d="m265.46,130.42c0,.51-.41.92-.92.92s-.92-.41-.92-.92.41-.92.92-.92.92.41.92.92Z"/>
        </g>
        <path class="cls-70" d="m260.31,130.92l-.44,3.54c-.02.18.12.33.29.33h1.34"/>
        <path class="cls-70" d="m257.52,137.61s5.28,1.94,7.96-2.36"/>
        <path class="cls-70" d="m264.54,134.94s1.29.02,1.64.99"/>
        <path class="cls-10" d="m258.2,136.31c0,1.11-.9,2.02-2.02,2.02s-2.02-.9-2.02-2.02.9-2.02,2.02-2.02,2.02.9,2.02,2.02Z"/>
        <path class="cls-70" d="m262.7,128.28s1.83-1.34,3.96,0"/>
        <path class="cls-70" d="m254.57,128.28s1.83-1.34,3.96,0"/>
      </g>
      <g>
        <path class="cls-33" d="m222.22,220.61h187.51c3.95,0,7.16,3.21,7.16,7.16v122.48c0,3.75-3.05,6.8-6.8,6.8h-188.23c-3.75,0-6.8-3.05-6.8-6.8v-122.48c0-3.95,3.21-7.16,7.16-7.16Z"/>
        <path class="cls-42" d="m411.44,255.24l-89.85,56.74c-3.43,2.17-7.81,2.17-11.24,0l-89.85-56.74c-3.39-2.14-5.45-5.87-5.45-9.89v-14.14h201.83v14.14c0,4.01-2.06,7.74-5.45,9.89Z"/>
        <path class="cls-59" d="m411.13,244.84l-89.54,56.54c-3.43,2.17-7.81,2.17-11.24,0l-89.54-56.54c-3.58-2.26-5.76-6.21-5.76-10.45v-6.61c0-3.96,3.21-7.16,7.16-7.16h187.51c3.96,0,7.16,3.21,7.16,7.16v6.61c0,4.24-2.17,8.18-5.76,10.45Z"/>
        <g class="cls-75">
          <path class="cls-57" d="m346.47,291.74c0,3.59-.57,6.87-1.72,9.84-1.15,2.98-2.76,5.31-4.86,7-2.09,1.69-4.52,2.54-7.28,2.54-1.84,0-3.47-.44-4.89-1.33-1.42-.88-2.44-2.05-3.06-3.49h-.6c-2.69,3.21-6.12,4.82-10.27,4.82-4.41,0-7.88-1.33-10.42-3.98-2.54-2.65-3.81-6.28-3.81-10.89,0-5.26,1.67-9.49,5.01-12.7,3.34-3.21,7.7-4.82,13.08-4.82,2.14,0,4.5.2,7.08.62,2.58.41,4.7.9,6.37,1.48l-.86,18.27c0,3.46.95,5.19,2.84,5.19,1.59,0,2.86-1.16,3.81-3.49.95-2.33,1.42-5.37,1.42-9.13,0-4.01-.83-7.55-2.5-10.63-1.67-3.08-4.02-5.42-7.04-7.04-3.03-1.62-6.48-2.43-10.37-2.43-5.03,0-9.4,1.03-13.11,3.1-3.71,2.07-6.56,5.05-8.54,8.95-1.98,3.9-2.97,8.4-2.97,13.51,0,6.87,1.84,12.15,5.51,15.82,3.67,3.67,9,5.51,15.97,5.51,2.64,0,5.54-.29,8.71-.88,3.16-.58,6.28-1.44,9.34-2.56v7.17c-5.33,2.27-11.25,3.4-17.75,3.4-9.46,0-16.84-2.49-22.14-7.47-5.29-4.98-7.94-11.9-7.94-20.77,0-6.15,1.35-11.74,4.05-16.76,2.7-5.02,6.55-8.95,11.54-11.81,4.99-2.85,10.74-4.28,17.24-4.28,5.48,0,10.37,1.12,14.68,3.36,4.31,2.24,7.63,5.43,9.97,9.56,2.34,4.13,3.51,8.9,3.51,14.31Zm-38.26,4.67c0,5.26,2.14,7.88,6.43,7.88,2.24,0,3.95-.79,5.12-2.37,1.17-1.58,1.88-4.15,2.13-7.71l.49-8.26c-1.27-.27-2.7-.41-4.3-.41-3.11,0-5.54.97-7.27,2.91-1.73,1.94-2.6,4.6-2.6,7.96Z"/>
        </g>
        <path class="cls-34" d="m346.47,288.9c0,3.59-.57,6.87-1.72,9.84-1.15,2.98-2.76,5.31-4.86,7-2.09,1.69-4.52,2.54-7.28,2.54-1.84,0-3.47-.44-4.89-1.33-1.42-.88-2.44-2.05-3.06-3.49h-.6c-2.69,3.21-6.12,4.82-10.27,4.82-4.41,0-7.88-1.33-10.42-3.98-2.54-2.65-3.81-6.28-3.81-10.89,0-5.26,1.67-9.49,5.01-12.7,3.34-3.21,7.7-4.82,13.08-4.82,2.14,0,4.5.21,7.08.62,2.58.41,4.7.9,6.37,1.48l-.86,18.27c0,3.46.95,5.19,2.84,5.19,1.59,0,2.86-1.16,3.81-3.49.95-2.33,1.42-5.37,1.42-9.13,0-4.01-.83-7.55-2.5-10.63-1.67-3.08-4.02-5.42-7.04-7.04-3.03-1.62-6.48-2.43-10.37-2.43-5.03,0-9.4,1.03-13.11,3.1-3.71,2.07-6.56,5.05-8.54,8.95-1.98,3.9-2.97,8.4-2.97,13.51,0,6.87,1.84,12.15,5.51,15.82,3.67,3.67,9,5.51,15.97,5.51,2.64,0,5.54-.29,8.71-.88,3.16-.58,6.28-1.44,9.34-2.56v7.17c-5.33,2.27-11.25,3.4-17.75,3.4-9.46,0-16.84-2.49-22.14-7.47-5.29-4.98-7.94-11.9-7.94-20.77,0-6.15,1.35-11.74,4.05-16.76,2.7-5.02,6.55-8.95,11.54-11.81,4.99-2.85,10.74-4.28,17.24-4.28,5.48,0,10.37,1.12,14.68,3.36,4.31,2.24,7.63,5.43,9.97,9.56,2.34,4.13,3.51,8.9,3.51,14.31Zm-38.26,4.67c0,5.26,2.14,7.88,6.43,7.88,2.24,0,3.95-.79,5.12-2.37,1.17-1.58,1.88-4.15,2.13-7.71l.49-8.26c-1.27-.27-2.7-.41-4.3-.41-3.11,0-5.54.97-7.27,2.91-1.73,1.94-2.6,4.6-2.6,7.96Z"/>
      </g>
      <path class="cls-26" d="m397.24,270.14s1.03,1.31,4.28,2.28l-5.25,4.25s2.02,1.85,7.13-.66l-3.01,3.57s1.38.15,5.14-.96l-2.63,3.36,13.98,8.08v-20.2l-11.06-1.68-6.94.93-1.64,1.03Z"/>
      <polygon class="cls-48" points="240.28 261.66 236.81 264.5 243.38 265.93 236.81 268.68 241.65 270.61 236.81 271.26 238.62 272.41 233.32 273.38 215.05 295.68 215.05 271.26 230.22 263.86 240.28 261.66"/>
      <path class="cls-55" d="m193.33,269.36l21.2.63s9.28-5.39,12.17-6.65c2.89-1.25,11.04-3.26,13.55-2.38,2.51.88-9.03,2.89-9.03,2.89,0,0,6.27-1.54,12.02,2.1,1.36.86-7.63-.84-11.27.04,0,0,10.23,4.1,9.53,4.64-1.09.85-9.46-1.96-9.46-1.96,0,0,7.91,3.07,7.7,3.76-.25.8-4.58-.27-6.9-.91-.81-.22-1.65.07-2.16.74-1.33,1.74-4.77,4.73-12.34,3.64l-26.28,5.9,1.25-12.42Z"/>
      <polygon class="cls-49" points="204 269.67 193.33 269.36 192.08 281.78 197.66 280.52 204 269.67"/>
      <g>
        <path class="cls-14" d="m119.17,166.77c-15.85,10.42-18.43,33.17-10.94,53.84,7.49,20.67,12.4,38.51,19.38,49.1,6.89,10.47,18.16,26.23,63.72,14.66,1.09-.28,1.97-1.11,2.28-2.19.81-2.77,2.11-8.39,1.19-13.76,0,0-5.94-4.65-10.34-3.88s-10.11-3.92-13.19-2.74-3.22-1.91-5.35-1.91c0,0-10.04-32.3-16.26-46.78s-15.68-37.9-30.49-46.35Z"/>
        <path class="cls-59" d="m132.15,275.95c4.93,5.81,12.51,11.4,26.78,12.34-1.6-11.16-14.27-19.28-26.78-12.34Z"/>
        <line class="cls-68" x1="165.09" y1="260.74" x2="160" y2="263.86"/>
        <path class="cls-68" d="m168.79,262.65c.86,2.24,2.76,5.51,3.96,5.25,1.21-.26-.86-3.02-.86-3.02"/>
      </g>
      <path class="cls-55" d="m235.45,220.61s4.91-3.88,9.63-5.23c4.72-1.36,13.83,1.03,16.73,5.62,2.91,4.59,4.52,7.69,3.94,8.27s-5.75-7.13-5.75-7.13c0,0,1.03,3.45,1.36,5.39s-.45,3.68-.9,5.04c-.45,1.36-1.62-.12-1.42-1.35.19-1.23.13-3.17-.13-4.21-.26-1.03-2.07-4.85-2.07-4.85,0,0,1,3.23.53,5.75-.47,2.52-1.83,4.33-1.83,4.33,0,0-1.02-.97-.56-2.37.6-1.85.62-4.93-.41-7.26,0,0,.19,5.17-2.58,7.11,0,0-.71-.58-.26-1.94.45-1.36.84-4.52.84-4.52,0,0-2.33-.52-5.49-2.65h-11.63Z"/>
      <path class="cls-55" d="m475.74,179.35c12.4-3.02,14.48,5.18,18.82,29.24,4.48,24.81,2.1,42.41-5,51.34-10.68,13.44-66.5,15.33-66.5,15.33,0,0-5.25,4.65-13.18,3.01,0,0-6.2,4.31-6.98,3.7-.78-.6,3.36-4.31,6.12-5.86,0,0-5.35.67-7.84,3.01-1.55,1.46-1.88-.98.34-3.01,3.1-2.84,6.98-2.63,6.98-2.63,0,0-3.76-.89-7.84,1.03-2.2,1.03-3.36,2.91-4.39,2.13-1.03-.78,2.87-3.98,4.72-5.04,2.22-1.27,5.94-1.29,5.94-1.29,0,0-4.13-1.1-5.81-.97-1.68.13-2.84,1.42-3.88.78-1.03-.65,1.18-2.54,3.73-3.01,4.35-.82,9.78.62,9.78.62l10.4-.19,53.3-18.71s-5.12-36.46-5.9-44.91c-.8-8.68-1.39-22.49,7.19-24.58Z"/>
      <g>
        <path class="cls-16" d="m557,171.41l-12.67-27.53c-1.06-2.31-3.58-3.57-6.07-3.05l-2.13.45c-1.1.23-2.19-.47-2.42-1.58l-.94-4.49c-.19-.89-1.06-1.46-1.95-1.27l-1.3.27c-.89.19-1.46,1.06-1.27,1.95l.94,4.49c.23,1.1-.47,2.19-1.58,2.42l-9.29,1.95c-1.1.23-2.19-.47-2.42-1.58l-.94-4.49c-.19-.89-1.06-1.46-1.95-1.27l-1.3.27c-.89.19-1.46,1.06-1.27,1.95l.94,4.49c.23,1.1-.47,2.19-1.58,2.42l-2.13.45c-2.49.52-4.28,2.7-4.32,5.24l-.5,30.3c.02.21.04.42.06.64l1.31,6.22c.27,1.29,1.64,2.09,3.05,1.79l49.14-10.34c1.42-.3,2.34-1.58,2.07-2.87l-1.31-6.22c-.07-.2-.13-.4-.2-.61Z"/>
        <path class="cls-8" d="m541.2,156.97c2.73,6.81-1.36,14.49-9.13,17.15-7.77,2.67-16.27-.69-18.99-7.5-2.73-6.81,1.36-14.49,9.13-17.15,7.77-2.67,16.27.69,19,7.5Z"/>
        <path class="cls-20" d="m503.22,184.81l1.02,4.85c.27,1.29,1.64,2.09,3.05,1.79l49.14-10.34c1.42-.3,2.34-1.58,2.07-2.87l-1.02-4.85-54.27,11.42Z"/>
        <path class="cls-34" d="m540.83,155.47c2.73,6.81-1.36,14.49-9.13,17.15-7.77,2.67-16.27-.69-19-7.5-2.73-6.81,1.36-14.49,9.13-17.15,7.77-2.67,16.27.69,18.99,7.5Z"/>
        <g class="cls-75">
          <path class="cls-62" d="m525.06,151.98c.33.82-.16,1.74-1.09,2.06-.93.32-1.95-.08-2.28-.9-.33-.82.16-1.74,1.09-2.06.93-.32,1.95.08,2.28.9Z"/>
          <path class="cls-21" d="m531.56,168.21c.33.82-.16,1.74-1.09,2.06-.93.32-1.95-.08-2.28-.9-.33-.82.16-1.74,1.09-2.06.93-.32,1.95.08,2.28.9Z"/>
          <path class="cls-39" d="m519.69,154.54c.81.47,1.01,1.45.45,2.19-.56.74-1.67.95-2.49.48s-1.01-1.45-.45-2.19c.56-.74,1.67-.95,2.49-.48Z"/>
          <path class="cls-5" d="m535.83,163.93c.81.47,1.01,1.45.45,2.19-.56.74-1.67.95-2.49.48-.81-.47-1.01-1.45-.45-2.19.56-.74,1.67-.95,2.49-.48Z"/>
          <path class="cls-22" d="m516.91,159.36c.99-.05,1.8.62,1.83,1.49.02.87-.76,1.63-1.74,1.68-.99.05-1.8-.62-1.83-1.49-.02-.88.76-1.63,1.74-1.68Z"/>
          <path class="cls-35" d="m536.54,158.33c.99-.05,1.8.62,1.83,1.49.02.87-.76,1.63-1.74,1.68-.99.05-1.8-.62-1.83-1.49-.02-.87.76-1.63,1.74-1.68Z"/>
          <path class="cls-51" d="m517.81,164.61c.78-.56,1.91-.46,2.5.22.6.68.45,1.68-.34,2.23-.78.56-1.91.46-2.5-.22s-.45-1.68.34-2.23Z"/>
          <path class="cls-66" d="m533.41,153.55c.78-.56,1.91-.46,2.5.22.6.68.45,1.68-.34,2.23s-1.91.46-2.5-.22c-.6-.68-.45-1.68.34-2.23Z"/>
          <path class="cls-1" d="m522.03,168.28c.28-.85,1.28-1.36,2.22-1.14.95.22,1.48,1.09,1.2,1.94-.28.85-1.28,1.36-2.22,1.14-.95-.22-1.48-1.09-1.2-1.94Z"/>
          <path class="cls-46" d="m527.65,151.41c.28-.85,1.28-1.36,2.22-1.14.95.22,1.48,1.09,1.2,1.94-.28.85-1.28,1.36-2.22,1.14-.95-.22-1.48-1.09-1.2-1.94Z"/>
        </g>
        <g>
          <path class="cls-38" d="m525,151.67c.33.82-.16,1.74-1.09,2.06s-1.95-.08-2.28-.9c-.33-.82.16-1.74,1.09-2.06.93-.32,1.95.08,2.28.9Z"/>
          <path class="cls-38" d="m531.5,167.91c.33.82-.16,1.74-1.09,2.06s-1.95-.08-2.28-.9c-.33-.82.16-1.74,1.09-2.06.93-.32,1.95.08,2.28.9Z"/>
          <path class="cls-38" d="m519.63,154.23c.81.47,1.01,1.45.45,2.19-.56.74-1.67.95-2.49.48-.81-.47-1.01-1.45-.45-2.19.56-.74,1.67-.95,2.49-.48Z"/>
          <path class="cls-38" d="m535.77,163.63c.81.47,1.01,1.45.45,2.19-.56.74-1.67.95-2.49.48-.81-.47-1.01-1.45-.45-2.19.56-.74,1.67-.95,2.49-.48Z"/>
          <path class="cls-38" d="m516.85,159.06c.99-.05,1.8.62,1.83,1.49.02.88-.76,1.63-1.74,1.68-.99.05-1.8-.62-1.83-1.49-.02-.87.76-1.63,1.74-1.68Z"/>
          <path class="cls-38" d="m536.48,158.02c.99-.05,1.8.62,1.83,1.49.02.87-.76,1.63-1.74,1.68-.99.05-1.8-.62-1.83-1.49s.76-1.63,1.74-1.68Z"/>
          <path class="cls-38" d="m517.75,164.31c.78-.56,1.91-.46,2.5.22.6.68.45,1.68-.34,2.23-.78.56-1.91.46-2.5-.22s-.45-1.68.34-2.23Z"/>
          <path class="cls-38" d="m533.35,153.24c.78-.56,1.91-.46,2.5.22s.45,1.68-.34,2.23c-.78.56-1.91.46-2.5-.22-.6-.68-.45-1.68.34-2.23Z"/>
          <path class="cls-38" d="m521.97,167.97c.28-.85,1.28-1.36,2.22-1.14.95.22,1.48,1.09,1.2,1.94-.28.85-1.28,1.36-2.22,1.14s-1.48-1.09-1.2-1.94Z"/>
          <path class="cls-38" d="m527.59,151.1c.28-.85,1.28-1.36,2.22-1.14s1.48,1.09,1.2,1.94c-.28.85-1.28,1.36-2.22,1.14-.95-.22-1.48-1.09-1.2-1.94Z"/>
        </g>
        <g>
          <path class="cls-25" d="m530.83,133.94l-1.3.27c-.89.19-1.46,1.06-1.27,1.95l.94,4.48c.23,1.1-.47,2.19-1.58,2.42l-8.1,1.7,17.43-3.67h0l-.82.17c-1.1.23-2.19-.47-2.42-1.58l-.94-4.49c-.19-.89-1.06-1.46-1.95-1.27Z"/>
          <path class="cls-24" d="m509.82,146.81l-1.17.25h0l9.68-2.04c-1.1.23-2.19-.47-2.42-1.58l-.94-4.49c-.19-.89-1.06-1.46-1.95-1.27l-1.3.27c-.89.19-1.46,1.06-1.27,1.95l.94,4.49c.23,1.1-.47,2.19-1.58,2.42Z"/>
        </g>
      </g>
      <g>
        <path class="cls-16" d="m84.35,105.55c-.83.99-1.88,2.24-2.86,3.42-2.46,2.96-4.1,6.61-4.12,10.46-.03,5.88,2.06,12.84,6.3,19.69,4.24,6.85,9.54,11.82,14.81,14.42,3.45,1.7,7.46,1.87,11.2.98,1.49-.35,3.08-.73,4.34-1.04,1.13-.27,1.61-1.61.91-2.54l-7.01-9.44c-.92-1.24-2.64-1.57-3.96-.76l-2.52,1.56c-.73.45-1.67.43-2.33-.11-2.34-1.92-4.83-4.61-7.08-8.25-2.25-3.64-3.56-7.06-4.23-10.02-.19-.84.21-1.68.94-2.13l2.52-1.56c1.32-.81,1.79-2.5,1.09-3.88l-5.33-10.48c-.53-1.04-1.93-1.21-2.68-.32Z"/>
        <g>
          <path class="cls-59" d="m91.28,120.23c1.32-.81,1.79-2.5,1.09-3.88l-5.33-10.48c-.53-1.04-1.93-1.21-2.68-.32-.18.21-.4.47-.6.71,1.76,4.25,4.1,9.11,6.94,14.32l.57-.36Z"/>
          <path class="cls-59" d="m113.11,153.7c.3-.07.63-.15.9-.22,1.13-.27,1.61-1.61.91-2.54l-7.01-9.44c-.92-1.24-2.64-1.57-3.96-.76l-.57.36c3.4,4.87,6.7,9.14,9.72,12.61Z"/>
        </g>
      </g>
      <path class="cls-28" d="m401.82,84.88c-.87-7.66,12.33-10.5,20.36-11.52,3.37-.43,6.12-2.86,7-6.15,1.77-6.64,6.45-17.14,18.61-19.89,12.57-2.85,22.02,6.23,26.35,11.56,1.63,2.02,4.19,3,6.76,2.61,6.05-.94,17.18-.64,22.88,12.18,1.16,2.6,3.55,4.44,6.38,4.79,6.72.83,18.03,2.94,17.27,7.81-1.07,6.89-34.72,5.86-62.78,5.86s-61.56,3.79-62.81-7.24Z"/>
      <path class="cls-28" d="m235.67,47.42h-97.06c-19.67,0-10.93-16.39,0-19.3,10.93-2.91,8.38-20.4,28.04-27.31,10.92-3.84,22.22,7.28,22.22,7.28,0,0,12.38-4.01,23.31,4.01,7.34,5.38,12.89,17.26,23.49,17.48,17.48.36,24.95,17.85,0,17.85Z"/>
      <g>
        <g>
          <path class="cls-15" d="m88.5,306.33s16.32-58.81,2.93-53.67c5.12-24.22.11-52.68-10.24-52.61-10.36.07-12.75,56.57-12.75,56.57,0,0-13.64-3.31-2.35,42.98l22.42,6.74Z"/>
          <path class="cls-71" d="m81.18,200.05s1.36,57.34-5.59,102.4"/>
        </g>
        <g>
          <path class="cls-31" d="m74.51,299.79s-12.53-43.4-22.62-77.84c-10.09-34.43-25.5-41.99-36.8-39.66-11.3,2.33-2.3,33.81,18.5,80.99,12.8,29.03,28.19,50.39,28.19,50.39l12.73-13.87Z"/>
          <path class="cls-71" d="m15.09,182.29s29.39,62.73,52.74,124.78"/>
        </g>
        <g>
          <path class="cls-63" d="m69.86,327.51s-11.11-74.32-32.52-58.76c0,0-19.21-38.14-33.87-30.55-13.24,6.86,15.68,41.28,15.68,41.28,0,0-14.04,1.14-2.97,16.5,7.95,11.03,47.43,50.99,47.43,50.99l6.25-19.46Z"/>
          <path class="cls-71" d="m3.47,238.2s44.75,67.48,59.89,89.31"/>
        </g>
      </g>
      <g>
        <g>
          <path class="cls-43" d="m522,302.66s4.36-60.88,15.25-51.54c3.31-24.53,17.57-49.67,27.3-46.12,9.73,3.54-6.97,57.56-6.97,57.56,0,0,13.96,1.46-12.2,41.27l-23.38-1.17Z"/>
          <path class="cls-71" d="m564.55,204.99s-20.52,53.56-29.1,98.34"/>
        </g>
        <g>
          <path class="cls-64" d="m534.51,305.96s23.08-38.84,41.53-69.61c18.45-30.78,35.27-34.2,45.62-29.09,10.35,5.11-6.31,33.3-38.34,73.7-19.71,24.86-39.99,41.64-39.99,41.64l-8.82-16.64Z"/>
          <path class="cls-71" d="m621.66,207.26s-44.27,53.28-82.52,107.44"/>
        </g>
        <g>
          <path class="cls-56" d="m530.42,329.77s31.29-68.32,47.55-47.43c0,0,29.04-31.32,41.01-19.96,10.82,10.26-26.52,35.31-26.52,35.31,0,0,13.17,4.99-1.72,16.67-10.69,8.39-59.71,35.83-59.71,35.83l-.6-20.43Z"/>
          <path class="cls-71" d="m618.98,262.38s-61.71,52.42-82.31,69.19"/>
        </g>
      </g>
      <g>
        <path class="cls-52" d="m247.07,364.21H59.69c-16.22,0-28.92-14.68-25.8-30.6,1.04-5.31,3.73-10.33,9.18-14.14,7.88-5.51,19.35,3.28,19.35,3.28,0,0-9.6-41.83,9.66-47.51,19.26-5.68,45.63,37.53,45.63,37.53,0,0-1.4-13.7,9.45-12.3,10.85,1.4,20.4,16.66,20.4,16.66,0,0-1.64-10.51,8.69-10.86,10.33-.35,19.43,19.75,19.43,19.75,0,0,19.43-1.75,26.24,12.61,0,0,35.15-.35,45.14,25.56Z"/>
        <path class="cls-2" d="m201.93,338.65c-6.81-14.36-26.24-12.61-26.24-12.61,0,0-9.1-20.1-19.43-19.75-10.33.35-8.69,10.86-8.69,10.86,0,0-9.55-15.26-20.4-16.66-.87-.11-1.66-.12-2.38-.05h0c10.15-.31,24.11,22.14,27.55,33.57,0,0,9.9-10.89,18.89,9.27.74,1.67,3.17,1.51,3.71-.24,1.31-4.23,3.27-9.49,5.19-10.74,5.97-3.88,12.51.32,17.86,14.46,1.31,3.47,5.15,5.21,8.68,4.07,9.32-3,26.92-5.23,40.41,13.37-9.99-25.91-45.14-25.56-45.14-25.56Z"/>
      </g>
      <g>
        <path class="cls-36" d="m369.07,364.21h186.72c17.55,0,31.14-15.8,28.01-33.07-.46-2.51-1.15-4.41-2.17-5.29-9.54-8.28-22.97,8.18-22.97,8.18,0,0,21.06-56.64,1.07-62.53-20-5.9-56.33,39.31-56.33,39.31,0,0,19.43-41.3,8.15-39.84-11.27,1.45-46.36,53.52-46.36,53.52,0,0,5.55-13.31-5.18-13.68-10.73-.36-16.82,13.77-16.82,13.77,0,0-20.17-1.82-27.25,13.09,0,0-36.5-.36-46.87,26.54Z"/>
        <path class="cls-61" d="m397.03,356.03c15.51-21.97,34.37-4.91,34.37-4.91,0,0,12.15-19.64,20.67-20.17,8.53-.53,6.46,17.85,6.46,17.85,4.13-17.06,31.53-48.07,40.06-51.82,8.53-3.75,4.8,13.84,4.8,13.84,0,0,19.43-41.3,8.15-39.84-11.27,1.45-46.36,53.52-46.36,53.52,0,0,5.55-13.31-5.18-13.68-10.73-.36-16.82,13.77-16.82,13.77,0,0-20.17-1.82-27.25,13.09,0,0-36.5-.36-46.87,26.54,10.29-17.66,27.96-8.18,27.96-8.18Z"/>
      </g>
      <path class="cls-28" d="m254.17,73.49s-4.02-5.79-10.51,0c0,0,9.2-1.38,10.51,5.55,1.31-6.93,10.51-5.55,10.51-5.55-6.49-5.79-10.51,0-10.51,0Z"/>
      <path class="cls-28" d="m384.14,99.39s-4.02-5.79-10.51,0c0,0,9.2-1.38,10.51,5.55,1.31-6.93,10.51-5.55,10.51-5.55-6.49-5.79-10.51,0-10.51,0Z"/>
    </g>
  </g>
</svg>