<svg width="174" height="100" viewBox="0 0 174 100" fill="none" xmlns="http://www.w3.org/2000/svg">
<g filter="url(#filter0_dd)">
<path fill-rule="evenodd" clip-rule="evenodd" d="M111.663 50.956C111.663 55.4355 114.638 58.2167 119.426 58.2167C121.717 58.2167 124.686 57.7116 124.686 57.7116V37.9409H121.56V43.557C120.517 43.4243 119.753 43.4068 119.201 43.4068L118.827 43.4089C114.408 43.4089 111.663 46.3012 111.663 50.956ZM114.902 50.8785C114.902 47.5119 116.373 45.875 119.399 45.875C120.017 45.875 120.704 45.9386 121.56 46.0748V55.6661C120.705 55.7415 120.077 55.7757 119.529 55.7757C116.675 55.7757 114.902 53.8993 114.902 50.8785ZM68.2058 43.0017L76.6442 57.7655H80.7912V39.0776H77.8135L77.817 53.7093L69.3787 39.0776H65.2637V57.7655H68.2037L68.2058 43.0017ZM103.518 58.0519C102.097 58.0519 100.615 57.8927 98.8508 57.5524L98.6633 57.5154V54.9047L98.9428 54.9662L98.9453 54.9667L98.9454 54.9667L98.9454 54.9667C100.498 55.2976 101.84 55.5838 103.18 55.5838C104.267 55.5838 106.794 55.4105 106.794 53.8107C106.794 52.4673 105.047 52.1312 103.644 51.8623L103.556 51.8448L103.554 51.8444C103.294 51.7928 103.048 51.7441 102.838 51.6911C100.78 51.1553 98.586 50.3519 98.586 47.5875C98.586 44.8922 100.715 43.3462 104.426 43.3462C106.207 43.3462 107.5 43.539 108.539 43.6941L109.047 43.7702V46.3006L108.776 46.2538C107.6 46.0365 106.222 45.8137 104.895 45.8137C103.424 45.8137 101.671 46.0896 101.671 47.4051C101.671 48.495 103.103 48.8072 104.762 49.1684C107.079 49.6742 109.955 50.3037 109.955 53.4733C109.955 56.383 107.608 58.0519 103.518 58.0519ZM127.225 53.3433C127.225 57.4819 130.219 58.0519 133.455 58.0519C135.12 58.0519 137.069 58.0142 139.522 57.7383L139.738 57.7159V48.1086C139.738 43.7046 136.737 43.3462 133.194 43.3462C131.576 43.3462 129.989 43.5104 128.344 43.8471L128.159 43.8848V46.3803L128.43 46.3314L128.435 46.3305C129.854 46.0764 131.461 45.7885 132.909 45.7885C136.563 45.7885 136.597 46.3914 136.601 48.9176L136.561 48.9158C136.121 48.8959 134.891 48.8401 134.623 48.8401C131.856 48.8401 127.225 48.8401 127.225 53.3433ZM130.224 53.4202C130.224 51.4606 131.877 51.0672 134.544 51.0672C134.725 51.0672 136.214 51.1224 136.787 51.1441V55.7514C136.381 55.7822 135.052 55.8765 134.311 55.8765C132.334 55.8765 130.224 55.6871 130.224 53.4202ZM89.6267 58.0519C86.3904 58.0519 83.3967 57.4819 83.3967 53.3433C83.3967 48.8401 88.0274 48.8401 90.7946 48.8401C91.0626 48.8401 92.2977 48.8961 92.7356 48.9159L92.7723 48.9176C92.7688 46.3914 92.7347 45.7885 89.0803 45.7885C87.6347 45.7885 86.0294 46.0758 84.6107 46.3297L84.6016 46.3314L84.3305 46.3803V43.8848L84.5159 43.8471C86.1619 43.5104 87.7479 43.3462 89.366 43.3462C92.9082 43.3462 95.9096 43.7046 95.9096 48.1086V57.7159L95.6936 57.7383C93.2406 58.0142 91.2915 58.0519 89.6267 58.0519ZM90.7159 51.0672C88.0483 51.0672 86.3953 51.4606 86.3953 53.4202C86.3953 55.6871 88.5054 55.8765 90.4831 55.8765C91.2239 55.8765 92.5528 55.7822 92.9591 55.7514V51.1441C92.3856 51.1224 90.8963 51.0672 90.7159 51.0672ZM152.176 57.9841V64.113L155.373 62.6941V43.62L153.6 43.5284C152.507 43.4649 151.376 43.3999 150.537 43.3999C148.2 43.3999 146.642 43.7373 145.327 44.5268C142.7 46.1175 142.308 49.0691 142.308 50.6864C142.308 53.921 143.729 56.443 146.109 57.4336C147.174 57.8863 148.548 58.156 149.785 58.156C150.307 58.156 150.956 58.156 152.176 57.9841ZM145.522 50.6864C145.522 47.4882 147.132 45.8667 150.303 45.8667C150.809 45.8667 151.248 45.8904 152.205 45.9554V55.5089C150.984 55.6633 150.431 55.6633 149.941 55.6633C147.924 55.6633 145.522 54.7998 145.522 50.6864Z" fill="#F0F3FF"/>
</g>
<g filter="url(#filter1_dd)">
<path fill-rule="evenodd" clip-rule="evenodd" d="M51.309 28H62.431L52.0986 56.4565C51.824 57.2201 51.0923 57.7657 50.2358 57.7657H39.3146V57.7489C40.0825 57.6714 40.7229 57.1586 40.9766 56.4565L51.309 28ZM38.4262 57.331C37.6555 57.331 36.9956 56.8644 36.7071 56.1986L34.4813 50.0767L38.2701 39.6394C38.3328 39.4487 38.4806 39.2258 38.5161 39.1769C38.8562 38.6984 39.413 38.3861 40.043 38.3861C40.8214 38.3861 41.4896 38.8619 41.7726 39.5388L43.9893 45.6363L40.199 56.0777C40.1126 56.3159 39.9886 56.4906 39.9531 56.5402C39.613 57.018 39.0569 57.331 38.4262 57.331ZM39.2354 37.9497V37.956C38.4151 37.9902 37.7204 38.5191 37.4542 39.2582L27.1225 67.714H15.9998L26.3315 39.2582C26.6075 38.4946 27.3378 37.9497 28.1949 37.9497H39.2354Z" fill="#0BABDA"/>
</g>
<defs>
<filter id="filter0_dd" x="47.2637" y="7.94092" width="126.109" height="88.1721" filterUnits="userSpaceOnUse" color-interpolation-filters="sRGB">
<feFlood flood-opacity="0" result="BackgroundImageFix"/>
<feColorMatrix in="SourceAlpha" type="matrix" values="0 0 0 0 0 0 0 0 0 0 0 0 0 0 0 0 0 0 127 0"/>
<feOffset dy="-12"/>
<feGaussianBlur stdDeviation="9"/>
<feColorMatrix type="matrix" values="0 0 0 0 0.313726 0 0 0 0 0.345098 0 0 0 0 0.498039 0 0 0 0.8 0"/>
<feBlend mode="normal" in2="BackgroundImageFix" result="effect1_dropShadow"/>
<feColorMatrix in="SourceAlpha" type="matrix" values="0 0 0 0 0 0 0 0 0 0 0 0 0 0 0 0 0 0 127 0"/>
<feOffset dy="16"/>
<feGaussianBlur stdDeviation="8"/>
<feColorMatrix type="matrix" values="0 0 0 0 0.13875 0 0 0 0 0.168501 0 0 0 0 0.308333 0 0 0 0.24 0"/>
<feBlend mode="normal" in2="effect1_dropShadow" result="effect2_dropShadow"/>
<feBlend mode="normal" in="SourceGraphic" in2="effect2_dropShadow" result="shape"/>
</filter>
<filter id="filter1_dd" x="-0.000183105" y="0" width="78.4311" height="99.714" filterUnits="userSpaceOnUse" color-interpolation-filters="sRGB">
<feFlood flood-opacity="0" result="BackgroundImageFix"/>
<feColorMatrix in="SourceAlpha" type="matrix" values="0 0 0 0 0 0 0 0 0 0 0 0 0 0 0 0 0 0 127 0"/>
<feOffset dy="-12"/>
<feGaussianBlur stdDeviation="8"/>
<feColorMatrix type="matrix" values="0 0 0 0 0.0707465 0 0 0 0 0.541023 0 0 0 0 0.679167 0 0 0 0.2 0"/>
<feBlend mode="normal" in2="BackgroundImageFix" result="effect1_dropShadow"/>
<feColorMatrix in="SourceAlpha" type="matrix" values="0 0 0 0 0 0 0 0 0 0 0 0 0 0 0 0 0 0 127 0"/>
<feOffset dy="16"/>
<feGaussianBlur stdDeviation="8"/>
<feColorMatrix type="matrix" values="0 0 0 0 0.13875 0 0 0 0 0.168501 0 0 0 0 0.308333 0 0 0 0.24 0"/>
<feBlend mode="normal" in2="effect1_dropShadow" result="effect2_dropShadow"/>
<feBlend mode="normal" in="SourceGraphic" in2="effect2_dropShadow" result="shape"/>
</filter>
</defs>
</svg>
