<svg width="189" height="92" viewBox="0 0 189 92" fill="none" xmlns="http://www.w3.org/2000/svg">
<g clip-path="url(#clip0)" filter="url(#filter0_dd)">
<path d="M18.2241 50.3641L20.1569 50.056V32.2129L18 31.9328L18.112 30H31.6134L31.2773 35.4062L28.5882 35.3221L28.4202 31.9328H24.2465V39.972H26.0672L26.4874 38.1232L28.3641 38.1793V43.7255H26.4874L26.0392 41.8207H24.2185V50.3361H28.4202L28.8123 46.6387L31.6415 46.7227L31.8655 52.3529H18.1401L18.2241 50.3641Z" fill="#F0F3FF"/>
<path d="M33.1261 52.3811L33.2101 50.7284L34.7227 50.4203V39.1598L32.958 38.9917V37.311L37.3838 36.6668L37.7199 37.6192V38.2634C38.7843 37.143 40.0728 36.4707 41.7255 36.4707C44.1345 36.4707 45.9272 37.9273 45.9272 40.8124V50.3923L47.5238 50.7004L47.4398 52.3531H42.1737V41.6528C42.1737 40.1122 41.6134 39.2438 40.2129 39.2438C39.7367 39.2438 39.4006 39.3278 39.0364 39.4679C38.8123 39.664 38.5882 39.9441 38.3922 40.1962V50.4483L39.9888 50.7564L39.8768 52.4091H33.1261V52.3811Z" fill="#F0F3FF"/>
<path d="M117.748 52.3811L117.804 50.7284L119.317 50.4203V39.1598L117.552 38.9917V37.311L121.978 36.6668L122.314 37.6192V38.2634C123.378 37.143 124.667 36.4707 126.319 36.4707C128.728 36.4707 130.521 37.9273 130.521 40.8124V50.3923L132.118 50.7004L132.034 52.3531H126.796V41.6528C126.796 40.1122 126.235 39.2438 124.835 39.2438C124.359 39.2438 124.022 39.3278 123.658 39.4679C123.434 39.664 123.21 39.9441 123.014 40.1962V50.4483L124.611 50.7564L124.499 52.4091H117.748V52.3811Z" fill="#F0F3FF"/>
<path d="M55.8711 52.0729C55.2549 52.325 54.1625 52.6051 52.7339 52.6051C50.8571 52.6051 49.1204 51.7648 49.1204 49.0197V39.1598L47.3277 38.8796L47.4118 36.9189L49.4286 36.8348L50.2969 33.8376L52.8739 33.7256V36.9469H55.6471L55.451 38.9077L52.902 39.1878V49.0477C52.902 49.86 53.3501 50.3923 54.1905 50.3923H55.7031L55.8711 52.0729Z" fill="#F0F3FF"/>
<path d="M160.717 52.381L160.773 50.7563L162.202 50.4202V39.1597L160.521 38.9916V37.3109L165.115 36.6667L165.423 37.7591V38.1233C166.627 37.2269 168.252 36.6387 170.213 36.6387L170.885 37.2269L170.409 41.4846L167.888 41.4006L167.636 39.1317C167.048 39.2157 166.487 39.3838 166.011 39.7199V50.4482L167.608 50.7843L167.496 52.409H160.717V52.381Z" fill="#F0F3FF"/>
<path d="M94.7507 52.381L94.8347 50.7563L96.2633 50.4202V39.1597L94.5826 38.9916V37.3109L99.1765 36.6667L99.4846 37.7591V38.1233C100.689 37.2269 102.314 36.6387 104.275 36.6387L104.947 37.2269L104.415 41.4846L101.894 41.4006L101.641 39.1317C101.053 39.2157 100.493 39.3838 100.017 39.7199V50.4482L101.613 50.7843L101.501 52.409H94.7507V52.381Z" fill="#F0F3FF"/>
<path d="M56.9916 52.381L57.0756 50.7563L58.5042 50.4202V39.1597L56.8235 38.9916V37.3109L61.4174 36.6667L61.7255 37.7591V38.1233C62.93 37.2269 64.5546 36.6387 66.4874 36.6387L67.1597 37.2269L66.6835 41.4846L64.1625 41.4006L63.9104 39.1317C63.3221 39.2157 62.7619 39.3838 62.2857 39.7199V50.4482L63.8823 50.7843L63.7703 52.409H56.9916V52.381Z" fill="#F0F3FF"/>
<path d="M71.5014 45.518C71.5014 48.2071 72.6779 50.2799 75.0028 50.2799C76.2073 50.2799 77.1597 50.0278 78.2801 49.4956L78.9244 50.9802C77.7759 51.9046 76.0952 52.6048 73.9944 52.6048C69.9048 52.6048 67.5518 49.0754 67.5518 44.5376C67.5518 40.6721 69.2605 36.4424 73.9384 36.4424C78.028 36.4424 79.5686 40.2239 79.5686 44.4256L79.1765 45.434L71.5014 45.518ZM71.4454 43.7253L76.1513 43.5012C76.0672 41.6245 75.6751 38.6553 73.8263 38.6553C73.3782 38.6553 73.07 38.7393 72.5098 39.0194C71.7535 40.3079 71.4454 42.6329 71.4454 43.7253Z" fill="#F0F3FF"/>
<path d="M136.599 45.518C136.599 48.2071 137.776 50.2799 140.101 50.2799C141.305 50.2799 142.258 50.0278 143.378 49.4956L144.022 50.9802C142.874 51.9046 141.193 52.6048 139.092 52.6048C135.003 52.6048 132.65 49.0754 132.65 44.5376C132.65 40.6721 134.359 36.4424 139.036 36.4424C143.126 36.4424 144.667 40.2239 144.667 44.4256L144.275 45.434L136.599 45.518ZM136.543 43.7253L141.249 43.5012C141.165 41.6245 140.773 38.6553 138.924 38.6553C138.476 38.6553 138.168 38.7393 137.608 39.0194C136.852 40.3079 136.543 42.6329 136.543 43.7253Z" fill="#F0F3FF"/>
<path d="M109.261 45.518C109.261 48.2071 110.437 50.2799 112.762 50.2799C113.966 50.2799 114.919 50.0278 116.039 49.4956L116.683 50.9802C115.535 51.9046 113.854 52.6048 111.754 52.6048C107.664 52.6048 105.311 49.0754 105.311 44.5376C105.311 40.6721 107.02 36.4424 111.697 36.4424C115.787 36.4424 117.328 40.2239 117.328 44.4256L116.936 45.434L109.261 45.518ZM109.205 43.7253L113.91 43.5012C113.826 41.6245 113.434 38.6553 111.585 38.6553C111.137 38.6553 110.829 38.7393 110.269 39.0194C109.513 40.3079 109.176 42.6329 109.205 43.7253Z" fill="#F0F3FF"/>
<path d="M155.255 52.3807L154.863 51.0362C153.826 52.0166 152.818 52.6048 151.249 52.6048C148.84 52.6048 146.683 51.4003 146.683 48.067V38.7673L144.919 38.5992V37.1146L150.017 36.5264L150.409 37.8709V47.6188C150.409 49.3275 151.109 50.2238 152.482 50.2238C152.874 50.2238 153.378 50.1678 153.826 49.9998C154.078 49.7477 154.331 49.4395 154.527 49.1314V38.7673L152.706 38.5992V37.1146L157.86 36.5264L158.252 37.8709V50.4199L159.849 50.7281L159.653 52.3807H155.255Z" fill="#F0F3FF"/>
<path d="M87.2157 50.3643C86.4034 50.3643 85.7591 50.2242 85.2549 49.9441V40.0561C85.479 39.72 85.7311 39.4119 85.9832 39.1318C86.4594 38.9637 86.8796 38.9077 87.3838 38.9077C89.4846 38.9077 89.8487 41.0365 89.8487 44.8461C89.8487 48.5155 89.2885 49.5239 89.1485 49.9441C88.5602 50.2242 87.944 50.3643 87.2157 50.3643ZM93.4902 44.1738C93.4902 39.4399 92.0896 36.4707 88.5882 36.4707C86.2633 36.4707 85.1709 37.8152 84.7227 38.3755V37.8433L84.3305 36.4987L79.7647 37.143V38.7676L81.5294 38.9917V58.0954L80.0168 58.4035L79.9328 60.0001H86.6835L86.7955 58.4035L85.1989 58.0954V52.0449C85.8431 52.4091 86.7395 52.6332 87.7199 52.6332C93.4342 52.6332 93.4902 46.8348 93.4902 44.1738Z" fill="#F0F3FF"/>
</g>
<defs>
<filter id="filter0_dd" x="0" y="0" width="188.885" height="92" filterUnits="userSpaceOnUse" color-interpolation-filters="sRGB">
<feFlood flood-opacity="0" result="BackgroundImageFix"/>
<feColorMatrix in="SourceAlpha" type="matrix" values="0 0 0 0 0 0 0 0 0 0 0 0 0 0 0 0 0 0 127 0"/>
<feOffset dy="-12"/>
<feGaussianBlur stdDeviation="9"/>
<feColorMatrix type="matrix" values="0 0 0 0 0.313726 0 0 0 0 0.345098 0 0 0 0 0.498039 0 0 0 0.8 0"/>
<feBlend mode="normal" in2="BackgroundImageFix" result="effect1_dropShadow"/>
<feColorMatrix in="SourceAlpha" type="matrix" values="0 0 0 0 0 0 0 0 0 0 0 0 0 0 0 0 0 0 127 0"/>
<feOffset dy="16"/>
<feGaussianBlur stdDeviation="8"/>
<feColorMatrix type="matrix" values="0 0 0 0 0.13875 0 0 0 0 0.168501 0 0 0 0 0.308333 0 0 0 0.24 0"/>
<feBlend mode="normal" in2="effect1_dropShadow" result="effect2_dropShadow"/>
<feBlend mode="normal" in="SourceGraphic" in2="effect2_dropShadow" result="shape"/>
</filter>
<clipPath id="clip0">
<rect width="152.885" height="30" fill="white" transform="translate(18 30)"/>
</clipPath>
</defs>
</svg>
