<svg width="196" height="88" viewBox="0 0 196 88" fill="none" xmlns="http://www.w3.org/2000/svg">
<g filter="url(#filter0_dd)">
<path fill-rule="evenodd" clip-rule="evenodd" d="M69.1688 37.272H71.5065V48.7005H68.9091V44.2849H62.6753V48.7017H60.0779V37.2732H62.4156V37.272H68.9091H69.1688ZM62.6753 41.6875V39.8694H68.9091V41.6875H62.6753ZM49.4285 37.2722H46.8311V48.7008H49.4285V44.2851H55.6623V48.7008H58.2597V37.2722H55.6623V41.6877H49.4285V37.2722ZM84.7532 37.272H75.6623V37.2732H73.5844V48.7017H75.922V48.7004H84.7532V46.103H75.922V39.8694H84.7532V37.272ZM98.2597 37.272H95.6623V39.6095H93.5844V41.6875H89.1688V37.2732H86.8311V48.7017H89.1688V44.2849H93.5844V46.6229H95.6623V48.7004H98.2597V46.103H95.922V44.0255H93.8441V42.2069H95.922V39.8694H98.2597V37.272ZM102.416 37.272H111.506V39.8694H102.675V41.6875H107.091V44.2849H102.675V46.103H111.506V48.7004H102.675V48.7017H100.338V37.2732H102.416V37.272ZM138.26 37.272H128.909V37.2732H126.831V48.7017H129.429V39.8694H138.26V37.272ZM135.662 39.8696H138.26V48.7008H135.662V39.8696ZM151.506 37.272H142.156V37.2732H140.078V48.7017H142.675V48.7004H148.909V48.7008H151.507V39.8696H148.909V46.103H142.675V39.8694H151.506V37.272ZM155.403 37.272H164.753V39.8694H155.922V46.103H162.156V39.8696H164.753L164.753 46.103L164.753 48.7004V48.7008H162.156V48.7004H155.922V48.7017H153.325V37.2732H155.403V37.272ZM168.649 37.272H178V39.8694H169.169V48.7017H166.571V37.2732H168.649V37.272ZM178 39.8696H175.403V48.7008H178V39.8696ZM124.753 37.272H115.662V37.2732H113.584V48.7017H115.922V44.2849H124.753L124.753 41.6878V39.8696H122.416V41.6875H115.922V39.8694H124.753V37.272ZM120.338 46.6228H122.416V48.7004H124.753V46.103H122.675V44.2851H120.338V46.6228Z" fill="#EDF2FC"/>
<path fill-rule="evenodd" clip-rule="evenodd" d="M28.1299 34.1554H26.0519L26.0519 36.2333H22.1559V40.1295H20.0779V35.9737H21.8961V29.9995H26.0519L26.0519 29.9995H32.026V34.1554H29.9481V44.2853H28.1299V34.1554ZM35.9221 36.2333H32.026V29.9995H36.1818V35.9737H38V39.8694H40.0779V41.9478H42.1558V44.2855H40.0779V46.3629H38V50.2591H35.9221V46.1032H38V40.1295H35.9221V36.2333ZM20.0779 39.8694H18V46.3629H20.0779V39.8694ZM20.0779 46.1032H22.1559V50.2591H20.0779V46.1032ZM32.026 50.2596H36.1818V55.9739H32.026V50.2596ZM26.0519 52.0774H32.026V55.9735H26.0519L26.0519 55.9739H21.8961V50.2596H26.0519L26.0519 52.0774Z" fill="#EDF2FC"/>
</g>
<defs>
<filter id="filter0_dd" x="0.439024" y="0.731218" width="195.122" height="86.4623" filterUnits="userSpaceOnUse" color-interpolation-filters="sRGB">
<feFlood flood-opacity="0" result="BackgroundImageFix"/>
<feColorMatrix in="SourceAlpha" type="matrix" values="0 0 0 0 0 0 0 0 0 0 0 0 0 0 0 0 0 0 127 0"/>
<feOffset dy="-11.7073"/>
<feGaussianBlur stdDeviation="8.78049"/>
<feColorMatrix type="matrix" values="0 0 0 0 0.313726 0 0 0 0 0.345098 0 0 0 0 0.498039 0 0 0 0.8 0"/>
<feBlend mode="normal" in2="BackgroundImageFix" result="effect1_dropShadow"/>
<feColorMatrix in="SourceAlpha" type="matrix" values="0 0 0 0 0 0 0 0 0 0 0 0 0 0 0 0 0 0 127 0"/>
<feOffset dy="15.6098"/>
<feGaussianBlur stdDeviation="7.80488"/>
<feColorMatrix type="matrix" values="0 0 0 0 0.13875 0 0 0 0 0.168501 0 0 0 0 0.308333 0 0 0 0.24 0"/>
<feBlend mode="normal" in2="effect1_dropShadow" result="effect2_dropShadow"/>
<feBlend mode="normal" in="SourceGraphic" in2="effect2_dropShadow" result="shape"/>
</filter>
</defs>
</svg>
