<svg width="196" height="101" viewBox="0 0 196 101" fill="none" xmlns="http://www.w3.org/2000/svg">
<g filter="url(#filter0_dd)">
<path d="M41.2267 58.2L34.56 61.1067V60.8133C33.28 61.1333 31.84 61.32 30.5067 61.4C24.2133 61.3467 19.2533 58.04 19.1733 54.1467V52.7067C21.2267 55.6933 25.44 57.72 30.5067 57.64C32.2133 57.72 33.9733 57.4533 35.44 57.0533L36.0267 55.6133C34.2933 56.1467 32.3733 56.4933 30.5067 56.4933C24.2133 56.4933 19.2533 53.2133 19.1733 49.24V48.0667C21.2267 50.84 25.44 52.84 30.5067 52.7067C32.8 52.84 35.0133 52.36 36.9067 51.5333L37.2 50.0933C35.36 51.0533 32.9867 51.6133 30.5333 51.5333C24.24 51.6133 19.28 48.3333 19.2 44.28V43.1067C21.2533 45.9333 25.4667 47.96 30.5333 48.04C33.4133 47.96 36.1333 47.1867 38.3733 46.0133L38.6667 44.28C36.64 45.7733 33.68 46.76 30.5333 46.8933C24.24 46.76 19.28 43.4533 19.2 39.3467C19.2533 35.4267 24.24 32.1467 30.5333 32.0933C34.2667 32.1467 37.76 33.4533 39.8133 35.5867L40.0267 35.9333H41.4933L41.28 35.5867C39.2267 32.7867 35.0933 30.9467 30.5333 30.9467C23.5467 30.92 18 34.7333 18 39.32V39.6133V54.4133C18.24 58.8933 23.6533 62.5467 30.48 62.5467C34.9867 62.5733 39.0667 60.7867 41.2267 58.2Z" fill="#F0F3FF"/>
</g>
<g filter="url(#filter1_dd)">
<path d="M38.5067 68.4133L40.8533 58.44L34.1067 61.3733L38.2133 44.0933H30.32L32.3733 35.5867H57.5733L55.52 44.0933H47.3067L45.5467 48.7867L54.64 44.9733L38.5067 68.4133ZM42.6133 56.4133L41.44 62.28L51.12 47.64L43.2 51.16L46.72 42.9467H54.64L56.1067 36.7867H33.2267L31.76 42.9467H39.68L35.8667 59.3467L42.6133 56.4133Z" fill="#FAC541"/>
</g>
<g filter="url(#filter2_dd)">
<path d="M74.2933 41.2935V41.3201C74.32 42.2535 74.0267 42.9735 73.44 43.5068C72.8533 44.0401 72.0533 44.3068 71.0133 44.3068C69.9733 44.3068 69.12 43.9601 68.48 43.2935C67.84 42.6268 67.52 41.7468 67.52 40.6801V38.9468C67.52 37.8801 67.84 37.0001 68.4533 36.3335C69.0933 35.6668 69.92 35.3201 70.9333 35.3201C72 35.3201 72.8267 35.5868 73.44 36.0935C74.0533 36.6268 74.3467 37.3468 74.32 38.2801V38.3068H72.6133C72.6133 37.7468 72.48 37.3201 72.2133 37.0535C71.9467 36.7868 71.52 36.6535 70.96 36.6535C70.4267 36.6535 70.0267 36.8668 69.7333 37.2935C69.44 37.7201 69.28 38.2535 69.28 38.9201V40.6801C69.28 41.3468 69.44 41.9068 69.7333 42.3335C70.0533 42.7601 70.48 42.9735 71.04 42.9735C71.5733 42.9735 71.9467 42.8401 72.2133 42.5735C72.48 42.3068 72.6133 41.8801 72.6133 41.3201H74.2933V41.2935ZM83.9467 40.6001C83.9467 41.6668 83.6 42.5735 82.9333 43.2668C82.2667 43.9601 81.3867 44.3068 80.2933 44.3068C79.2 44.3068 78.3467 43.9601 77.6533 43.2668C76.9867 42.5735 76.64 41.6668 76.64 40.6001V39.0268C76.64 37.9601 76.9867 37.0801 77.6533 36.3601C78.32 35.6668 79.2 35.2935 80.2667 35.2935C81.36 35.2935 82.24 35.6401 82.9067 36.3601C83.6 37.0535 83.92 37.9601 83.92 39.0268V40.6001H83.9467ZM82.1867 39.0001C82.1867 38.3068 82.0267 37.7735 81.68 37.3201C81.3333 36.8935 80.88 36.6535 80.2667 36.6535C79.68 36.6535 79.2 36.8668 78.88 37.3201C78.56 37.7468 78.3733 38.3068 78.3733 39.0001V40.5735C78.3733 41.2668 78.5333 41.8268 78.88 42.2801C79.2 42.7068 79.68 42.9468 80.2667 42.9468C80.88 42.9468 81.3333 42.7335 81.68 42.2801C82.0267 41.8535 82.1867 41.2668 82.1867 40.5735V39.0001ZM88.48 44.1735H86.72V35.4268H88.48V44.1735ZM98.5867 44.1735H96.8267L93.3067 38.2801H93.28V44.1735H91.52V35.4268H93.28L96.8 41.3201H96.8267V35.4268H98.5867V44.1735ZM107.413 36.7868H104.907V44.1735H103.147V36.7868H100.693V35.4268H107.413V36.7868ZM114.667 40.3335H111.413V42.8401H115.28V44.1735H109.68V35.4268H115.28V36.7868H111.44V38.9735H114.693V40.3335H114.667ZM119.547 42.8401H123.467V44.1735H117.787V35.4268H119.547V42.8401ZM130.933 40.3335H127.68V42.8401H131.547V44.1735H125.947V35.4268H131.547V36.7868H127.707V38.9735H130.96V40.3335H130.933ZM140.773 43.0001C140.507 43.3468 140.107 43.6668 139.547 43.9335C139.013 44.2001 138.32 44.3335 137.467 44.3335C136.4 44.3335 135.547 44.0135 134.88 43.3468C134.213 42.6801 133.867 41.8268 133.867 40.7601V38.9201C133.867 37.8535 134.187 37.0001 134.853 36.3335C135.493 35.6668 136.347 35.3201 137.36 35.3201C138.427 35.3201 139.253 35.5868 139.813 36.0935C140.373 36.6001 140.667 37.2668 140.64 38.1201V38.1468H138.987C138.987 37.6935 138.853 37.3201 138.587 37.0535C138.32 36.7868 137.92 36.6535 137.413 36.6535C136.88 36.6535 136.453 36.8668 136.107 37.2668C135.787 37.6935 135.627 38.2268 135.627 38.8668V40.7068C135.627 41.3735 135.787 41.9068 136.133 42.3335C136.48 42.7601 136.933 42.9468 137.493 42.9468C137.92 42.9468 138.24 42.8935 138.48 42.8135C138.72 42.7335 138.907 42.6268 139.04 42.4935V40.7868H137.36V39.5601H140.8V43.0001H140.773ZM145.307 40.6801V44.1735H143.547V35.4268H146.587C147.573 35.4268 148.373 35.6668 148.933 36.1201C149.493 36.5735 149.787 37.2135 149.787 38.0135C149.787 38.4668 149.68 38.8401 149.44 39.1868C149.2 39.5068 148.853 39.7735 148.4 39.9868C148.907 40.1468 149.28 40.3868 149.52 40.7601C149.733 41.1068 149.867 41.5601 149.867 42.0935V42.7335C149.867 42.9735 149.893 43.2401 149.973 43.5068C150.027 43.7735 150.16 43.9601 150.32 44.0935V44.2268H148.507C148.347 44.0935 148.24 43.8801 148.187 43.5868C148.133 43.2935 148.107 43.0001 148.107 42.7335V42.1201C148.107 41.6935 148 41.3468 147.76 41.1068C147.52 40.8668 147.173 40.7335 146.747 40.7335H145.307V40.6801ZM145.307 39.3468H146.56C147.04 39.3468 147.413 39.2401 147.653 39.0268C147.893 38.8135 148.027 38.5201 148.027 38.0935C148.027 37.6935 147.893 37.3735 147.653 37.1335C147.413 36.8935 147.067 36.7868 146.587 36.7868H145.307V39.3468ZM157.227 42.3068H154.4L153.813 44.2001H151.973L154.933 35.4535H156.72L159.653 44.2001H157.813L157.227 42.3068ZM154.827 40.9201H156.8L155.84 37.8268H155.813L154.827 40.9201ZM163.547 41.0001V44.1735H161.787V35.4268H165.147C166.16 35.4268 166.933 35.6935 167.52 36.2001C168.107 36.7068 168.373 37.4001 168.373 38.2268C168.373 39.0535 168.08 39.7468 167.52 40.2535C166.933 40.7601 166.16 41.0268 165.147 41.0268H163.547V41.0001ZM163.547 39.6668H165.147C165.627 39.6668 166 39.5335 166.267 39.2668C166.507 39.0001 166.64 38.6535 166.64 38.2535C166.64 37.8268 166.507 37.4801 166.267 37.2135C166.027 36.9468 165.653 36.8135 165.147 36.8135H163.547V39.6668ZM178 44.1735H176.24V40.5468H172.667V44.1735H170.907V35.4268H172.667V39.1868H176.24V35.4268H178V44.1735Z" fill="#F0F3FF"/>
</g>
<g filter="url(#filter3_dd)">
<path d="M70.72 58.4668H69.6267V52.7068H67.6533V51.7735H72.6933V52.7068H70.72V58.4668ZM78.0533 58.4668H76.96V55.3468C76.96 54.9468 76.88 54.6535 76.72 54.4668C76.56 54.2801 76.32 54.1735 75.9733 54.1735C75.52 54.1735 75.2 54.3068 74.9867 54.5735C74.7733 54.8401 74.6667 55.2935 74.6667 55.9335V58.4401H73.6V51.3201H74.6667V53.1335C74.6667 53.4268 74.64 53.7201 74.6133 54.0668H74.6933C74.8267 53.8268 75.04 53.6401 75.3067 53.5068C75.5733 53.3735 75.8667 53.2935 76.2133 53.2935C77.44 53.2935 78.0533 53.9068 78.0533 55.1601V58.4668ZM81.76 58.5468C80.96 58.5468 80.3467 58.3068 79.92 57.8535C79.4667 57.4001 79.2533 56.7601 79.2533 55.9601C79.2533 55.1335 79.4667 54.4935 79.8667 54.0135C80.2667 53.5335 80.8533 53.2935 81.5733 53.2935C82.24 53.2935 82.7733 53.5068 83.1467 53.9068C83.5467 54.3068 83.7333 54.8668 83.7333 55.5868V56.1735H80.3467C80.3733 56.6535 80.5067 57.0535 80.7467 57.2935C80.9867 57.5601 81.36 57.6935 81.8133 57.6935C82.1067 57.6935 82.4 57.6668 82.64 57.6135C82.9067 57.5601 83.1733 57.4535 83.4667 57.3201V58.2001C83.2 58.3335 82.9333 58.4135 82.6667 58.4668C82.4267 58.5201 82.1067 58.5468 81.76 58.5468ZM81.5733 54.1201C81.2267 54.1201 80.96 54.2268 80.7467 54.4401C80.5333 54.6535 80.4267 54.9735 80.3733 55.4001H82.6667C82.6667 54.9735 82.56 54.6535 82.3733 54.4401C82.1867 54.2268 81.92 54.1201 81.5733 54.1201ZM89.92 54.2001H88.6933V58.4668H87.6V54.2001H86.7733V53.6935L87.6 53.3735V53.0535C87.6 52.4668 87.7333 52.0135 88.0267 51.7201C88.32 51.4268 88.7467 51.2935 89.3067 51.2935C89.68 51.2935 90.0533 51.3468 90.4267 51.4801L90.1333 52.3068C89.8667 52.2268 89.6266 52.1735 89.36 52.1735C89.12 52.1735 88.9333 52.2535 88.8267 52.3868C88.72 52.5468 88.6667 52.7601 88.6667 53.0535V53.3735H89.8933V54.2001H89.92ZM94.3733 58.4668L94.2133 57.8001H94.16C94 58.0401 93.7867 58.2268 93.52 58.3601C93.2533 58.4935 92.9333 58.5735 92.5867 58.5735C91.9733 58.5735 91.52 58.4135 91.2 58.1201C90.88 57.8268 90.7467 57.3468 90.7467 56.7335V53.4001H91.84V56.5201C91.84 56.9201 91.92 57.1868 92.08 57.4001C92.24 57.5868 92.48 57.6935 92.8267 57.6935C93.28 57.6935 93.6 57.5601 93.8133 57.2935C94.0267 57.0268 94.1333 56.5735 94.1333 55.9335V53.4001H95.2267V58.4668H94.3733ZM98.64 57.6668C98.9067 57.6668 99.1733 57.6135 99.44 57.5335V58.3335C99.3333 58.3868 99.1733 58.4401 98.9867 58.4668C98.8 58.4935 98.6133 58.5201 98.4 58.5201C97.3867 58.5201 96.88 57.9868 96.88 56.9201V54.2001H96.1867V53.7201L96.9333 53.3201L97.3067 52.2535H97.9733V53.3735H99.4133V54.2001H97.9733V56.9201C97.9733 57.1868 98.0267 57.3735 98.16 57.5068C98.24 57.6135 98.4267 57.6668 98.64 57.6668ZM104 58.4668L103.84 57.8001H103.787C103.627 58.0401 103.413 58.2268 103.147 58.3601C102.88 58.4935 102.56 58.5735 102.213 58.5735C101.6 58.5735 101.147 58.4135 100.827 58.1201C100.533 57.8268 100.373 57.3468 100.373 56.7335V53.4001H101.467V56.5201C101.467 56.9201 101.547 57.1868 101.707 57.4001C101.867 57.5868 102.107 57.6935 102.453 57.6935C102.907 57.6935 103.227 57.5601 103.44 57.2935C103.653 57.0268 103.76 56.5735 103.76 55.9335V53.4001H104.853V58.4668H104ZM108.96 53.2935C109.173 53.2935 109.36 53.3201 109.493 53.3468L109.387 54.3601C109.227 54.3335 109.067 54.3068 108.907 54.3068C108.48 54.3068 108.133 54.4401 107.867 54.7335C107.6 55.0268 107.467 55.3735 107.467 55.8268V58.4668H106.4V53.4001H107.253L107.387 54.2801H107.44C107.6 53.9868 107.84 53.7468 108.107 53.5601C108.347 53.4001 108.64 53.2935 108.96 53.2935ZM112.453 58.5468C111.653 58.5468 111.04 58.3068 110.613 57.8535C110.16 57.4001 109.947 56.7601 109.947 55.9601C109.947 55.1335 110.16 54.4935 110.56 54.0135C110.96 53.5335 111.547 53.2935 112.267 53.2935C112.933 53.2935 113.467 53.5068 113.84 53.9068C114.24 54.3068 114.427 54.8668 114.427 55.5868V56.1735H111.04C111.067 56.6535 111.2 57.0535 111.44 57.2935C111.68 57.5601 112.053 57.6935 112.507 57.6935C112.8 57.6935 113.093 57.6668 113.333 57.6135C113.6 57.5601 113.867 57.4535 114.16 57.3201V58.2001C113.893 58.3335 113.627 58.4135 113.36 58.4668C113.093 58.5201 112.8 58.5468 112.453 58.5468ZM112.267 54.1201C111.92 54.1201 111.653 54.2268 111.44 54.4401C111.227 54.6535 111.12 54.9735 111.067 55.4001H113.36C113.36 54.9735 113.253 54.6535 113.067 54.4401C112.853 54.2268 112.587 54.1201 112.267 54.1201ZM122.56 55.9068C122.56 56.7335 122.347 57.3735 121.92 57.8535C121.493 58.3068 120.907 58.5468 120.16 58.5468C119.68 58.5468 119.28 58.4401 118.907 58.2268C118.533 58.0135 118.267 57.6935 118.08 57.2935C117.893 56.8935 117.787 56.4401 117.787 55.9068C117.787 55.0801 118 54.4401 118.427 53.9868C118.853 53.5335 119.44 53.2935 120.213 53.2935C120.933 53.2935 121.52 53.5335 121.947 54.0135C122.373 54.4935 122.56 55.1068 122.56 55.9068ZM118.88 55.9068C118.88 57.0801 119.307 57.6668 120.187 57.6668C121.04 57.6668 121.467 57.0801 121.467 55.9068C121.467 54.7601 121.04 54.1735 120.187 54.1735C119.733 54.1735 119.413 54.3335 119.2 54.6268C118.987 54.9201 118.88 55.3468 118.88 55.9068ZM126.347 54.2001H125.12V58.4668H124.027V54.2001H123.2V53.6935L124.027 53.3735V53.0535C124.027 52.4668 124.16 52.0135 124.453 51.7201C124.747 51.4268 125.173 51.2935 125.733 51.2935C126.107 51.2935 126.48 51.3468 126.853 51.4801L126.56 52.3068C126.293 52.2268 126.053 52.1735 125.787 52.1735C125.547 52.1735 125.36 52.2535 125.253 52.3868C125.147 52.5201 125.093 52.7601 125.093 53.0535V53.3735H126.32V54.2001H126.347ZM133.92 58.4668H132.827V55.3468C132.827 54.9468 132.747 54.6801 132.613 54.4668C132.48 54.2801 132.24 54.1735 131.92 54.1735C131.493 54.1735 131.2 54.3068 131.013 54.5735C130.827 54.8401 130.72 55.2935 130.72 55.9335V58.4668H129.653V53.4001H130.507L130.667 54.0668H130.72C130.853 53.8268 131.067 53.6401 131.333 53.5068C131.6 53.3735 131.893 53.3201 132.213 53.3201C132.987 53.3201 133.52 53.5868 133.76 54.1201H133.84C134 53.8801 134.213 53.6668 134.48 53.5335C134.747 53.4001 135.067 53.3201 135.413 53.3201C136.027 53.3201 136.453 53.4801 136.747 53.7735C137.013 54.0668 137.173 54.5468 137.173 55.1601V58.4668H136.107V55.3468C136.107 54.9468 136.027 54.6801 135.893 54.4668C135.733 54.2801 135.52 54.1735 135.2 54.1735C134.773 54.1735 134.48 54.3068 134.293 54.5735C134.107 54.8401 134 55.2401 134 55.7735V58.4668H133.92ZM143.093 55.9068C143.093 56.7335 142.88 57.3735 142.453 57.8535C142.027 58.3068 141.44 58.5468 140.693 58.5468C140.213 58.5468 139.813 58.4401 139.44 58.2268C139.067 58.0135 138.8 57.6935 138.613 57.2935C138.427 56.8935 138.32 56.4401 138.32 55.9068C138.32 55.0801 138.533 54.4401 138.96 53.9868C139.387 53.5335 139.973 53.2935 140.747 53.2935C141.467 53.2935 142.053 53.5335 142.48 54.0135C142.88 54.4935 143.093 55.1068 143.093 55.9068ZM139.413 55.9068C139.413 57.0801 139.84 57.6668 140.72 57.6668C141.573 57.6668 142 57.0801 142 55.9068C142 54.7601 141.573 54.1735 140.72 54.1735C140.267 54.1735 139.947 54.3335 139.733 54.6268C139.52 54.9201 139.413 55.3468 139.413 55.9068ZM148.8 58.4668H147.707V55.3468C147.707 54.9468 147.627 54.6535 147.467 54.4668C147.307 54.2801 147.067 54.1735 146.72 54.1735C146.267 54.1735 145.92 54.3068 145.733 54.5735C145.547 54.8401 145.413 55.2935 145.413 55.9335V58.4668H144.347V53.4001H145.2L145.36 54.0668H145.413C145.573 53.8268 145.787 53.6401 146.053 53.5068C146.32 53.3735 146.64 53.3201 146.987 53.3201C148.213 53.3201 148.8 53.9335 148.8 55.1868V58.4668ZM152.507 58.5468C151.707 58.5468 151.093 58.3068 150.667 57.8535C150.213 57.4001 150 56.7601 150 55.9601C150 55.1335 150.213 54.4935 150.613 54.0135C151.013 53.5335 151.6 53.2935 152.32 53.2935C152.987 53.2935 153.52 53.5068 153.893 53.9068C154.293 54.3068 154.48 54.8668 154.48 55.5868V56.1735H151.093C151.12 56.6535 151.253 57.0535 151.493 57.2935C151.733 57.5601 152.107 57.6935 152.56 57.6935C152.853 57.6935 153.147 57.6668 153.387 57.6135C153.627 57.5601 153.92 57.4535 154.213 57.3201V58.2001C153.947 58.3335 153.68 58.4135 153.413 58.4668C153.147 58.5201 152.853 58.5468 152.507 58.5468ZM152.293 54.1201C151.947 54.1201 151.68 54.2268 151.467 54.4401C151.253 54.6535 151.147 54.9735 151.093 55.4001H153.387C153.387 54.9735 153.28 54.6535 153.093 54.4401C152.907 54.2268 152.64 54.1201 152.293 54.1201ZM154.747 53.4001H155.92L156.96 56.2801C157.12 56.6801 157.227 57.0801 157.28 57.4268H157.307C157.333 57.2668 157.387 57.0535 157.467 56.8135C157.547 56.5735 157.92 55.4268 158.64 53.4001H159.813L157.653 59.1335C157.253 60.1735 156.613 60.7068 155.68 60.7068C155.44 60.7068 155.2 60.6801 154.987 60.6268V59.7735C155.147 59.8001 155.333 59.8268 155.547 59.8268C156.053 59.8268 156.427 59.5335 156.64 58.9201L156.827 58.4401L154.747 53.4001Z" fill="#F0F3FF"/>
</g>
<defs>
<filter id="filter0_dd" x="0" y="0.946533" width="59.4933" height="93.6004" filterUnits="userSpaceOnUse" color-interpolation-filters="sRGB">
<feFlood flood-opacity="0" result="BackgroundImageFix"/>
<feColorMatrix in="SourceAlpha" type="matrix" values="0 0 0 0 0 0 0 0 0 0 0 0 0 0 0 0 0 0 127 0"/>
<feOffset dy="-12"/>
<feGaussianBlur stdDeviation="9"/>
<feColorMatrix type="matrix" values="0 0 0 0 0.352014 0 0 0 0 0.38926 0 0 0 0 0.570833 0 0 0 0.87 0"/>
<feBlend mode="normal" in2="BackgroundImageFix" result="effect1_dropShadow"/>
<feColorMatrix in="SourceAlpha" type="matrix" values="0 0 0 0 0 0 0 0 0 0 0 0 0 0 0 0 0 0 127 0"/>
<feOffset dy="16"/>
<feGaussianBlur stdDeviation="8"/>
<feColorMatrix type="matrix" values="0 0 0 0 0.13875 0 0 0 0 0.168501 0 0 0 0 0.308333 0 0 0 0.24 0"/>
<feBlend mode="normal" in2="effect1_dropShadow" result="effect2_dropShadow"/>
<feBlend mode="normal" in="SourceGraphic" in2="effect2_dropShadow" result="shape"/>
</filter>
<filter id="filter1_dd" x="14.32" y="7.58667" width="59.2533" height="92.8267" filterUnits="userSpaceOnUse" color-interpolation-filters="sRGB">
<feFlood flood-opacity="0" result="BackgroundImageFix"/>
<feColorMatrix in="SourceAlpha" type="matrix" values="0 0 0 0 0 0 0 0 0 0 0 0 0 0 0 0 0 0 127 0"/>
<feOffset dy="-12"/>
<feGaussianBlur stdDeviation="8"/>
<feColorMatrix type="matrix" values="0 0 0 0 0.85 0 0 0 0 0.699267 0 0 0 0 0.311667 0 0 0 0.51 0"/>
<feBlend mode="normal" in2="BackgroundImageFix" result="effect1_dropShadow"/>
<feColorMatrix in="SourceAlpha" type="matrix" values="0 0 0 0 0 0 0 0 0 0 0 0 0 0 0 0 0 0 127 0"/>
<feOffset dy="16"/>
<feGaussianBlur stdDeviation="8"/>
<feColorMatrix type="matrix" values="0 0 0 0 0.13875 0 0 0 0 0.168501 0 0 0 0 0.308333 0 0 0 0.24 0"/>
<feBlend mode="normal" in2="effect1_dropShadow" result="effect2_dropShadow"/>
<feBlend mode="normal" in="SourceGraphic" in2="effect2_dropShadow" result="shape"/>
</filter>
<filter id="filter2_dd" x="49.52" y="5.29346" width="146.48" height="71.04" filterUnits="userSpaceOnUse" color-interpolation-filters="sRGB">
<feFlood flood-opacity="0" result="BackgroundImageFix"/>
<feColorMatrix in="SourceAlpha" type="matrix" values="0 0 0 0 0 0 0 0 0 0 0 0 0 0 0 0 0 0 127 0"/>
<feOffset dy="-12"/>
<feGaussianBlur stdDeviation="9"/>
<feColorMatrix type="matrix" values="0 0 0 0 0.352014 0 0 0 0 0.38926 0 0 0 0 0.570833 0 0 0 0.87 0"/>
<feBlend mode="normal" in2="BackgroundImageFix" result="effect1_dropShadow"/>
<feColorMatrix in="SourceAlpha" type="matrix" values="0 0 0 0 0 0 0 0 0 0 0 0 0 0 0 0 0 0 127 0"/>
<feOffset dy="16"/>
<feGaussianBlur stdDeviation="8"/>
<feColorMatrix type="matrix" values="0 0 0 0 0.13875 0 0 0 0 0.168501 0 0 0 0 0.308333 0 0 0 0.24 0"/>
<feBlend mode="normal" in2="effect1_dropShadow" result="effect2_dropShadow"/>
<feBlend mode="normal" in="SourceGraphic" in2="effect2_dropShadow" result="shape"/>
</filter>
<filter id="filter3_dd" x="49.6533" y="21.2935" width="128.16" height="71.4133" filterUnits="userSpaceOnUse" color-interpolation-filters="sRGB">
<feFlood flood-opacity="0" result="BackgroundImageFix"/>
<feColorMatrix in="SourceAlpha" type="matrix" values="0 0 0 0 0 0 0 0 0 0 0 0 0 0 0 0 0 0 127 0"/>
<feOffset dy="-12"/>
<feGaussianBlur stdDeviation="9"/>
<feColorMatrix type="matrix" values="0 0 0 0 0.352014 0 0 0 0 0.38926 0 0 0 0 0.570833 0 0 0 0.87 0"/>
<feBlend mode="normal" in2="BackgroundImageFix" result="effect1_dropShadow"/>
<feColorMatrix in="SourceAlpha" type="matrix" values="0 0 0 0 0 0 0 0 0 0 0 0 0 0 0 0 0 0 127 0"/>
<feOffset dy="16"/>
<feGaussianBlur stdDeviation="8"/>
<feColorMatrix type="matrix" values="0 0 0 0 0.13875 0 0 0 0 0.168501 0 0 0 0 0.308333 0 0 0 0.24 0"/>
<feBlend mode="normal" in2="effect1_dropShadow" result="effect2_dropShadow"/>
<feBlend mode="normal" in="SourceGraphic" in2="effect2_dropShadow" result="shape"/>
</filter>
</defs>
</svg>
