<svg width="188" height="86" viewBox="0 0 188 86" fill="none" xmlns="http://www.w3.org/2000/svg">
<g filter="url(#filter0_dd)">
<path d="M61.556 42.7108C61.5003 43.92 61.1742 44.9899 60.5776 45.9206C59.981 46.8433 59.1417 47.5593 58.0599 48.0684C56.986 48.5775 55.757 48.832 54.3729 48.832C52.0899 48.832 50.2921 48.0883 48.9795 46.6007C47.667 45.1132 47.0107 43.0131 47.0107 40.3005V39.4414C47.0107 37.7391 47.3051 36.2516 47.8937 34.9788C48.4903 33.6981 49.3455 32.7117 50.4591 32.0196C51.5728 31.3196 52.8615 30.9696 54.3251 30.9696C56.4331 30.9696 58.1275 31.5265 59.4082 32.6401C60.6889 33.7458 61.4168 35.2731 61.5918 37.2221H57.4156C57.3837 36.1641 57.1173 35.4044 56.6161 34.943C56.115 34.4816 55.3513 34.251 54.3251 34.251C53.2831 34.251 52.5194 34.6407 52.0342 35.4203C51.5489 36.1999 51.2944 37.4448 51.2705 39.1551V40.3841C51.2705 42.2375 51.5012 43.562 51.9626 44.3575C52.4319 45.1529 53.2353 45.5507 54.3729 45.5507C55.3354 45.5507 56.0712 45.324 56.5803 44.8706C57.0894 44.4171 57.3599 43.6972 57.3917 42.7108H61.556Z" fill="#F0F3FF" fill-opacity="0.8"/>
<path d="M70.6726 39.3221L69.3482 39.2267C68.0834 39.2267 67.272 39.6244 66.914 40.4199V48.5934H62.8929V35.6828H66.6634L66.7947 37.3414C67.4708 36.0766 68.4135 35.4442 69.6226 35.4442C70.0522 35.4442 70.426 35.4919 70.7442 35.5874L70.6726 39.3221Z" fill="#F0F3FF" fill-opacity="0.8"/>
<path d="M77.0091 42.9614L79.1569 35.6828H83.4644L78.2023 50.7531L77.9756 51.302C77.2278 52.9725 75.9073 53.8077 74.0141 53.8077C73.4891 53.8077 72.9362 53.7282 72.3555 53.5691V50.6934H72.8806C73.4453 50.6934 73.8749 50.6099 74.1692 50.4429C74.4715 50.2838 74.6942 49.9934 74.8374 49.5718L75.1596 48.7127L70.6731 35.6828H74.9687L77.0091 42.9614Z" fill="#F0F3FF" fill-opacity="0.8"/>
<path d="M96.0174 42.2336C96.0174 44.2381 95.564 45.841 94.6572 47.0422C93.7583 48.2354 92.5412 48.832 91.0059 48.832C89.8207 48.832 88.8462 48.3985 88.0826 47.5314V53.5571H84.0614V35.6828H87.8201L87.9394 36.876C88.711 35.9215 89.7252 35.4442 90.9821 35.4442C92.573 35.4442 93.81 36.0328 94.693 37.2101C95.5759 38.3795 96.0174 39.9903 96.0174 42.0426V42.2336ZM91.9963 41.983C91.9963 39.692 91.3281 38.5465 89.9917 38.5465C89.0371 38.5465 88.4008 38.8886 88.0826 39.5727V44.6558C88.4326 45.3717 89.0769 45.7297 90.0156 45.7297C91.2963 45.7297 91.9565 44.624 91.9963 42.4125V41.983Z" fill="#F0F3FF" fill-opacity="0.8"/>
<path d="M101.996 32.4731V35.6828H104.12V38.4749H101.996V44.3813C101.996 44.8666 102.083 45.2047 102.258 45.3956C102.433 45.5865 102.779 45.6819 103.297 45.6819C103.694 45.6819 104.028 45.6581 104.299 45.6103V48.486C103.575 48.7167 102.819 48.832 102.032 48.832C100.648 48.832 99.6254 48.5059 98.9652 47.8536C98.3049 47.2013 97.9748 46.2109 97.9748 44.8825V38.4749H96.3282V35.6828H97.9748V32.4731H101.996Z" fill="#F0F3FF" fill-opacity="0.8"/>
<path d="M104.359 42.0188C104.359 40.7301 104.61 39.5846 105.111 38.5823C105.612 37.5721 106.332 36.7965 107.27 36.2556C108.209 35.7146 109.311 35.4442 110.576 35.4442C112.509 35.4442 114.032 36.0448 115.146 37.2459C116.259 38.4391 116.816 40.0659 116.816 42.1262V42.2693C116.816 44.2819 116.255 45.8808 115.134 47.0661C114.02 48.2434 112.509 48.832 110.599 48.832C108.762 48.832 107.286 48.2831 106.173 47.1854C105.059 46.0797 104.458 44.5842 104.371 42.6989L104.359 42.0188ZM108.38 42.2693C108.38 43.4626 108.567 44.3376 108.941 44.8944C109.315 45.4513 109.868 45.7297 110.599 45.7297C112.031 45.7297 112.763 44.6279 112.795 42.4245V42.0188C112.795 39.7039 112.055 38.5465 110.576 38.5465C109.231 38.5465 108.503 39.5448 108.392 41.5415L108.38 42.2693Z" fill="#F0F3FF" fill-opacity="0.8"/>
<path d="M118.284 48.5934V31.2202H123.88C125.416 31.2202 126.796 31.5702 128.021 32.2702C129.246 32.9623 130.2 33.9447 130.885 35.2175C131.577 36.4823 131.927 37.9022 131.935 39.4772V40.2767C131.935 41.8676 131.597 43.2955 130.92 44.5603C130.252 45.8172 129.306 46.8036 128.08 47.5195C126.863 48.2275 125.503 48.5854 124 48.5934H118.284ZM122.472 34.4538V45.3717H123.928C125.129 45.3717 126.052 44.9461 126.696 44.095C127.341 43.2359 127.663 41.9631 127.663 40.2767V39.525C127.663 37.8465 127.341 36.5817 126.696 35.7305C126.052 34.8794 125.113 34.4538 123.88 34.4538H122.472Z" fill="#F0F3FF" fill-opacity="0.8"/>
<path d="M140.681 48.5934C140.538 48.3309 140.411 47.9451 140.299 47.436C139.56 48.3667 138.526 48.832 137.197 48.832C135.98 48.832 134.946 48.4661 134.095 47.7343C133.244 46.9945 132.818 46.0677 132.818 44.9541C132.818 43.554 133.335 42.4961 134.369 41.7801C135.403 41.0642 136.907 40.7062 138.88 40.7062H140.12V40.0261C140.12 38.8408 139.607 38.2482 138.581 38.2482C137.627 38.2482 137.149 38.7176 137.149 39.6562H133.128C133.128 38.4073 133.657 37.3931 134.715 36.6135C135.781 35.834 137.137 35.4442 138.784 35.4442C140.431 35.4442 141.731 35.8459 142.686 36.6493C143.64 37.4527 144.13 38.5545 144.154 39.9545V45.67C144.169 46.8553 144.352 47.7621 144.702 48.3905V48.5934H140.681ZM138.164 45.9683C138.665 45.9683 139.078 45.8609 139.405 45.6461C139.739 45.4314 139.977 45.1887 140.12 44.9183V42.854H138.951C137.551 42.854 136.851 43.4824 136.851 44.7393C136.851 45.1052 136.974 45.4035 137.221 45.6342C137.468 45.8569 137.782 45.9683 138.164 45.9683Z" fill="#F0F3FF" fill-opacity="0.8"/>
<path d="M150.144 48.5934H146.111V35.6828H150.144V48.5934ZM145.872 32.3537C145.872 31.781 146.079 31.3117 146.493 30.9458C146.906 30.5798 147.443 30.3969 148.104 30.3969C148.764 30.3969 149.301 30.5798 149.714 30.9458C150.128 31.3117 150.335 31.781 150.335 32.3537C150.335 32.9265 150.128 33.3958 149.714 33.7617C149.301 34.1277 148.764 34.3106 148.104 34.3106C147.443 34.3106 146.906 34.1277 146.493 33.7617C146.079 33.3958 145.872 32.9265 145.872 32.3537Z" fill="#F0F3FF" fill-opacity="0.8"/>
<path d="M156.385 48.5934H152.352V30.2656H156.385V48.5934Z" fill="#F0F3FF" fill-opacity="0.8"/>
<path d="M163.545 42.9614L165.692 35.6828H170L164.738 50.7531L164.511 51.302C163.763 52.9725 162.443 53.8077 160.55 53.8077C160.025 53.8077 159.472 53.7282 158.891 53.5691V50.6934H159.416C159.981 50.6934 160.411 50.6099 160.705 50.4429C161.007 50.2838 161.23 49.9934 161.373 49.5718L161.695 48.7127L157.209 35.6828H161.504L163.545 42.9614Z" fill="#F0F3FF" fill-opacity="0.8"/>
<path d="M61.556 42.7109C61.5003 43.9201 61.1742 44.99 60.5776 45.9207C59.981 46.8434 59.1417 47.5594 58.0599 48.0685C56.986 48.5776 55.757 48.8321 54.3729 48.8321C52.0899 48.8321 50.2921 48.0884 48.9795 46.6008C47.667 45.1133 47.0107 43.0132 47.0107 40.3007V39.4415C47.0107 37.7392 47.3051 36.2517 47.8937 34.9789C48.4903 33.6982 49.3455 32.7118 50.4591 32.0198C51.5728 31.3197 52.8615 30.9697 54.3251 30.9697C56.4331 30.9697 58.1275 31.5266 59.4082 32.6402C60.6889 33.7459 61.4168 35.2732 61.5918 37.2222H57.4156C57.3837 36.1642 57.1173 35.4045 56.6161 34.9431C56.115 34.4818 55.3513 34.2511 54.3251 34.2511C53.2831 34.2511 52.5194 34.6408 52.0342 35.4204C51.5489 36.2 51.2944 37.4449 51.2705 39.1552V40.3842C51.2705 42.2376 51.5012 43.5621 51.9626 44.3576C52.4319 45.1531 53.2353 45.5508 54.3729 45.5508C55.3354 45.5508 56.0712 45.3241 56.5803 44.8707C57.0894 44.4172 57.3599 43.6973 57.3917 42.7109H61.556Z" fill="#F0F3FF"/>
<path d="M70.6726 39.3222L69.3482 39.2268C68.0834 39.2268 67.272 39.6245 66.914 40.42V48.5935H62.8929V35.6829H66.6634L66.7947 37.3415C67.4708 36.0767 68.4135 35.4443 69.6226 35.4443C70.0522 35.4443 70.426 35.492 70.7442 35.5875L70.6726 39.3222Z" fill="#F0F3FF"/>
<path d="M77.0091 42.9615L79.1569 35.6829H83.4644L78.2023 50.7532L77.9756 51.3021C77.2278 52.9726 75.9073 53.8078 74.0141 53.8078C73.4891 53.8078 72.9362 53.7283 72.3555 53.5692V50.6935H72.8806C73.4453 50.6935 73.8749 50.61 74.1692 50.443C74.4715 50.2839 74.6942 49.9935 74.8374 49.5719L75.1596 48.7128L70.6731 35.6829H74.9687L77.0091 42.9615Z" fill="#F0F3FF"/>
<path d="M96.0174 42.2337C96.0174 44.2383 95.564 45.8411 94.6572 47.0423C93.7583 48.2355 92.5412 48.8321 91.0059 48.8321C89.8207 48.8321 88.8462 48.3986 88.0826 47.5315V53.5573H84.0614V35.6829H87.8201L87.9394 36.8761C88.711 35.9216 89.7252 35.4443 90.9821 35.4443C92.573 35.4443 93.81 36.0329 94.693 37.2102C95.5759 38.3796 96.0174 39.9904 96.0174 42.0427V42.2337ZM91.9963 41.9831C91.9963 39.6921 91.3281 38.5466 89.9917 38.5466C89.0371 38.5466 88.4008 38.8887 88.0826 39.5728V44.6559C88.4326 45.3718 89.0769 45.7298 90.0156 45.7298C91.2963 45.7298 91.9565 44.6241 91.9963 42.4126V41.9831Z" fill="#F0F3FF"/>
<path d="M101.996 32.4732V35.6829H104.12V38.475H101.996V44.3814C101.996 44.8667 102.083 45.2048 102.258 45.3957C102.433 45.5866 102.779 45.682 103.297 45.682C103.694 45.682 104.028 45.6582 104.299 45.6105V48.4861C103.575 48.7168 102.819 48.8321 102.032 48.8321C100.648 48.8321 99.6254 48.506 98.9652 47.8537C98.3049 47.2014 97.9748 46.211 97.9748 44.8826V38.475H96.3282V35.6829H97.9748V32.4732H101.996Z" fill="#F0F3FF"/>
<path d="M104.359 42.0189C104.359 40.7302 104.61 39.5847 105.111 38.5824C105.612 37.5722 106.332 36.7966 107.27 36.2557C108.209 35.7147 109.311 35.4443 110.576 35.4443C112.509 35.4443 114.032 36.0449 115.146 37.246C116.259 38.4392 116.816 40.066 116.816 42.1263V42.2695C116.816 44.282 116.255 45.8809 115.134 47.0662C114.02 48.2435 112.509 48.8321 110.599 48.8321C108.762 48.8321 107.286 48.2832 106.173 47.1855C105.059 46.0798 104.458 44.5843 104.371 42.699L104.359 42.0189ZM108.38 42.2695C108.38 43.4627 108.567 44.3377 108.941 44.8945C109.315 45.4514 109.868 45.7298 110.599 45.7298C112.031 45.7298 112.763 44.628 112.795 42.4246V42.0189C112.795 39.704 112.055 38.5466 110.576 38.5466C109.231 38.5466 108.503 39.545 108.392 41.5416L108.38 42.2695Z" fill="#F0F3FF"/>
</g>
<g filter="url(#filter1_dd)">
<path fill-rule="evenodd" clip-rule="evenodd" d="M35.1657 28.0659C35.1837 28.0659 35.1984 28.0219 35.1984 27.968C35.1984 27.9142 35.2131 27.8701 35.231 27.8701C35.249 27.8701 35.2637 27.8848 35.2637 27.9028C35.2637 27.9207 35.293 27.9354 35.3289 27.9354C35.3648 27.9354 35.3942 27.9501 35.3942 27.968C35.3942 27.986 35.4236 28.0007 35.4595 28.0007C35.4954 28.0007 35.5248 28.0153 35.5248 28.0333C35.5248 28.0512 35.5689 28.0659 35.6227 28.0659C35.6766 28.0659 35.7206 28.0806 35.7206 28.0986C35.7206 28.1165 35.75 28.1312 35.7859 28.1312C35.8218 28.1312 35.8512 28.1459 35.8512 28.1638C35.8512 28.1818 35.8806 28.1965 35.9165 28.1965C35.9524 28.1965 35.9818 28.2112 35.9818 28.2291C35.9818 28.2471 36.0258 28.2617 36.0797 28.2617C36.1335 28.2617 36.1776 28.2764 36.1776 28.2944C36.1776 28.3123 36.207 28.327 36.2429 28.327C36.2788 28.327 36.3082 28.3417 36.3082 28.3596C36.3082 28.3776 36.3375 28.3923 36.3734 28.3923C36.4093 28.3923 36.4387 28.407 36.4387 28.4249C36.4387 28.4429 36.4681 28.4575 36.504 28.4575C36.5399 28.4575 36.5693 28.4722 36.5693 28.4902C36.5693 28.5081 36.6133 28.5228 36.6672 28.5228C36.7211 28.5228 36.7651 28.5375 36.7651 28.5555C36.7651 28.5734 36.7945 28.5881 36.8304 28.5881C36.8663 28.5881 36.8957 28.6028 36.8957 28.6207C36.8957 28.6387 36.9251 28.6534 36.961 28.6534C36.9969 28.6534 37.0262 28.668 37.0262 28.686C37.0262 28.7039 37.0556 28.7186 37.0915 28.7186C37.1274 28.7186 37.1568 28.7333 37.1568 28.7513C37.1568 28.7692 37.2009 28.7839 37.2547 28.7839C37.3086 28.7839 37.3526 28.7986 37.3526 28.8165C37.3526 28.8345 37.382 28.8492 37.4179 28.8492C37.4538 28.8492 37.4832 28.8639 37.4832 28.8818C37.4832 28.8998 37.5126 28.9144 37.5485 28.9144C37.5844 28.9144 37.6138 28.9291 37.6138 28.9471C37.6138 28.965 37.6578 28.9797 37.7117 28.9797C37.7656 28.9797 37.8096 28.9944 37.8096 29.0123C37.8096 29.0303 37.839 29.045 37.8749 29.045C37.9108 29.045 37.9402 29.0597 37.9402 29.0776C37.9402 29.0956 37.9696 29.1103 38.0055 29.1103C38.0414 29.1103 38.0707 29.1249 38.0707 29.1429C38.0707 29.1608 38.0938 29.1755 38.122 29.1755C38.23 29.1755 38.2666 29.2618 38.2666 29.5159C38.2666 29.6588 38.2803 29.763 38.2992 29.763C38.319 29.763 38.3319 29.9044 38.3319 30.1219C38.3319 30.3395 38.3447 30.4809 38.3645 30.4809C38.3847 30.4809 38.3971 30.655 38.3971 30.9378C38.3971 31.2207 38.4096 31.3947 38.4298 31.3947C38.4511 31.3947 38.4624 31.906 38.4624 32.8633C38.4624 33.8206 38.4511 34.3319 38.4298 34.3319C38.4095 34.3319 38.3971 34.5168 38.3971 34.8214C38.3971 35.126 38.3848 35.3109 38.3645 35.3109C38.3449 35.3109 38.3319 35.4415 38.3319 35.6373C38.3319 35.8331 38.3188 35.9636 38.2992 35.9636C38.2802 35.9636 38.2666 36.0724 38.2666 36.2247C38.2666 36.377 38.253 36.4858 38.2339 36.4858C38.2153 36.4858 38.2013 36.5837 38.2013 36.7142C38.2013 36.8448 38.1873 36.9427 38.1687 36.9427C38.1505 36.9427 38.136 37.0297 38.136 37.1385C38.136 37.2473 38.1215 37.3343 38.1034 37.3343C38.0852 37.3343 38.0707 37.4213 38.0707 37.5301C38.0707 37.6389 38.0562 37.7259 38.0381 37.7259C38.02 37.7259 38.0055 37.813 38.0055 37.9217C38.0055 38.0305 37.991 38.1176 37.9728 38.1176C37.9549 38.1176 37.9402 38.1763 37.9402 38.2481C37.9402 38.3199 37.9255 38.3786 37.9075 38.3786C37.8896 38.3786 37.8749 38.4521 37.8749 38.5418C37.8749 38.6316 37.8602 38.705 37.8423 38.705C37.8243 38.705 37.8096 38.7637 37.8096 38.8355C37.8096 38.9073 37.7949 38.9661 37.777 38.9661C37.759 38.9661 37.7443 39.0395 37.7443 39.1292C37.7443 39.219 37.7296 39.2924 37.7117 39.2924C37.6937 39.2924 37.6791 39.3512 37.6791 39.423C37.6791 39.4948 37.6644 39.5535 37.6464 39.5535C37.6285 39.5535 37.6138 39.5976 37.6138 39.6514C37.6138 39.7053 37.5991 39.7493 37.5811 39.7493C37.5632 39.7493 37.5485 39.8081 37.5485 39.8798C37.5485 39.9516 37.5338 40.0104 37.5159 40.0104C37.4979 40.0104 37.4832 40.0691 37.4832 40.1409C37.4832 40.2127 37.4685 40.2715 37.4506 40.2715C37.4326 40.2715 37.4179 40.3155 37.4179 40.3694C37.4179 40.4232 37.4032 40.4673 37.3853 40.4673C37.3673 40.4673 37.3526 40.5113 37.3526 40.5652C37.3526 40.619 37.338 40.6631 37.32 40.6631C37.3021 40.6631 37.2874 40.7071 37.2874 40.761C37.2874 40.8148 37.2727 40.8589 37.2547 40.8589C37.2368 40.8589 37.2221 40.903 37.2221 40.9568C37.2221 41.0107 37.2074 41.0547 37.1894 41.0547C37.1715 41.0547 37.1568 41.0988 37.1568 41.1526C37.1568 41.2065 37.1421 41.2505 37.1242 41.2505C37.1062 41.2505 37.0915 41.2946 37.0915 41.3484C37.0915 41.4023 37.0768 41.4463 37.0589 41.4463C37.0409 41.4463 37.0262 41.4904 37.0262 41.5442C37.0262 41.5981 37.0116 41.6421 36.9936 41.6421C36.9757 41.6421 36.961 41.6862 36.961 41.7401C36.961 41.7939 36.9463 41.838 36.9283 41.838C36.9104 41.838 36.8957 41.8673 36.8957 41.9032C36.8957 41.9391 36.881 41.9685 36.863 41.9685C36.8451 41.9685 36.8304 42.0126 36.8304 42.0664C36.8304 42.1203 36.8157 42.1643 36.7978 42.1643C36.7798 42.1643 36.7651 42.2084 36.7651 42.2622C36.7651 42.3161 36.7504 42.3601 36.7325 42.3601C36.7145 42.3601 36.6998 42.3895 36.6998 42.4254C36.6998 42.4613 36.6852 42.4907 36.6672 42.4907C36.6493 42.4907 36.6346 42.52 36.6346 42.5559C36.6346 42.5918 36.6199 42.6212 36.6019 42.6212C36.584 42.6212 36.5693 42.6653 36.5693 42.7191C36.5693 42.773 36.5546 42.817 36.5366 42.817C36.5187 42.817 36.504 42.8464 36.504 42.8823C36.504 42.9182 36.4893 42.9476 36.4714 42.9476C36.4534 42.9476 36.4387 42.9769 36.4387 43.0128C36.4387 43.0487 36.424 43.0781 36.4061 43.0781C36.3881 43.0781 36.3734 43.1222 36.3734 43.176C36.3734 43.2298 36.3587 43.2739 36.3408 43.2739C36.3228 43.2739 36.3082 43.3033 36.3082 43.3392C36.3082 43.3751 36.2935 43.4044 36.2755 43.4044C36.2576 43.4044 36.2429 43.4338 36.2429 43.4697C36.2429 43.5056 36.2282 43.535 36.2102 43.535C36.1923 43.535 36.1776 43.5644 36.1776 43.6003C36.1776 43.6362 36.1629 43.6655 36.145 43.6655C36.127 43.6655 36.1123 43.6949 36.1123 43.7308C36.1123 43.7667 36.0976 43.7961 36.0797 43.7961C36.0617 43.7961 36.047 43.8254 36.047 43.8613C36.047 43.8972 36.0323 43.9266 36.0144 43.9266C35.9964 43.9266 35.9818 43.956 35.9818 43.9919C35.9818 44.0278 35.9671 44.0571 35.9491 44.0571C35.9312 44.0571 35.9165 44.0865 35.9165 44.1224C35.9165 44.1583 35.9018 44.1877 35.8838 44.1877C35.8659 44.1877 35.8512 44.2171 35.8512 44.253C35.8512 44.2889 35.8365 44.3182 35.8186 44.3182C35.8006 44.3182 35.7859 44.3476 35.7859 44.3835C35.7859 44.4194 35.7712 44.4488 35.7533 44.4488C35.7353 44.4488 35.7206 44.4781 35.7206 44.514C35.7206 44.5499 35.7059 44.5793 35.688 44.5793C35.67 44.5793 35.6553 44.6087 35.6553 44.6446C35.6553 44.6805 35.6407 44.7099 35.6227 44.7099C35.6048 44.7099 35.5901 44.7392 35.5901 44.7751C35.5901 44.811 35.5754 44.8404 35.5574 44.8404C35.5395 44.8404 35.5248 44.8698 35.5248 44.9057C35.5248 44.9416 35.5101 44.9709 35.4921 44.9709C35.4742 44.9709 35.4595 44.9971 35.4595 45.029C35.4595 45.0609 35.4301 45.1082 35.3942 45.1341C35.3583 45.16 35.3289 45.2073 35.3289 45.2392C35.3289 45.2711 35.3143 45.2973 35.2963 45.2973C35.2784 45.2973 35.2637 45.3267 35.2637 45.3626C35.2637 45.3985 35.249 45.4278 35.231 45.4278C35.2131 45.4278 35.1984 45.454 35.1984 45.4859C35.1984 45.5178 35.169 45.5651 35.1331 45.591C35.0972 45.6169 35.0678 45.6642 35.0678 45.6961C35.0678 45.728 35.0531 45.7542 35.0352 45.7542C35.0172 45.7542 35.0025 45.7803 35.0025 45.8122C35.0025 45.8442 34.9732 45.8915 34.9373 45.9174C34.9014 45.9432 34.872 45.9905 34.872 46.0225C34.872 46.0544 34.8573 46.0805 34.8393 46.0805C34.8214 46.0805 34.8067 46.1067 34.8067 46.1386C34.8067 46.1705 34.7773 46.2178 34.7414 46.2437C34.7055 46.2696 34.6761 46.3136 34.6761 46.3416C34.6761 46.3696 34.6468 46.4136 34.6109 46.4395C34.575 46.4654 34.5456 46.5095 34.5456 46.5374C34.5456 46.5654 34.5162 46.6094 34.4803 46.6353C34.4444 46.6612 34.415 46.7053 34.415 46.7332C34.415 46.7612 34.3856 46.8053 34.3497 46.8311C34.3138 46.857 34.2845 46.9011 34.2845 46.929C34.2845 46.957 34.2551 47.0011 34.2192 47.0269C34.1833 47.0528 34.1539 47.0942 34.1539 47.119C34.1539 47.1437 34.1098 47.2051 34.056 47.2554C34.0021 47.3057 33.958 47.3644 33.958 47.3859C33.958 47.4074 33.914 47.4662 33.8601 47.5165C33.8063 47.5668 33.7622 47.6255 33.7622 47.647C33.7622 47.6685 33.7181 47.7273 33.6643 47.7776C33.6104 47.8278 33.5664 47.8866 33.5664 47.9081C33.5664 47.9296 33.5223 47.9883 33.4684 48.0386C33.4146 48.0889 33.3705 48.1474 33.3705 48.1685C33.3705 48.1896 33.3118 48.2634 33.24 48.3324C33.1682 48.4013 33.1094 48.4746 33.1094 48.4951C33.1094 48.5156 33.036 48.6039 32.9462 48.6913C32.8564 48.7788 32.783 48.8666 32.783 48.8866C32.783 48.9066 32.6802 49.0243 32.5545 49.1482C32.4288 49.2721 32.326 49.389 32.326 49.4079C32.326 49.4528 30.5416 51.2369 30.4967 51.2369C30.4778 51.2369 30.361 51.3397 30.237 51.4653C30.1131 51.591 29.9954 51.6938 29.9754 51.6938C29.9554 51.6938 29.8675 51.7672 29.7801 51.8569C29.6926 51.9467 29.6043 52.0201 29.5838 52.0201C29.5633 52.0201 29.49 52.0789 29.421 52.1507C29.352 52.2225 29.2786 52.2812 29.2578 52.2812C29.2371 52.2812 29.1636 52.3399 29.0946 52.4117C29.0256 52.4835 28.9519 52.5423 28.9308 52.5423C28.9096 52.5423 28.8512 52.5863 28.8009 52.6402C28.7506 52.694 28.6918 52.7381 28.6703 52.7381C28.6488 52.7381 28.59 52.7822 28.5397 52.836C28.4894 52.8899 28.4307 52.9339 28.4092 52.9339C28.3877 52.9339 28.3289 52.978 28.2786 53.0318C28.2283 53.0857 28.1669 53.1297 28.1422 53.1297C28.1174 53.1297 28.076 53.1591 28.0501 53.195C28.0243 53.2309 27.9802 53.2603 27.9522 53.2603C27.9242 53.2603 27.8802 53.2896 27.8543 53.3255C27.8284 53.3614 27.787 53.3908 27.7622 53.3908C27.7375 53.3908 27.6761 53.4349 27.6258 53.4887C27.5755 53.5426 27.5141 53.5866 27.4894 53.5866C27.4646 53.5866 27.4232 53.616 27.3973 53.6519C27.3714 53.6878 27.3274 53.7172 27.2994 53.7172C27.2714 53.7172 27.2274 53.7465 27.2015 53.7824C27.1756 53.8183 27.1283 53.8477 27.0964 53.8477C27.0644 53.8477 27.0383 53.8624 27.0383 53.8803C27.0383 53.8983 27.0121 53.913 26.9802 53.913C26.9483 53.913 26.901 53.9423 26.8751 53.9782C26.8492 54.0141 26.8051 54.0435 26.7772 54.0435C26.7492 54.0435 26.7051 54.0729 26.6792 54.1088C26.6534 54.1447 26.6061 54.174 26.5741 54.174C26.5422 54.174 26.516 54.1887 26.516 54.2067C26.516 54.2246 26.4899 54.2393 26.458 54.2393C26.426 54.2393 26.3787 54.2687 26.3528 54.3046C26.327 54.3405 26.2797 54.3699 26.2477 54.3699C26.2158 54.3699 26.1896 54.3845 26.1896 54.4025C26.1896 54.4204 26.1635 54.4351 26.1316 54.4351C26.0996 54.4351 26.0523 54.4645 26.0264 54.5004C26.0005 54.5363 25.9533 54.5657 25.9213 54.5657C25.8894 54.5657 25.8632 54.5804 25.8632 54.5983C25.8632 54.6162 25.8371 54.6309 25.8052 54.6309C25.7732 54.6309 25.7259 54.6603 25.7 54.6962C25.6741 54.7321 25.6268 54.7615 25.5949 54.7615C25.563 54.7615 25.5368 54.7762 25.5368 54.7941C25.5368 54.8121 25.5075 54.8267 25.4715 54.8267C25.4356 54.8267 25.4063 54.8414 25.4063 54.8594C25.4063 54.8773 25.3769 54.892 25.341 54.892C25.3051 54.892 25.2757 54.9067 25.2757 54.9247C25.2757 54.9426 25.2496 54.9573 25.2176 54.9573C25.1857 54.9573 25.1384 54.9867 25.1125 55.0226C25.0866 55.0585 25.0393 55.0878 25.0074 55.0878C24.9754 55.0878 24.9493 55.1025 24.9493 55.1205C24.9493 55.1384 24.9199 55.1531 24.884 55.1531C24.8481 55.1531 24.8187 55.1678 24.8187 55.1857C24.8187 55.2037 24.7894 55.2184 24.7535 55.2184C24.7176 55.2184 24.6882 55.2331 24.6882 55.251C24.6882 55.269 24.6588 55.2836 24.6229 55.2836C24.587 55.2836 24.5576 55.2983 24.5576 55.3163C24.5576 55.3342 24.5282 55.3489 24.4923 55.3489C24.4564 55.3489 24.4271 55.3636 24.4271 55.3815C24.4271 55.3995 24.3989 55.4142 24.3645 55.4142C24.3301 55.4142 24.2934 55.4326 24.2829 55.455C24.2677 55.4876 24.26 55.4876 24.2448 55.455C24.2343 55.4326 24.1976 55.4142 24.1632 55.4142C24.1288 55.4142 24.1006 55.3995 24.1006 55.3815C24.1006 55.3636 24.0713 55.3489 24.0354 55.3489C23.9995 55.3489 23.9701 55.3342 23.9701 55.3163C23.9701 55.2983 23.9407 55.2836 23.9048 55.2836C23.8689 55.2836 23.8395 55.269 23.8395 55.251C23.8395 55.2331 23.8102 55.2184 23.7742 55.2184C23.7383 55.2184 23.709 55.2037 23.709 55.1857C23.709 55.1678 23.6796 55.1531 23.6437 55.1531C23.6078 55.1531 23.5784 55.1384 23.5784 55.1205C23.5784 55.1025 23.549 55.0878 23.5131 55.0878C23.4772 55.0878 23.4478 55.0731 23.4478 55.0552C23.4478 55.0372 23.4217 55.0226 23.3898 55.0226C23.3578 55.0226 23.3105 54.9932 23.2846 54.9573C23.2588 54.9214 23.2115 54.892 23.1795 54.892C23.1476 54.892 23.1214 54.8773 23.1214 54.8594C23.1214 54.8414 23.0921 54.8267 23.0562 54.8267C23.0203 54.8267 22.9909 54.8121 22.9909 54.7941C22.9909 54.7762 22.9647 54.7615 22.9328 54.7615C22.9009 54.7615 22.8536 54.7321 22.8277 54.6962C22.8018 54.6603 22.7545 54.6309 22.7225 54.6309C22.6906 54.6309 22.6645 54.6162 22.6645 54.5983C22.6645 54.5804 22.6351 54.5657 22.5992 54.5657C22.5633 54.5657 22.5339 54.551 22.5339 54.533C22.5339 54.5151 22.5078 54.5004 22.4758 54.5004C22.4439 54.5004 22.3966 54.471 22.3707 54.4351C22.3448 54.3992 22.2975 54.3699 22.2656 54.3699C22.2337 54.3699 22.2075 54.3552 22.2075 54.3372C22.2075 54.3193 22.1814 54.3046 22.1494 54.3046C22.1175 54.3046 22.0702 54.2752 22.0443 54.2393C22.0184 54.2034 21.9744 54.174 21.9464 54.174C21.9184 54.174 21.8743 54.1447 21.8485 54.1088C21.8226 54.0729 21.7753 54.0435 21.7433 54.0435C21.7114 54.0435 21.6853 54.0288 21.6853 54.0109C21.6853 53.9929 21.6591 53.9782 21.6272 53.9782C21.5952 53.9782 21.5479 53.9489 21.5221 53.913C21.4962 53.8771 21.4521 53.8477 21.4241 53.8477C21.3962 53.8477 21.3521 53.8183 21.3262 53.7824C21.3003 53.7465 21.2563 53.7172 21.2283 53.7172C21.2003 53.7172 21.1563 53.6878 21.1304 53.6519C21.1045 53.616 21.0604 53.5866 21.0325 53.5866C21.0045 53.5866 20.9604 53.5572 20.9345 53.5213C20.9086 53.4854 20.8672 53.4561 20.8425 53.4561C20.8178 53.4561 20.7563 53.412 20.706 53.3582C20.6558 53.3043 20.5943 53.2603 20.5696 53.2603C20.5449 53.2603 20.5035 53.2309 20.4776 53.195C20.4517 53.1591 20.4103 53.1297 20.3855 53.1297C20.3608 53.1297 20.2994 53.0857 20.2491 53.0318C20.1988 52.978 20.14 52.9339 20.1185 52.9339C20.097 52.9339 20.0383 52.8899 19.988 52.836C19.9377 52.7822 19.8789 52.7381 19.8574 52.7381C19.8359 52.7381 19.7771 52.694 19.7268 52.6402C19.6765 52.5863 19.6178 52.5423 19.5963 52.5423C19.5748 52.5423 19.516 52.4982 19.4657 52.4444C19.4154 52.3905 19.357 52.3465 19.3358 52.3465C19.3147 52.3465 19.241 52.2877 19.172 52.2159C19.1029 52.1441 19.0299 52.0854 19.0095 52.0854C18.9891 52.0854 18.886 51.9973 18.7803 51.8896C18.6745 51.7819 18.5718 51.6938 18.552 51.6938C18.5322 51.6938 18.4146 51.591 18.2907 51.4653C18.1667 51.3397 18.0499 51.2369 18.031 51.2369C17.9861 51.2369 16.2017 49.4528 16.2017 49.4079C16.2017 49.389 16.0989 49.2721 15.9732 49.1482C15.8475 49.0243 15.7447 48.9066 15.7447 48.8866C15.7447 48.8666 15.6713 48.7788 15.5815 48.6913C15.4917 48.6039 15.4183 48.5156 15.4183 48.4951C15.4183 48.4746 15.3596 48.4013 15.2877 48.3324C15.2159 48.2634 15.1572 48.1899 15.1572 48.1692C15.1572 48.1484 15.0984 48.075 15.0266 48.006C14.9548 47.937 14.8961 47.8633 14.8961 47.8422C14.8961 47.821 14.852 47.7626 14.7981 47.7123C14.7443 47.662 14.7002 47.6006 14.7002 47.5759C14.7002 47.5511 14.6708 47.5097 14.6349 47.4838C14.599 47.458 14.5697 47.4165 14.5697 47.3918C14.5697 47.3671 14.5256 47.3057 14.4717 47.2554C14.4179 47.2051 14.3738 47.1437 14.3738 47.119C14.3738 47.0942 14.3444 47.0528 14.3085 47.0269C14.2726 47.0011 14.2433 46.957 14.2433 46.929C14.2433 46.9011 14.2139 46.857 14.178 46.8311C14.1421 46.8053 14.1127 46.7612 14.1127 46.7332C14.1127 46.7053 14.0833 46.6612 14.0474 46.6353C14.0115 46.6094 13.9821 46.5654 13.9821 46.5374C13.9821 46.5095 13.9528 46.4654 13.9168 46.4395C13.8809 46.4136 13.8516 46.3696 13.8516 46.3416C13.8516 46.3136 13.8222 46.2696 13.7863 46.2437C13.7504 46.2178 13.721 46.1705 13.721 46.1386C13.721 46.1067 13.7063 46.0805 13.6884 46.0805C13.6704 46.0805 13.6557 46.0544 13.6557 46.0225C13.6557 45.9905 13.6263 45.9432 13.5904 45.9174C13.5545 45.8915 13.5252 45.8442 13.5252 45.8122C13.5252 45.7803 13.5105 45.7542 13.4925 45.7542C13.4746 45.7542 13.4599 45.728 13.4599 45.6961C13.4599 45.6642 13.4305 45.6169 13.3946 45.591C13.3587 45.5651 13.3293 45.5178 13.3293 45.4859C13.3293 45.454 13.3146 45.4278 13.2967 45.4278C13.2787 45.4278 13.264 45.4017 13.264 45.3698C13.264 45.3378 13.2347 45.2905 13.1988 45.2646C13.1629 45.2388 13.1335 45.1915 13.1335 45.1595C13.1335 45.1276 13.1188 45.1015 13.1008 45.1015C13.0829 45.1015 13.0682 45.0721 13.0682 45.0362C13.0682 45.0003 13.0535 44.9709 13.0356 44.9709C13.0176 44.9709 13.0029 44.9416 13.0029 44.9057C13.0029 44.8698 12.9882 44.8404 12.9703 44.8404C12.9523 44.8404 12.9376 44.811 12.9376 44.7751C12.9376 44.7392 12.9229 44.7099 12.905 44.7099C12.887 44.7099 12.8724 44.6805 12.8724 44.6446C12.8724 44.6087 12.8577 44.5793 12.8397 44.5793C12.8218 44.5793 12.8071 44.5532 12.8071 44.5213C12.8071 44.4893 12.7777 44.442 12.7418 44.4161C12.7059 44.3903 12.6765 44.343 12.6765 44.311C12.6765 44.2791 12.6618 44.253 12.6439 44.253C12.6259 44.253 12.6112 44.2236 12.6112 44.1877C12.6112 44.1518 12.5965 44.1224 12.5786 44.1224C12.5606 44.1224 12.546 44.093 12.546 44.0571C12.546 43.9937 12.5677 43.9919 13.3293 43.9919C13.8298 43.9919 14.1127 43.9801 14.1127 43.9592C14.1127 43.9392 14.2759 43.9266 14.537 43.9266C14.7981 43.9266 14.9613 43.914 14.9613 43.894C14.9613 43.8744 15.0919 43.8613 15.2877 43.8613C15.4836 43.8613 15.6141 43.8483 15.6141 43.8287C15.6141 43.8097 15.7229 43.7961 15.8753 43.7961C16.0276 43.7961 16.1364 43.7825 16.1364 43.7634C16.1364 43.7453 16.2234 43.7308 16.3322 43.7308C16.441 43.7308 16.5281 43.7163 16.5281 43.6982C16.5281 43.6795 16.626 43.6655 16.7566 43.6655C16.8871 43.6655 16.985 43.6515 16.985 43.6329C16.985 43.6149 17.0585 43.6003 17.1482 43.6003C17.238 43.6003 17.3114 43.5856 17.3114 43.5676C17.3114 43.5497 17.3849 43.535 17.4747 43.535C17.5644 43.535 17.6379 43.5203 17.6379 43.5023C17.6379 43.4844 17.7113 43.4697 17.8011 43.4697C17.8908 43.4697 17.9643 43.455 17.9643 43.4371C17.9643 43.4191 18.0377 43.4044 18.1275 43.4044C18.2172 43.4044 18.2907 43.3898 18.2907 43.3718C18.2907 43.3539 18.3494 43.3392 18.4212 43.3392C18.493 43.3392 18.5518 43.3245 18.5518 43.3065C18.5518 43.2886 18.6105 43.2739 18.6823 43.2739C18.7542 43.2739 18.8129 43.2592 18.8129 43.2413C18.8129 43.2233 18.8717 43.2086 18.9435 43.2086C19.0153 43.2086 19.074 43.1939 19.074 43.176C19.074 43.1581 19.1328 43.1434 19.2046 43.1434C19.2764 43.1434 19.3352 43.1287 19.3352 43.1107C19.3352 43.0928 19.3939 43.0781 19.4657 43.0781C19.5375 43.0781 19.5963 43.0634 19.5963 43.0455C19.5963 43.0275 19.655 43.0128 19.7268 43.0128C19.7986 43.0128 19.8574 42.9981 19.8574 42.9802C19.8574 42.9622 19.9015 42.9476 19.9553 42.9476C20.0092 42.9476 20.0532 42.9329 20.0532 42.9149C20.0532 42.897 20.0973 42.8823 20.1512 42.8823C20.205 42.8823 20.2491 42.8676 20.2491 42.8496C20.2491 42.8317 20.2931 42.817 20.347 42.817C20.4009 42.817 20.4449 42.8023 20.4449 42.7844C20.4449 42.7664 20.5037 42.7517 20.5755 42.7517C20.6473 42.7517 20.706 42.7371 20.706 42.7191C20.706 42.7012 20.7501 42.6865 20.804 42.6865C20.8578 42.6865 20.9019 42.6718 20.9019 42.6538C20.9019 42.6359 20.946 42.6212 20.9998 42.6212C21.0537 42.6212 21.0977 42.6065 21.0977 42.5886C21.0977 42.5706 21.1418 42.5559 21.1957 42.5559C21.2495 42.5559 21.2936 42.5412 21.2936 42.5233C21.2936 42.5053 21.323 42.4907 21.3589 42.4907C21.3948 42.4907 21.4241 42.476 21.4241 42.458C21.4241 42.4401 21.4682 42.4254 21.5221 42.4254C21.5759 42.4254 21.62 42.4107 21.62 42.3928C21.62 42.3748 21.664 42.3601 21.7179 42.3601C21.7718 42.3601 21.8158 42.3454 21.8158 42.3275C21.8158 42.3095 21.8305 42.2948 21.8485 42.2948C21.8675 42.2948 21.8811 42.4036 21.8811 42.5559C21.8811 42.7082 21.8675 42.817 21.8485 42.817C21.8294 42.817 21.8158 42.9258 21.8158 43.0781C21.8158 43.2304 21.8022 43.3392 21.7832 43.3392C21.7642 43.3392 21.7505 43.4479 21.7505 43.6003C21.7505 43.7526 21.7369 43.8613 21.7179 43.8613C21.6977 43.8613 21.6853 44.0354 21.6853 44.3182C21.6853 44.6011 21.6977 44.7751 21.7179 44.7751C21.7359 44.7751 21.7505 44.8159 21.7505 44.8658C21.7505 44.9191 21.7775 44.9759 21.8158 45.0036C21.8517 45.0294 21.8811 45.0704 21.8811 45.0947C21.8811 45.1189 21.9021 45.1598 21.9277 45.1854C21.9534 45.211 21.9942 45.232 22.0185 45.232C22.0427 45.232 22.0837 45.2614 22.1096 45.2973C22.1355 45.3332 22.1828 45.3626 22.2147 45.3626C22.2466 45.3626 22.2728 45.3772 22.2728 45.3952C22.2728 45.4166 22.9256 45.4278 24.1659 45.4278C25.4063 45.4278 26.0591 45.4166 26.0591 45.3952C26.0591 45.3772 26.0961 45.3626 26.1414 45.3626C26.2337 45.3626 26.5813 45.0408 26.5813 44.9553C26.5813 44.928 26.596 44.9057 26.614 44.9057C26.6319 44.9057 26.6466 44.8616 26.6466 44.8078C26.6466 44.7539 26.6613 44.7099 26.6792 44.7099C26.6983 44.7099 26.7119 44.6011 26.7119 44.4488C26.7119 44.2965 26.6983 44.1877 26.6792 44.1877C26.6602 44.1877 26.6466 44.0789 26.6466 43.9266C26.6466 43.7743 26.633 43.6655 26.614 43.6655C26.5946 43.6655 26.5813 43.5459 26.5813 43.3718C26.5813 43.1978 26.568 43.0781 26.5487 43.0781C26.5296 43.0781 26.516 42.9693 26.516 42.817C26.516 42.6647 26.5024 42.5559 26.4834 42.5559C26.4644 42.5559 26.4508 42.4472 26.4508 42.2948C26.4508 42.1425 26.4371 42.0338 26.4181 42.0338C26.3991 42.0338 26.3855 41.925 26.3855 41.7727C26.3855 41.6204 26.3719 41.5116 26.3528 41.5116C26.3338 41.5116 26.3202 41.4028 26.3202 41.2505C26.3202 41.0982 26.3066 40.9894 26.2876 40.9894C26.2685 40.9894 26.2549 40.8807 26.2549 40.7284C26.2549 40.5761 26.2413 40.4673 26.2223 40.4673C26.1722 40.4673 26.1835 40.2403 26.2363 40.1876C26.2619 40.1619 26.306 40.1409 26.3342 40.1409C26.3624 40.1409 26.3855 40.1262 26.3855 40.1083C26.3855 40.0903 26.4116 40.0757 26.4435 40.0757C26.4755 40.0757 26.5228 40.0463 26.5487 40.0104C26.5746 39.9745 26.6186 39.9451 26.6466 39.9451C26.6746 39.9451 26.7186 39.9157 26.7445 39.8798C26.7704 39.8439 26.8177 39.8146 26.8497 39.8146C26.8816 39.8146 26.9077 39.7999 26.9077 39.7819C26.9077 39.764 26.9312 39.7493 26.9599 39.7493C26.9886 39.7493 27.0533 39.7053 27.1036 39.6514C27.1539 39.5976 27.2153 39.5535 27.24 39.5535C27.2647 39.5535 27.3062 39.5241 27.332 39.4882C27.3579 39.4523 27.402 39.423 27.43 39.423C27.4579 39.423 27.502 39.3936 27.5279 39.3577C27.5538 39.3218 27.5978 39.2924 27.6258 39.2924C27.6538 39.2924 27.6978 39.263 27.7237 39.2271C27.7496 39.1912 27.791 39.1619 27.8158 39.1619C27.8405 39.1619 27.9019 39.1178 27.9522 39.064C28.0025 39.0101 28.0613 38.9661 28.0828 38.9661C28.1043 38.9661 28.163 38.922 28.2133 38.8682C28.2636 38.8143 28.3221 38.7703 28.3432 38.7703C28.3644 38.7703 28.4381 38.7115 28.5071 38.6397C28.5761 38.5679 28.6495 38.5092 28.6703 38.5092C28.6911 38.5092 28.7645 38.4504 28.8335 38.3786C28.9025 38.3068 28.9756 38.2481 28.996 38.2481C29.0163 38.2481 29.1195 38.16 29.2252 38.0523C29.3309 37.9446 29.433 37.8565 29.452 37.8565C29.4972 37.8565 31.3468 36.0072 31.3468 35.962C31.3468 35.9429 31.4349 35.8409 31.5427 35.7352C31.6504 35.6295 31.7385 35.5264 31.7385 35.506C31.7385 35.4856 31.7973 35.4126 31.8691 35.3436C31.9409 35.2746 31.9996 35.2008 31.9996 35.1797C31.9996 35.1586 32.0437 35.1001 32.0975 35.0498C32.1514 34.9996 32.1955 34.9408 32.1955 34.9193C32.1955 34.8978 32.2395 34.8391 32.2934 34.7888C32.3472 34.7385 32.3913 34.6797 32.3913 34.6582C32.3913 34.6367 32.4354 34.578 32.4892 34.5277C32.5431 34.4774 32.5872 34.416 32.5872 34.3913C32.5872 34.3665 32.6165 34.3251 32.6524 34.2992C32.6883 34.2734 32.7177 34.2293 32.7177 34.2013C32.7177 34.1734 32.7471 34.1293 32.783 34.1034C32.8189 34.0775 32.8483 34.0335 32.8483 34.0055C32.8483 33.9776 32.8777 33.9335 32.9136 33.9076C32.9495 33.8817 32.9788 33.8377 32.9788 33.8097C32.9788 33.7817 33.0082 33.7377 33.0441 33.7118C33.08 33.6859 33.1094 33.6386 33.1094 33.6067C33.1094 33.5748 33.1241 33.5486 33.142 33.5486C33.16 33.5486 33.1747 33.5225 33.1747 33.4906C33.1747 33.4586 33.2041 33.4113 33.24 33.3855C33.2759 33.3596 33.3052 33.3123 33.3052 33.2803C33.3052 33.2484 33.3199 33.2223 33.3379 33.2223C33.3558 33.2223 33.3705 33.1961 33.3705 33.1642C33.3705 33.1323 33.3999 33.085 33.4358 33.0591C33.4717 33.0332 33.5011 32.9859 33.5011 32.954C33.5011 32.9221 33.5158 32.8959 33.5337 32.8959C33.5517 32.8959 33.5664 32.8666 33.5664 32.8307C33.5664 32.7948 33.5811 32.7654 33.599 32.7654C33.617 32.7654 33.6316 32.736 33.6316 32.7001C33.6316 32.6642 33.6463 32.6348 33.6643 32.6348C33.6822 32.6348 33.6969 32.6055 33.6969 32.5696C33.6969 32.5337 33.7116 32.5043 33.7296 32.5043C33.7475 32.5043 33.7622 32.4749 33.7622 32.439C33.7622 32.4031 33.7769 32.3738 33.7948 32.3738C33.8128 32.3738 33.8275 32.3444 33.8275 32.3085C33.8275 32.2726 33.8422 32.2432 33.8601 32.2432C33.8781 32.2432 33.8928 32.2139 33.8928 32.178C33.8928 32.1421 33.9075 32.1127 33.9254 32.1127C33.9434 32.1127 33.958 32.0833 33.958 32.0474C33.958 32.0115 33.9727 31.9821 33.9907 31.9821C34.0086 31.9821 34.0233 31.9528 34.0233 31.9169C34.0233 31.881 34.038 31.8516 34.056 31.8516C34.0739 31.8516 34.0886 31.8222 34.0886 31.7863C34.0886 31.7504 34.1033 31.7211 34.1213 31.7211C34.1392 31.7211 34.1539 31.677 34.1539 31.6232C34.1539 31.5693 34.1686 31.5253 34.1865 31.5253C34.2045 31.5253 34.2192 31.4959 34.2192 31.46C34.2192 31.4241 34.2339 31.3947 34.2518 31.3947C34.2698 31.3947 34.2845 31.3653 34.2845 31.3294C34.2845 31.2935 34.2991 31.2642 34.3171 31.2642C34.335 31.2642 34.3497 31.2201 34.3497 31.1663C34.3497 31.1124 34.3644 31.0684 34.3824 31.0684C34.4003 31.0684 34.415 31.0243 34.415 30.9705C34.415 30.9166 34.4297 30.8725 34.4477 30.8725C34.4656 30.8725 34.4803 30.8432 34.4803 30.8073C34.4803 30.7714 34.495 30.742 34.5129 30.742C34.5309 30.742 34.5456 30.698 34.5456 30.6441C34.5456 30.5903 34.5603 30.5462 34.5782 30.5462C34.5962 30.5462 34.6109 30.5021 34.6109 30.4483C34.6109 30.3944 34.6255 30.3504 34.6435 30.3504C34.6614 30.3504 34.6761 30.3063 34.6761 30.2525C34.6761 30.1986 34.6908 30.1546 34.7088 30.1546C34.7267 30.1546 34.7414 30.0958 34.7414 30.024C34.7414 29.9522 34.7561 29.8935 34.7741 29.8935C34.792 29.8935 34.8067 29.8494 34.8067 29.7956C34.8067 29.7417 34.8214 29.6977 34.8393 29.6977C34.8573 29.6977 34.872 29.6389 34.872 29.5671C34.872 29.4953 34.8867 29.4366 34.9046 29.4366C34.9226 29.4366 34.9373 29.3779 34.9373 29.3061C34.9373 29.2343 34.9519 29.1755 34.9699 29.1755C34.9879 29.1755 35.0025 29.1021 35.0025 29.0123C35.0025 28.9226 35.0172 28.8492 35.0352 28.8492C35.0533 28.8492 35.0678 28.7621 35.0678 28.6534C35.0678 28.5446 35.0823 28.4575 35.1005 28.4575C35.1186 28.4575 35.1331 28.3705 35.1331 28.2617C35.1331 28.153 35.1476 28.0659 35.1657 28.0659Z" fill="#50CB75"/>
</g>
<g filter="url(#filter2_dd)">
<path d="M22.9338 25.0806C22.8934 25.1238 22.8603 25.1744 22.8603 25.1931C22.8603 25.2385 21.8589 26.2384 21.8135 26.2384C21.794 26.2384 21.7216 26.2971 21.6526 26.3689C21.5836 26.4407 21.5099 26.4994 21.4888 26.4994C21.4676 26.4994 21.4092 26.5435 21.3589 26.5973C21.3086 26.6512 21.2471 26.6953 21.2224 26.6953C21.1977 26.6953 21.1563 26.7246 21.1304 26.7605C21.1045 26.7964 21.0604 26.8258 21.0325 26.8258C21.0045 26.8258 20.9604 26.8552 20.9345 26.8911C20.9086 26.927 20.8614 26.9563 20.8294 26.9563C20.7975 26.9563 20.7713 26.971 20.7713 26.989C20.7713 27.0069 20.7452 27.0216 20.7133 27.0216C20.6813 27.0216 20.634 27.051 20.6081 27.0869C20.5822 27.1228 20.5349 27.1521 20.503 27.1521C20.4711 27.1521 20.4449 27.1668 20.4449 27.1848C20.4449 27.2027 20.4155 27.2174 20.3796 27.2174C20.3437 27.2174 20.3144 27.2321 20.3144 27.25C20.3144 27.268 20.285 27.2827 20.2491 27.2827C20.2132 27.2827 20.1838 27.2974 20.1838 27.3153C20.1838 27.3333 20.1544 27.348 20.1185 27.348C20.0826 27.348 20.0532 27.3626 20.0532 27.3806C20.0532 27.3985 20.0239 27.4132 19.988 27.4132C19.9521 27.4132 19.9227 27.4279 19.9227 27.4459C19.9227 27.4638 19.8933 27.4785 19.8574 27.4785C19.8215 27.4785 19.7921 27.4932 19.7921 27.5111C19.7921 27.5291 19.7481 27.5438 19.6942 27.5438C19.6403 27.5438 19.5963 27.5584 19.5963 27.5764C19.5963 27.5943 19.5669 27.609 19.531 27.609C19.4951 27.609 19.4657 27.6237 19.4657 27.6417C19.4657 27.6596 19.4216 27.6743 19.3678 27.6743C19.3139 27.6743 19.2699 27.689 19.2699 27.7069C19.2699 27.7249 19.2258 27.7396 19.172 27.7396C19.1181 27.7396 19.074 27.7543 19.074 27.7722C19.074 27.7902 19.03 27.8048 18.9761 27.8048C18.9223 27.8048 18.8782 27.8195 18.8782 27.8375C18.8782 27.8554 18.8194 27.8701 18.7476 27.8701C18.6758 27.8701 18.6171 27.8848 18.6171 27.9028C18.6171 27.9207 18.5583 27.9354 18.4865 27.9354C18.4147 27.9354 18.3559 27.9501 18.3559 27.968C18.3559 27.986 18.2825 28.0007 18.1927 28.0007C18.103 28.0007 18.0295 28.0153 18.0295 28.0333C18.0295 28.0514 17.9425 28.0659 17.8337 28.0659C17.7249 28.0659 17.6379 28.0804 17.6379 28.0986C17.6379 28.1196 17.2897 28.1312 16.6586 28.1312C16.0276 28.1312 15.6794 28.1196 15.6794 28.0986C15.6794 28.0804 15.5924 28.0659 15.4836 28.0659C15.3748 28.0659 15.2877 28.0514 15.2877 28.0333C15.2877 28.0153 15.2143 28.0007 15.1245 28.0007C15.0348 28.0007 14.9613 27.986 14.9613 27.968C14.9613 27.9501 14.9026 27.9354 14.8308 27.9354C14.759 27.9354 14.7002 27.9207 14.7002 27.9028C14.7002 27.8848 14.6562 27.8701 14.6023 27.8701C14.5484 27.8701 14.5044 27.8554 14.5044 27.8375C14.5044 27.8195 14.4456 27.8048 14.3738 27.8048C14.302 27.8048 14.2433 27.7902 14.2433 27.7722C14.2433 27.7543 14.2139 27.7396 14.178 27.7396C14.1421 27.7396 14.1127 27.7249 14.1127 27.7069C14.1127 27.689 14.0686 27.6743 14.0148 27.6743C13.9609 27.6743 13.9168 27.6596 13.9168 27.6417C13.9168 27.6237 13.8581 27.609 13.7863 27.609C13.7145 27.609 13.6557 27.6237 13.6557 27.6417C13.6557 27.6596 13.6117 27.6743 13.5578 27.6743C13.5039 27.6743 13.4599 27.689 13.4599 27.7069C13.4599 27.7249 13.4305 27.7396 13.3946 27.7396C13.3587 27.7396 13.3293 27.7543 13.3293 27.7722C13.3293 27.7902 13.2999 27.8048 13.264 27.8048C13.2281 27.8048 13.1988 27.8195 13.1988 27.8375C13.1988 27.8554 13.1547 27.8701 13.1008 27.8701C13.047 27.8701 13.0029 27.8848 13.0029 27.9028C13.0029 27.9207 12.9735 27.9354 12.9376 27.9354C12.9017 27.9354 12.8724 27.9501 12.8724 27.968C12.8724 27.986 12.843 28.0007 12.8071 28.0007C12.7712 28.0007 12.7418 28.0153 12.7418 28.0333C12.7418 28.0512 12.7124 28.0659 12.6765 28.0659C12.6406 28.0659 12.6112 28.0806 12.6112 28.0986C12.6112 28.1165 12.5672 28.1312 12.5133 28.1312C12.4595 28.1312 12.4154 28.1459 12.4154 28.1638C12.4154 28.1818 12.386 28.1965 12.3501 28.1965C12.3142 28.1965 12.2848 28.2112 12.2848 28.2291C12.2848 28.2471 12.2555 28.2617 12.2195 28.2617C12.1836 28.2617 12.1543 28.2764 12.1543 28.2944C12.1543 28.3123 12.1249 28.327 12.089 28.327C12.0531 28.327 12.0237 28.3417 12.0237 28.3596C12.0237 28.3776 11.9796 28.3923 11.9258 28.3923C11.8719 28.3923 11.8279 28.407 11.8279 28.4249C11.8279 28.4429 11.7985 28.4575 11.7626 28.4575C11.7267 28.4575 11.6973 28.4722 11.6973 28.4902C11.6973 28.5081 11.6679 28.5228 11.632 28.5228C11.5961 28.5228 11.5667 28.5375 11.5667 28.5555C11.5667 28.5734 11.5227 28.5881 11.4688 28.5881C11.415 28.5881 11.3709 28.6028 11.3709 28.6207C11.3709 28.6387 11.3415 28.6534 11.3056 28.6534C11.2697 28.6534 11.2403 28.668 11.2403 28.686C11.2403 28.7039 11.211 28.7186 11.1751 28.7186C11.1391 28.7186 11.1098 28.7333 11.1098 28.7513C11.1098 28.7692 11.0804 28.7839 11.0445 28.7839C11.0086 28.7839 10.9792 28.7986 10.9792 28.8165C10.9792 28.8345 10.9351 28.8492 10.8813 28.8492C10.8274 28.8492 10.7834 28.8639 10.7834 28.8818C10.7834 28.8998 10.754 28.9144 10.7181 28.9144C10.6822 28.9144 10.6528 28.9291 10.6528 28.9471C10.6528 28.965 10.6234 28.9797 10.5875 28.9797C10.5516 28.9797 10.5222 28.9944 10.5222 29.0123C10.5222 29.0303 10.4929 29.045 10.457 29.045C10.4211 29.045 10.3917 29.0597 10.3917 29.0776C10.3917 29.0956 10.3623 29.1103 10.3264 29.1103C10.2829 29.1103 10.2611 29.132 10.2611 29.1755C10.2611 29.2114 10.2464 29.2408 10.2285 29.2408C10.2091 29.2408 10.1958 29.3605 10.1958 29.5345C10.1958 29.7086 10.1826 29.8282 10.1632 29.8282C10.1436 29.8282 10.1306 29.9588 10.1306 30.1546C10.1306 30.3504 10.1175 30.4809 10.0979 30.4809C10.0775 30.4809 10.0653 30.6767 10.0653 31.0031C10.0653 31.3294 10.053 31.5253 10.0326 31.5253C10.0114 31.5253 10 32.0039 10 32.8959C10 33.7879 10.0114 34.2666 10.0326 34.2666C10.0529 34.2666 10.0653 34.4515 10.0653 34.7561C10.0653 35.0607 10.0776 35.2457 10.0979 35.2457C10.1177 35.2457 10.1306 35.3871 10.1306 35.6046C10.1306 35.8222 10.1434 35.9636 10.1632 35.9636C10.1822 35.9636 10.1958 36.0724 10.1958 36.2247C10.1958 36.377 10.2095 36.4858 10.2285 36.4858C10.2471 36.4858 10.2611 36.5837 10.2611 36.7142C10.2611 36.8448 10.2751 36.9427 10.2938 36.9427C10.3124 36.9427 10.3264 37.0406 10.3264 37.1711C10.3264 37.3017 10.3404 37.3996 10.359 37.3996C10.377 37.3996 10.3917 37.473 10.3917 37.5628C10.3917 37.6525 10.4064 37.7259 10.4243 37.7259C10.4425 37.7259 10.457 37.813 10.457 37.9217C10.457 38.0305 10.4715 38.1176 10.4896 38.1176C10.5076 38.1176 10.5222 38.191 10.5222 38.2807C10.5222 38.3705 10.5369 38.4439 10.5549 38.4439C10.5728 38.4439 10.5875 38.5026 10.5875 38.5744C10.5875 38.6462 10.6022 38.705 10.6202 38.705C10.6381 38.705 10.6528 38.7784 10.6528 38.8682C10.6528 38.9579 10.6675 39.0313 10.6854 39.0313C10.7034 39.0313 10.7181 39.0901 10.7181 39.1619C10.7181 39.2337 10.7328 39.2924 10.7507 39.2924C10.7687 39.2924 10.7834 39.3512 10.7834 39.423C10.7834 39.4948 10.7981 39.5535 10.816 39.5535C10.834 39.5535 10.8487 39.6122 10.8487 39.684C10.8487 39.7558 10.8633 39.8146 10.8813 39.8146C10.8992 39.8146 10.9139 39.8586 10.9139 39.9125C10.9139 39.9663 10.9286 40.0104 10.9466 40.0104C10.9645 40.0104 10.9792 40.0691 10.9792 40.1409C10.9792 40.2127 10.9939 40.2715 11.0119 40.2715C11.0298 40.2715 11.0445 40.3155 11.0445 40.3694C11.0445 40.4232 11.0592 40.4673 11.0771 40.4673C11.0951 40.4673 11.1098 40.526 11.1098 40.5978C11.1098 40.6696 11.1245 40.7284 11.1424 40.7284C11.1604 40.7284 11.1751 40.7724 11.1751 40.8263C11.1751 40.8801 11.1897 40.9242 11.2077 40.9242C11.2256 40.9242 11.2403 40.9682 11.2403 41.0221C11.2403 41.0759 11.255 41.12 11.273 41.12C11.2909 41.12 11.3056 41.164 11.3056 41.2179C11.3056 41.2717 11.3203 41.3158 11.3383 41.3158C11.3562 41.3158 11.3709 41.3599 11.3709 41.4137C11.3709 41.4675 11.3856 41.5116 11.4035 41.5116C11.4215 41.5116 11.4362 41.5557 11.4362 41.6095C11.4362 41.6634 11.4509 41.7074 11.4688 41.7074C11.4868 41.7074 11.5015 41.7368 11.5015 41.7727C11.5015 41.8086 11.5161 41.838 11.5341 41.838C11.5521 41.838 11.5667 41.882 11.5667 41.9359C11.5667 41.9897 11.5814 42.0338 11.5994 42.0338C11.6173 42.0338 11.632 42.0778 11.632 42.1317C11.632 42.1855 11.6467 42.2296 11.6647 42.2296C11.6826 42.2296 11.6973 42.259 11.6973 42.2948C11.6973 42.3307 11.712 42.3601 11.7299 42.3601C11.7479 42.3601 11.7626 42.3979 11.7626 42.444C11.7626 42.6228 11.7503 42.6212 13.1148 42.6212C13.9324 42.6212 14.3738 42.6097 14.3738 42.5886C14.3738 42.5688 14.5152 42.5559 14.7329 42.5559C14.9505 42.5559 15.0919 42.5431 15.0919 42.5233C15.0919 42.5039 15.2116 42.4907 15.3857 42.4907C15.5597 42.4907 15.6794 42.4774 15.6794 42.458C15.6794 42.4394 15.7773 42.4254 15.9079 42.4254C16.0385 42.4254 16.1364 42.4114 16.1364 42.3928C16.1364 42.3741 16.2343 42.3601 16.3649 42.3601C16.4954 42.3601 16.5934 42.3461 16.5934 42.3275C16.5934 42.3093 16.6804 42.2948 16.7892 42.2948C16.898 42.2948 16.985 42.2804 16.985 42.2622C16.985 42.2443 17.0585 42.2296 17.1482 42.2296C17.238 42.2296 17.3114 42.2149 17.3114 42.1969C17.3114 42.179 17.3849 42.1643 17.4747 42.1643C17.5644 42.1643 17.6379 42.1496 17.6379 42.1317C17.6379 42.1137 17.7113 42.099 17.8011 42.099C17.8908 42.099 17.9643 42.0844 17.9643 42.0664C17.9643 42.0485 18.023 42.0338 18.0948 42.0338C18.1666 42.0338 18.2254 42.0191 18.2254 42.0011C18.2254 41.9832 18.2841 41.9685 18.3559 41.9685C18.4277 41.9685 18.4865 41.9538 18.4865 41.9359C18.4865 41.9179 18.5453 41.9032 18.6171 41.9032C18.6889 41.9032 18.7476 41.8885 18.7476 41.8706C18.7476 41.8526 18.8064 41.838 18.8782 41.838C18.95 41.838 19.0087 41.8233 19.0087 41.8053C19.0087 41.7874 19.0675 41.7727 19.1393 41.7727C19.2111 41.7727 19.2699 41.758 19.2699 41.7401C19.2699 41.7221 19.3139 41.7074 19.3678 41.7074C19.4216 41.7074 19.4657 41.6927 19.4657 41.6748C19.4657 41.6568 19.5245 41.6421 19.5963 41.6421C19.6681 41.6421 19.7268 41.6275 19.7268 41.6095C19.7268 41.5916 19.7709 41.5769 19.8248 41.5769C19.8786 41.5769 19.9227 41.5622 19.9227 41.5442C19.9227 41.5263 19.9667 41.5116 20.0206 41.5116C20.0745 41.5116 20.1185 41.4969 20.1185 41.479C20.1185 41.461 20.1626 41.4463 20.2164 41.4463C20.2703 41.4463 20.3144 41.4317 20.3144 41.4137C20.3144 41.3958 20.3584 41.3811 20.4123 41.3811C20.4661 41.3811 20.5102 41.3664 20.5102 41.3484C20.5102 41.3305 20.5543 41.3158 20.6081 41.3158C20.662 41.3158 20.706 41.3011 20.706 41.2832C20.706 41.2652 20.7501 41.2505 20.804 41.2505C20.8578 41.2505 20.9019 41.2358 20.9019 41.2179C20.9019 41.1999 20.946 41.1853 20.9998 41.1853C21.0537 41.1853 21.0977 41.1706 21.0977 41.1526C21.0977 41.1347 21.1418 41.12 21.1957 41.12C21.2495 41.12 21.2936 41.1053 21.2936 41.0873C21.2936 41.0694 21.323 41.0547 21.3589 41.0547C21.3948 41.0547 21.4241 41.04 21.4241 41.0221C21.4241 41.0041 21.4682 40.9894 21.5221 40.9894C21.5759 40.9894 21.62 40.9748 21.62 40.9568C21.62 40.9389 21.664 40.9242 21.7179 40.9242C21.7718 40.9242 21.8158 40.9095 21.8158 40.8915C21.8158 40.8736 21.8452 40.8589 21.8811 40.8589C21.917 40.8589 21.9464 40.8442 21.9464 40.8263C21.9464 40.8083 21.9841 40.7936 22.0303 40.7936C22.1672 40.7936 22.2075 40.7237 22.2075 40.4859C22.2075 40.3647 22.2217 40.2715 22.2401 40.2715C22.2592 40.2715 22.2728 40.1627 22.2728 40.0104C22.2728 39.8581 22.2864 39.7493 22.3054 39.7493C22.3245 39.7493 22.3381 39.6405 22.3381 39.4882C22.3381 39.3359 22.3517 39.2271 22.3707 39.2271C22.3887 39.2271 22.4033 39.1754 22.4033 39.1121C22.4033 39.0193 22.3751 38.9687 22.2573 38.851C22.177 38.7707 22.0957 38.705 22.0767 38.705C22.0308 38.705 21.8158 38.4887 21.8158 38.4424C21.8158 38.4225 21.7571 38.3497 21.6853 38.2807C21.6135 38.2117 21.5547 38.1354 21.5547 38.111C21.5547 38.0866 21.5253 38.0455 21.4894 38.0196C21.4535 37.9938 21.4241 37.9465 21.4241 37.9145C21.4241 37.8826 21.4094 37.8565 21.3915 37.8565C21.3735 37.8565 21.3589 37.8271 21.3589 37.7912C21.3589 37.7553 21.3442 37.7259 21.3262 37.7259C21.3083 37.7259 21.2936 37.6966 21.2936 37.6607C21.2936 37.6248 21.2789 37.5954 21.2609 37.5954C21.243 37.5954 21.2283 37.566 21.2283 37.5301C21.2283 37.4942 21.2136 37.4648 21.1957 37.4648C21.1777 37.4648 21.163 37.4208 21.163 37.3669C21.163 37.3131 21.1483 37.269 21.1304 37.269C21.1124 37.269 21.0977 37.2103 21.0977 37.1385C21.0977 37.0667 21.083 37.008 21.0651 37.008C21.0471 37.008 21.0325 36.9345 21.0325 36.8448C21.0325 36.755 21.0178 36.6816 20.9998 36.6816C20.9797 36.6816 20.9672 36.5184 20.9672 36.2573C20.9672 35.9963 20.9797 35.8331 20.9998 35.8331C21.0178 35.8331 21.0325 35.7597 21.0325 35.6699C21.0325 35.5802 21.0471 35.5067 21.0651 35.5067C21.083 35.5067 21.0977 35.448 21.0977 35.3762C21.0977 35.3044 21.1124 35.2457 21.1304 35.2457C21.1483 35.2457 21.163 35.2016 21.163 35.1478C21.163 35.0939 21.1777 35.0498 21.1957 35.0498C21.2136 35.0498 21.2283 35.0205 21.2283 34.9846C21.2283 34.9487 21.243 34.9193 21.2609 34.9193C21.2789 34.9193 21.2936 34.8899 21.2936 34.854C21.2936 34.8181 21.3083 34.7888 21.3262 34.7888C21.3442 34.7888 21.3589 34.7594 21.3589 34.7235C21.3589 34.6876 21.3735 34.6582 21.3915 34.6582C21.4094 34.6582 21.4241 34.6321 21.4241 34.6002C21.4241 34.5682 21.4535 34.5209 21.4894 34.495C21.5253 34.4692 21.5547 34.4278 21.5547 34.403C21.5547 34.3783 21.5988 34.3169 21.6526 34.2666C21.7065 34.2163 21.7505 34.1587 21.7505 34.1386C21.7505 34.0909 22.0971 33.7444 22.1447 33.7444C22.1648 33.7444 22.2225 33.7004 22.2728 33.6465C22.3231 33.5927 22.3845 33.5486 22.4092 33.5486C22.434 33.5486 22.4754 33.5193 22.5013 33.4834C22.5272 33.4475 22.5745 33.4181 22.6064 33.4181C22.6383 33.4181 22.6645 33.4034 22.6645 33.3855C22.6645 33.3675 22.6938 33.3528 22.7298 33.3528C22.7657 33.3528 22.795 33.3381 22.795 33.3202C22.795 33.3022 22.8244 33.2875 22.8603 33.2875C22.8962 33.2875 22.9256 33.2729 22.9256 33.2549C22.9256 33.237 22.955 33.2223 22.9909 33.2223C23.0268 33.2223 23.0562 33.2076 23.0562 33.1896C23.0562 33.1717 23.1002 33.157 23.1541 33.157C23.2079 33.157 23.252 33.1423 23.252 33.1244C23.252 33.1064 23.2961 33.0917 23.3499 33.0917C23.4038 33.0917 23.4478 33.0771 23.4478 33.0591C23.4478 33.0412 23.5213 33.0265 23.611 33.0265C23.7008 33.0265 23.7742 33.0118 23.7742 32.9938C23.7742 32.9735 23.9592 32.9612 24.2639 32.9612C24.5685 32.9612 24.7535 32.9735 24.7535 32.9938C24.7535 33.0118 24.8269 33.0265 24.9167 33.0265C25.0064 33.0265 25.0799 33.0412 25.0799 33.0591C25.0799 33.0771 25.1239 33.0917 25.1778 33.0917C25.2316 33.0917 25.2757 33.1064 25.2757 33.1244C25.2757 33.1423 25.3198 33.157 25.3736 33.157C25.4275 33.157 25.4715 33.1717 25.4715 33.1896C25.4715 33.2076 25.5009 33.2223 25.5368 33.2223C25.5727 33.2223 25.6021 33.237 25.6021 33.2549C25.6021 33.2729 25.6315 33.2875 25.6674 33.2875C25.7033 33.2875 25.7327 33.3022 25.7327 33.3202C25.7327 33.3381 25.762 33.3528 25.798 33.3528C25.8339 33.3528 25.8632 33.3675 25.8632 33.3855C25.8632 33.4034 25.8894 33.4181 25.9213 33.4181C25.9533 33.4181 26.0005 33.4475 26.0264 33.4834C26.0523 33.5193 26.0937 33.5486 26.1185 33.5486C26.1432 33.5486 26.2046 33.5927 26.2549 33.6465C26.3052 33.7004 26.3629 33.7444 26.383 33.7444C26.4306 33.7444 26.7772 34.0909 26.7772 34.1386C26.7772 34.1587 26.8212 34.2163 26.8751 34.2666C26.9289 34.3169 26.973 34.3783 26.973 34.403C26.973 34.4278 27.0024 34.4692 27.0383 34.495C27.0742 34.5209 27.1036 34.5682 27.1036 34.6002C27.1036 34.6321 27.1183 34.6582 27.1362 34.6582C27.1542 34.6582 27.1688 34.6876 27.1688 34.7235C27.1688 34.7594 27.1835 34.7888 27.2015 34.7888C27.2194 34.7888 27.2341 34.8181 27.2341 34.854C27.2341 34.8899 27.2488 34.9193 27.2668 34.9193C27.2847 34.9193 27.2994 34.9487 27.2994 34.9846C27.2994 35.0205 27.3141 35.0498 27.332 35.0498C27.35 35.0498 27.3647 35.0939 27.3647 35.1478C27.3647 35.2016 27.3794 35.2457 27.3973 35.2457C27.4153 35.2457 27.43 35.3044 27.43 35.3762C27.43 35.448 27.4447 35.5067 27.4626 35.5067C27.4806 35.5067 27.4953 35.5802 27.4953 35.6699C27.4953 35.7597 27.5099 35.8331 27.5279 35.8331C27.5478 35.8331 27.5605 35.9854 27.5605 36.2247C27.5605 36.464 27.5478 36.6163 27.5279 36.6163C27.5097 36.6163 27.4953 36.7034 27.4953 36.8121C27.4953 36.9209 27.4808 37.008 27.4626 37.008C27.4447 37.008 27.43 37.052 27.43 37.1059C27.43 37.1597 27.4153 37.2038 27.3973 37.2038C27.3794 37.2038 27.3647 37.2478 27.3647 37.3017C27.3647 37.3555 27.35 37.3996 27.332 37.3996C27.3141 37.3996 27.2994 37.4436 27.2994 37.4975C27.2994 37.5513 27.2847 37.5954 27.2668 37.5954C27.2488 37.5954 27.2341 37.6248 27.2341 37.6607C27.2341 37.6966 27.2194 37.7259 27.2015 37.7259C27.1835 37.7259 27.1688 37.7553 27.1688 37.7912C27.1688 37.8271 27.1542 37.8565 27.1362 37.8565C27.1183 37.8565 27.1036 37.8858 27.1036 37.9217C27.1036 37.9576 27.115 37.987 27.129 37.987C27.143 37.987 27.1756 37.9576 27.2015 37.9217C27.2274 37.8858 27.2685 37.8565 27.2928 37.8565C27.3172 37.8565 27.3936 37.7977 27.4626 37.7259C27.5316 37.6541 27.6053 37.5954 27.6265 37.5954C27.6476 37.5954 27.7061 37.5513 27.7564 37.4975C27.8067 37.4436 27.8649 37.3996 27.8858 37.3996C27.9067 37.3996 27.9953 37.3261 28.0828 37.2364C28.1702 37.1467 28.2581 37.0732 28.2781 37.0732C28.2981 37.0732 28.4158 36.9704 28.5397 36.8448C28.6637 36.7191 28.7806 36.6163 28.7995 36.6163C28.8446 36.6163 30.1718 35.2892 30.1718 35.2441C30.1718 35.225 30.2599 35.1229 30.3676 35.0172C30.4753 34.9115 30.5634 34.8086 30.5634 34.7884C30.5634 34.7683 30.6369 34.6804 30.7267 34.593C30.8164 34.5055 30.8899 34.4169 30.8899 34.396C30.8899 34.3751 30.9339 34.3169 30.9878 34.2666C31.0416 34.2163 31.0857 34.1576 31.0857 34.1361C31.0857 34.1146 31.1298 34.0558 31.1836 34.0055C31.2375 33.9552 31.2815 33.8965 31.2815 33.875C31.2815 33.8535 31.3256 33.7947 31.3795 33.7444C31.4333 33.6941 31.4774 33.6327 31.4774 33.608C31.4774 33.5833 31.5068 33.5419 31.5427 33.516C31.5786 33.4901 31.6079 33.4461 31.6079 33.4181C31.6079 33.3901 31.6373 33.3461 31.6732 33.3202C31.7091 33.2943 31.7385 33.2502 31.7385 33.2223C31.7385 33.1943 31.7679 33.1503 31.8038 33.1244C31.8397 33.0985 31.8691 33.0544 31.8691 33.0265C31.8691 32.9985 31.8984 32.9544 31.9343 32.9286C31.9702 32.9027 31.9996 32.8554 31.9996 32.8234C31.9996 32.7915 32.0143 32.7654 32.0323 32.7654C32.0502 32.7654 32.0649 32.7392 32.0649 32.7073C32.0649 32.6754 32.0943 32.6281 32.1302 32.6022C32.1661 32.5763 32.1955 32.529 32.1955 32.4971C32.1955 32.4652 32.2102 32.439 32.2281 32.439C32.2461 32.439 32.2607 32.4097 32.2607 32.3738C32.2607 32.3379 32.2754 32.3085 32.2934 32.3085C32.3113 32.3085 32.326 32.2791 32.326 32.2432C32.326 32.2073 32.3407 32.178 32.3587 32.178C32.3766 32.178 32.3913 32.1518 32.3913 32.1199C32.3913 32.0879 32.4207 32.0407 32.4566 32.0148C32.4925 31.9889 32.5219 31.9416 32.5219 31.9097C32.5219 31.8777 32.5366 31.8516 32.5545 31.8516C32.5725 31.8516 32.5872 31.8222 32.5872 31.7863C32.5872 31.7504 32.6018 31.7211 32.6198 31.7211C32.6377 31.7211 32.6524 31.6917 32.6524 31.6558C32.6524 31.6199 32.6671 31.5905 32.6851 31.5905C32.703 31.5905 32.7177 31.5612 32.7177 31.5253C32.7177 31.4894 32.7324 31.46 32.7504 31.46C32.7683 31.46 32.783 31.4306 32.783 31.3947C32.783 31.3588 32.7977 31.3294 32.8156 31.3294C32.8336 31.3294 32.8483 31.2854 32.8483 31.2315C32.8483 31.1777 32.863 31.1336 32.8809 31.1336C32.8989 31.1336 32.9136 31.1043 32.9136 31.0684C32.9136 31.0325 32.9282 31.0031 32.9462 31.0031C32.9641 31.0031 32.9788 30.9737 32.9788 30.9378C32.9788 30.9019 32.9935 30.8725 33.0115 30.8725C33.0294 30.8725 33.0441 30.8285 33.0441 30.7746C33.0441 30.7208 33.0588 30.6767 33.0768 30.6767C33.0947 30.6767 33.1094 30.6474 33.1094 30.6115C33.1094 30.5756 33.1241 30.5462 33.142 30.5462C33.16 30.5462 33.1747 30.5021 33.1747 30.4483C33.1747 30.3944 33.1894 30.3504 33.2073 30.3504C33.2253 30.3504 33.24 30.3063 33.24 30.2525C33.24 30.1986 33.2546 30.1546 33.2726 30.1546C33.2906 30.1546 33.3052 30.1105 33.3052 30.0567C33.3052 30.0028 33.3199 29.9588 33.3379 29.9588C33.3558 29.9588 33.3705 29.9147 33.3705 29.8609C33.3705 29.807 33.3852 29.763 33.4032 29.763C33.4211 29.763 33.4358 29.7189 33.4358 29.665C33.4358 29.6112 33.4505 29.5671 33.4684 29.5671C33.4864 29.5671 33.5011 29.5084 33.5011 29.4366C33.5011 29.3648 33.5158 29.3061 33.5337 29.3061C33.5517 29.3061 33.5664 29.262 33.5664 29.2082C33.5664 29.1543 33.5811 29.1103 33.599 29.1103C33.617 29.1103 33.6316 29.0368 33.6316 28.9471C33.6316 28.8573 33.6463 28.7839 33.6643 28.7839C33.6822 28.7839 33.6969 28.7105 33.6969 28.6207C33.6969 28.531 33.7116 28.4575 33.7296 28.4575C33.7477 28.4575 33.7622 28.3705 33.7622 28.2617C33.7622 28.153 33.7767 28.0659 33.7948 28.0659C33.8128 28.0659 33.8275 28.0366 33.8275 28.0007C33.8275 27.9441 33.8057 27.9354 33.6643 27.9354C33.5745 27.9354 33.5011 27.9501 33.5011 27.968C33.5011 27.986 33.4276 28.0007 33.3379 28.0007C33.2481 28.0007 33.1747 28.0153 33.1747 28.0333C33.1747 28.0514 33.0876 28.0659 32.9788 28.0659C32.87 28.0659 32.783 28.0804 32.783 28.0986C32.783 28.1196 32.4457 28.1312 31.8364 28.1312C31.2271 28.1312 30.8899 28.1196 30.8899 28.0986C30.8899 28.0804 30.8028 28.0659 30.694 28.0659C30.5852 28.0659 30.4982 28.0514 30.4982 28.0333C30.4982 28.0153 30.4247 28.0007 30.335 28.0007C30.2452 28.0007 30.1718 27.986 30.1718 27.968C30.1718 27.9501 30.113 27.9354 30.0412 27.9354C29.9694 27.9354 29.9106 27.9207 29.9106 27.9028C29.9106 27.8848 29.8519 27.8701 29.7801 27.8701C29.7083 27.8701 29.6495 27.8554 29.6495 27.8375C29.6495 27.8195 29.6055 27.8048 29.5516 27.8048C29.4977 27.8048 29.4537 27.7902 29.4537 27.7722C29.4537 27.7543 29.4096 27.7396 29.3558 27.7396C29.3019 27.7396 29.2578 27.7249 29.2578 27.7069C29.2578 27.689 29.2138 27.6743 29.1599 27.6743C29.1061 27.6743 29.062 27.6596 29.062 27.6417C29.062 27.6237 29.0326 27.609 28.9967 27.609C28.9608 27.609 28.9314 27.5943 28.9314 27.5764C28.9314 27.5584 28.8874 27.5438 28.8335 27.5438C28.7796 27.5438 28.7356 27.5291 28.7356 27.5111C28.7356 27.4932 28.7062 27.4785 28.6703 27.4785C28.6344 27.4785 28.605 27.4638 28.605 27.4459C28.605 27.4279 28.5756 27.4132 28.5397 27.4132C28.5038 27.4132 28.4745 27.3985 28.4745 27.3806C28.4745 27.3626 28.4451 27.348 28.4092 27.348C28.3733 27.348 28.3439 27.3333 28.3439 27.3153C28.3439 27.2974 28.3145 27.2827 28.2786 27.2827C28.2427 27.2827 28.2133 27.268 28.2133 27.25C28.2133 27.2321 28.184 27.2174 28.1481 27.2174C28.1122 27.2174 28.0828 27.2027 28.0828 27.1848C28.0828 27.1668 28.0534 27.1521 28.0175 27.1521C27.9816 27.1521 27.9522 27.1375 27.9522 27.1195C27.9522 27.1016 27.9261 27.0869 27.8941 27.0869C27.8622 27.0869 27.8149 27.0575 27.789 27.0216C27.7631 26.9857 27.7191 26.9563 27.6911 26.9563C27.6631 26.9563 27.6191 26.927 27.5932 26.8911C27.5673 26.8552 27.5232 26.8258 27.4953 26.8258C27.4673 26.8258 27.4232 26.7964 27.3973 26.7605C27.3714 26.7246 27.33 26.6953 27.3053 26.6953C27.2806 26.6953 27.2191 26.6512 27.1688 26.5973C27.1185 26.5435 27.0598 26.4994 27.0383 26.4994C27.0168 26.4994 26.958 26.4554 26.9077 26.4015C26.8574 26.3477 26.8 26.3036 26.7802 26.3036C26.7336 26.3036 25.6021 25.1732 25.6021 25.1267C25.6021 25.1073 25.5811 25.0705 25.5555 25.0449C25.5166 25.006 25.3005 24.9985 24.258 25.0002L23.0072 25.0022L22.9338 25.0806Z" fill="#F0F3FF"/>
</g>
<defs>
<filter id="filter0_dd" x="29.0107" y="0.265625" width="158.989" height="85.5422" filterUnits="userSpaceOnUse" color-interpolation-filters="sRGB">
<feFlood flood-opacity="0" result="BackgroundImageFix"/>
<feColorMatrix in="SourceAlpha" type="matrix" values="0 0 0 0 0 0 0 0 0 0 0 0 0 0 0 0 0 0 127 0"/>
<feOffset dy="-12"/>
<feGaussianBlur stdDeviation="9"/>
<feColorMatrix type="matrix" values="0 0 0 0 0.313726 0 0 0 0 0.345098 0 0 0 0 0.498039 0 0 0 0.8 0"/>
<feBlend mode="normal" in2="BackgroundImageFix" result="effect1_dropShadow"/>
<feColorMatrix in="SourceAlpha" type="matrix" values="0 0 0 0 0 0 0 0 0 0 0 0 0 0 0 0 0 0 127 0"/>
<feOffset dy="16"/>
<feGaussianBlur stdDeviation="8"/>
<feColorMatrix type="matrix" values="0 0 0 0 0.13875 0 0 0 0 0.168501 0 0 0 0 0.308333 0 0 0 0.24 0"/>
<feBlend mode="normal" in2="effect1_dropShadow" result="effect2_dropShadow"/>
<feBlend mode="normal" in="SourceGraphic" in2="effect2_dropShadow" result="shape"/>
</filter>
<filter id="filter1_dd" x="3.83755" y="12.6304" width="43.3333" height="60.2659" filterUnits="userSpaceOnUse" color-interpolation-filters="sRGB">
<feFlood flood-opacity="0" result="BackgroundImageFix"/>
<feColorMatrix in="SourceAlpha" type="matrix" values="0 0 0 0 0 0 0 0 0 0 0 0 0 0 0 0 0 0 127 0"/>
<feOffset dy="-6.53131"/>
<feGaussianBlur stdDeviation="4.35421"/>
<feColorMatrix type="matrix" values="0 0 0 0 0.40625 0 0 0 0 0.8125 0 0 0 0 0.304688 0 0 0 0.2 0"/>
<feBlend mode="normal" in2="BackgroundImageFix" result="effect1_dropShadow"/>
<feColorMatrix in="SourceAlpha" type="matrix" values="0 0 0 0 0 0 0 0 0 0 0 0 0 0 0 0 0 0 127 0"/>
<feOffset dy="8.70841"/>
<feGaussianBlur stdDeviation="4.35421"/>
<feColorMatrix type="matrix" values="0 0 0 0 0.13875 0 0 0 0 0.168501 0 0 0 0 0.308333 0 0 0 0.24 0"/>
<feBlend mode="normal" in2="effect1_dropShadow" result="effect2_dropShadow"/>
<feBlend mode="normal" in="SourceGraphic" in2="effect2_dropShadow" result="shape"/>
</filter>
<filter id="filter2_dd" x="0.203033" y="8.67172" width="43.4214" height="51.3663" filterUnits="userSpaceOnUse" color-interpolation-filters="sRGB">
<feFlood flood-opacity="0" result="BackgroundImageFix"/>
<feColorMatrix in="SourceAlpha" type="matrix" values="0 0 0 0 0 0 0 0 0 0 0 0 0 0 0 0 0 0 127 0"/>
<feOffset dy="-6.53131"/>
<feGaussianBlur stdDeviation="4.89848"/>
<feColorMatrix type="matrix" values="0 0 0 0 0.313726 0 0 0 0 0.345098 0 0 0 0 0.498039 0 0 0 0.8 0"/>
<feBlend mode="normal" in2="BackgroundImageFix" result="effect1_dropShadow"/>
<feColorMatrix in="SourceAlpha" type="matrix" values="0 0 0 0 0 0 0 0 0 0 0 0 0 0 0 0 0 0 127 0"/>
<feOffset dy="8.70841"/>
<feGaussianBlur stdDeviation="4.35421"/>
<feColorMatrix type="matrix" values="0 0 0 0 0.13875 0 0 0 0 0.168501 0 0 0 0 0.308333 0 0 0 0.24 0"/>
<feBlend mode="normal" in2="effect1_dropShadow" result="effect2_dropShadow"/>
<feBlend mode="normal" in="SourceGraphic" in2="effect2_dropShadow" result="shape"/>
</filter>
</defs>
</svg>
