<svg width="189" height="107" viewBox="0 0 189 107" fill="none" xmlns="http://www.w3.org/2000/svg">
<g filter="url(#filter0_dd)">
<path fill-rule="evenodd" clip-rule="evenodd" d="M50.0971 36.1822L35.9251 28L16 39.5038V62.5113L16.5162 62.8093L31.5194 41.9512H39.3518L38.8622 42.6318V51.8013L50.0971 36.1822ZM55.6312 39.3773L40.5756 60.3083H38.8622V60.3084H32.4985V51.479L22.0503 66.0044L35.9251 74.015L55.8502 62.5113V39.5038L55.6312 39.3773Z" fill="#1BB9DC"/>
</g>
<g filter="url(#filter1_dd)">
<path d="M79.6723 43.9648V58.7903H76.8555L69.4639 49.7891V58.7903H66.0752V43.9648H68.9133L76.2837 52.966V43.9648H79.6723ZM93.4943 56.037V58.7903H82.0151V43.9648H93.219V46.7181H85.425V49.9373H92.3083V52.6059H85.425V56.037H93.4943ZM117.26 43.9648L112.41 58.7903H108.725L105.463 48.7513L102.096 58.7903H98.4319L93.5607 43.9648H97.1188L100.465 54.385L103.96 43.9648H107.137L110.525 54.4697L113.978 43.9648H117.26ZM122.882 59.0444C121.71 59.0444 120.574 58.8891 119.472 58.5785C118.385 58.2537 117.51 57.8372 116.846 57.3289L118.011 54.745C118.646 55.211 119.402 55.5851 120.277 55.8675C121.152 56.1499 122.028 56.2911 122.903 56.2911C123.878 56.2911 124.598 56.1499 125.064 55.8675C125.529 55.571 125.762 55.1827 125.762 54.7027C125.762 54.3497 125.621 54.0602 125.339 53.8343C125.071 53.5943 124.718 53.4037 124.28 53.2625C123.856 53.1213 123.277 52.966 122.543 52.7965C121.414 52.5283 120.489 52.26 119.769 51.9917C119.049 51.7235 118.427 51.2928 117.905 50.6998C117.397 50.1068 117.142 49.3161 117.142 48.3277C117.142 47.4664 117.375 46.6898 117.841 45.998C118.307 45.292 119.006 44.7343 119.938 44.3248C120.884 43.9154 122.035 43.7106 123.39 43.7106C124.336 43.7106 125.261 43.8236 126.165 44.0495C127.069 44.2754 127.859 44.6002 128.537 45.0237L127.478 47.6288C126.108 46.8522 124.739 46.4639 123.369 46.4639C122.409 46.4639 121.696 46.6192 121.23 46.9299C120.778 47.2405 120.552 47.65 120.552 48.1583C120.552 48.6666 120.814 49.0478 121.336 49.302C121.873 49.542 122.684 49.782 123.772 50.0221C124.901 50.2903 125.826 50.5586 126.546 50.8269C127.266 51.0951 127.88 51.5187 128.389 52.0976C128.911 52.6765 129.172 53.4602 129.172 54.4485C129.172 55.2957 128.932 56.0723 128.452 56.7782C127.986 57.4701 127.28 58.0208 126.334 58.4302C125.388 58.8397 124.238 59.0444 122.882 59.0444ZM141.238 51.081C142.085 51.3493 142.749 51.8011 143.229 52.4365C143.709 53.0578 143.949 53.8273 143.949 54.745C143.949 56.044 143.441 57.0465 142.424 57.7525C141.422 58.4444 139.953 58.7903 138.019 58.7903H130.352V43.9648H137.595C139.403 43.9648 140.786 44.3107 141.746 45.0026C142.721 45.6944 143.208 46.6334 143.208 47.8194C143.208 48.5395 143.031 49.1819 142.678 49.7467C142.339 50.3115 141.859 50.7563 141.238 51.081ZM133.762 46.5486V50.0432H137.172C138.019 50.0432 138.661 49.895 139.099 49.5985C139.537 49.302 139.756 48.8643 139.756 48.2854C139.756 47.7065 139.537 47.2758 139.099 46.9934C138.661 46.6969 138.019 46.5486 137.172 46.5486H133.762ZM137.765 56.2064C138.668 56.2064 139.346 56.0582 139.798 55.7616C140.264 55.4651 140.497 55.0062 140.497 54.385C140.497 53.1566 139.586 52.5424 137.765 52.5424H133.762V56.2064H137.765ZM148.246 46.7604H143.502V43.9648H156.421V46.7604H151.677V58.7903H148.246V46.7604ZM163.991 59.0444C162.48 59.0444 161.11 58.7197 159.882 58.0702C158.668 57.4066 157.707 56.4959 157.001 55.3381C156.31 54.1661 155.964 52.846 155.964 51.3775C155.964 49.9091 156.31 48.596 157.001 47.4382C157.707 46.2663 158.668 45.3555 159.882 44.706C161.11 44.0424 162.487 43.7106 164.012 43.7106C165.297 43.7106 166.454 43.9365 167.485 44.3884C168.53 44.8402 169.405 45.4897 170.111 46.3369L167.909 48.3701C166.906 47.2123 165.664 46.6334 164.181 46.6334C163.263 46.6334 162.445 46.8381 161.724 47.2476C161.004 47.6429 160.44 48.2006 160.03 48.9207C159.635 49.6408 159.437 50.4598 159.437 51.3775C159.437 52.2953 159.635 53.1142 160.03 53.8343C160.44 54.5544 161.004 55.1192 161.724 55.5287C162.445 55.924 163.263 56.1217 164.181 56.1217C165.664 56.1217 166.906 55.5357 167.909 54.3638L170.111 56.397C169.405 57.2583 168.53 57.9149 167.485 58.3667C166.44 58.8185 165.275 59.0444 163.991 59.0444Z" fill="#F0F3FF"/>
</g>
<defs>
<filter id="filter0_dd" x="0" y="0" width="71.8502" height="106.015" filterUnits="userSpaceOnUse" color-interpolation-filters="sRGB">
<feFlood flood-opacity="0" result="BackgroundImageFix"/>
<feColorMatrix in="SourceAlpha" type="matrix" values="0 0 0 0 0 0 0 0 0 0 0 0 0 0 0 0 0 0 127 0"/>
<feOffset dy="-12"/>
<feGaussianBlur stdDeviation="8"/>
<feColorMatrix type="matrix" values="0 0 0 0 0.0707465 0 0 0 0 0.642662 0 0 0 0 0.679167 0 0 0 0.2 0"/>
<feBlend mode="normal" in2="BackgroundImageFix" result="effect1_dropShadow"/>
<feColorMatrix in="SourceAlpha" type="matrix" values="0 0 0 0 0 0 0 0 0 0 0 0 0 0 0 0 0 0 127 0"/>
<feOffset dy="16"/>
<feGaussianBlur stdDeviation="8"/>
<feColorMatrix type="matrix" values="0 0 0 0 0.13875 0 0 0 0 0.168501 0 0 0 0 0.308333 0 0 0 0.24 0"/>
<feBlend mode="normal" in2="effect1_dropShadow" result="effect2_dropShadow"/>
<feBlend mode="normal" in="SourceGraphic" in2="effect2_dropShadow" result="shape"/>
</filter>
<filter id="filter1_dd" x="48.0752" y="13.7107" width="140.036" height="77.3338" filterUnits="userSpaceOnUse" color-interpolation-filters="sRGB">
<feFlood flood-opacity="0" result="BackgroundImageFix"/>
<feColorMatrix in="SourceAlpha" type="matrix" values="0 0 0 0 0 0 0 0 0 0 0 0 0 0 0 0 0 0 127 0"/>
<feOffset dy="-12"/>
<feGaussianBlur stdDeviation="9"/>
<feColorMatrix type="matrix" values="0 0 0 0 0.313726 0 0 0 0 0.345098 0 0 0 0 0.498039 0 0 0 0.8 0"/>
<feBlend mode="normal" in2="BackgroundImageFix" result="effect1_dropShadow"/>
<feColorMatrix in="SourceAlpha" type="matrix" values="0 0 0 0 0 0 0 0 0 0 0 0 0 0 0 0 0 0 127 0"/>
<feOffset dy="16"/>
<feGaussianBlur stdDeviation="8"/>
<feColorMatrix type="matrix" values="0 0 0 0 0.13875 0 0 0 0 0.168501 0 0 0 0 0.308333 0 0 0 0.24 0"/>
<feBlend mode="normal" in2="effect1_dropShadow" result="effect2_dropShadow"/>
<feBlend mode="normal" in="SourceGraphic" in2="effect2_dropShadow" result="shape"/>
</filter>
</defs>
</svg>
