<svg width="188" height="92" viewBox="0 0 188 92" fill="none" xmlns="http://www.w3.org/2000/svg">
<g filter="url(#filter0_dd)">
<path fill-rule="evenodd" clip-rule="evenodd" d="M18 30H24.538C28.1344 30 29.4412 30.3279 31.0761 32.2976C32.0564 33.2828 32.3829 34.5959 32.3829 35.9082C32.3829 37.55 31.7291 38.8632 29.7677 39.8476C33.364 41.1599 33.364 44.1148 33.364 45.0993C33.364 46.7402 32.7102 48.7107 31.4026 49.6944C29.4412 51.3362 28.4609 51.6649 24.8653 51.6649H18V30ZM23.5577 38.2066H25.1918C25.8456 38.2066 27.1533 38.2066 27.1533 36.5648C27.1533 34.9238 25.8456 34.9238 25.1918 34.9238H23.5577V38.2066ZM23.5577 46.7411H25.8456C26.4994 46.7411 28.1344 46.7411 28.1344 44.7714C28.1344 42.8017 26.4994 42.8017 25.8456 42.8017H23.5577V46.7411ZM34.6708 30H39.5739V51.6657H34.6708V30ZM49.7074 34.9238C55.5917 34.9238 58.2061 39.5197 58.2061 43.4583C58.2061 47.3968 55.5917 52.3214 49.7074 52.3214C43.8232 52.3214 40.8815 47.3968 40.8815 43.4583C40.8815 39.5197 43.824 34.9238 49.7074 34.9238ZM49.7074 47.7255C51.6689 47.7255 53.303 46.0845 53.303 43.4583C53.303 41.1599 51.6689 39.5197 49.7074 39.5197C47.4187 39.5197 45.7854 41.1607 45.7854 43.4583C45.7854 46.0845 47.4195 47.7255 49.7074 47.7255ZM68.0131 34.9238C73.8974 34.9238 76.8391 39.5197 76.8391 43.4583C76.8391 47.3968 73.8974 52.3214 68.0131 52.3214C62.1289 52.3214 59.1872 47.3968 59.1872 43.4583C59.1872 39.5197 62.1289 34.9238 68.0131 34.9238ZM68.0131 47.7255C69.9745 47.7255 71.9351 46.0845 71.9351 43.4583C71.9351 41.1599 69.9737 39.5197 68.0131 39.5197C66.0525 39.5197 64.0911 41.1607 64.0911 43.4583C64.0903 46.0845 66.0517 47.7255 68.0131 47.7255ZM77.8194 35.5795H82.396V37.2213C82.7225 36.5648 84.0301 34.923 86.9726 34.923C88.2802 34.923 90.2416 35.5795 91.5492 37.8771C92.5295 36.2361 94.1637 34.923 96.7797 34.923C97.7592 34.923 99.7214 35.2508 101.029 36.564C102.336 38.2058 102.662 39.1902 102.662 42.8009V51.664H97.76V43.1304C97.76 41.8173 97.76 39.5197 95.4713 39.5197C92.5295 39.5197 92.5295 41.8173 92.5295 42.8025V51.6657H87.9529V42.8025C87.9529 42.146 87.9529 39.5197 85.3385 39.5197C82.7233 39.5197 82.7233 42.1451 82.7233 43.1304V51.6657H77.8202V35.5795H77.8194ZM104.624 30H109.526V36.8935C111.161 34.9238 113.449 34.9238 114.103 34.9238C117.698 34.9238 122.275 37.2222 122.275 43.4583C122.275 49.3673 118.025 52.3214 114.103 52.3214C111.814 52.3214 110.18 51.0091 109.526 50.0231H109.2V51.6649H104.624V30ZM113.45 47.7255C115.738 47.7255 117.371 45.7558 117.371 43.4583C117.371 41.4886 115.738 39.5197 113.45 39.5197C110.834 39.5197 109.527 41.4894 109.527 43.4583C109.526 45.7566 110.834 47.7255 113.45 47.7255ZM140.253 46.7411C139.274 48.3821 138.293 49.6952 136.985 50.6804C135.35 51.6657 134.043 52.3222 132.081 52.3222C127.506 52.3222 123.582 48.3829 123.582 43.4591C123.582 39.1918 127.178 34.9246 132.081 34.9246C136.985 34.9246 140.58 38.864 140.58 43.7878V45.1009H128.485C128.813 47.0706 130.448 48.0558 132.081 48.0558C133.716 48.0558 134.37 47.3976 135.023 46.7419H140.253V46.7411ZM136.004 41.8173C135.678 40.832 134.697 38.8632 132.081 38.8632C129.794 38.8632 128.813 40.8328 128.485 41.8173H136.004ZM142.541 35.5795H147.118V37.2213C147.771 36.8935 149.732 35.2517 151.694 35.5795V40.1755C149.732 40.1755 147.445 40.1755 147.445 42.8017V51.6649H142.541V35.5795ZM170 49.6952C170 51.9936 169.673 55.2764 169.019 56.5895C167.712 58.5583 164.77 60.5272 160.847 59.8715C155.291 59.5444 153.656 56.9173 153.328 54.2919H158.559C159.213 55.9337 160.848 55.9337 161.175 55.9337C163.789 55.9337 165.096 55.605 165.096 50.3526V50.0255C164.442 50.6821 163.135 52.3239 160.521 52.3239C156.27 52.3239 152.349 48.7132 152.349 43.7886C152.349 38.2082 156.27 34.9254 160.521 34.9254C162.482 34.9254 164.117 35.582 165.096 36.8951V35.582H170V49.6952ZM161.174 47.7255C163.463 47.7255 165.095 46.0845 165.095 43.7861C165.095 41.1599 163.462 39.5189 161.174 39.5189C159.212 39.5189 157.251 41.1599 157.251 43.4574C157.251 46.0845 159.212 47.7255 161.174 47.7255Z" fill="#F0F3FF"/>
</g>
<defs>
<filter id="filter0_dd" x="0" y="0" width="188" height="92" filterUnits="userSpaceOnUse" color-interpolation-filters="sRGB">
<feFlood flood-opacity="0" result="BackgroundImageFix"/>
<feColorMatrix in="SourceAlpha" type="matrix" values="0 0 0 0 0 0 0 0 0 0 0 0 0 0 0 0 0 0 127 0"/>
<feOffset dy="-12"/>
<feGaussianBlur stdDeviation="9"/>
<feColorMatrix type="matrix" values="0 0 0 0 0.313726 0 0 0 0 0.345098 0 0 0 0 0.498039 0 0 0 0.8 0"/>
<feBlend mode="normal" in2="BackgroundImageFix" result="effect1_dropShadow"/>
<feColorMatrix in="SourceAlpha" type="matrix" values="0 0 0 0 0 0 0 0 0 0 0 0 0 0 0 0 0 0 127 0"/>
<feOffset dy="16"/>
<feGaussianBlur stdDeviation="8"/>
<feColorMatrix type="matrix" values="0 0 0 0 0.13875 0 0 0 0 0.168501 0 0 0 0 0.308333 0 0 0 0.24 0"/>
<feBlend mode="normal" in2="effect1_dropShadow" result="effect2_dropShadow"/>
<feBlend mode="normal" in="SourceGraphic" in2="effect2_dropShadow" result="shape"/>
</filter>
</defs>
</svg>
