<svg width="195" height="88" viewBox="0 0 195 88" fill="none" xmlns="http://www.w3.org/2000/svg">
<g filter="url(#filter0_dd)">
<path d="M49.25 51.376V33.25H55.7227C57.9649 33.25 59.6655 33.6733 60.8247 34.5198C61.9839 35.3581 62.5634 36.5905 62.5634 38.2172C62.5634 39.1053 62.3308 39.8896 61.8654 40.5701C61.4001 41.2424 60.7528 41.7362 59.9236 42.0516C60.8712 42.284 61.6158 42.7529 62.1573 43.4583C62.7073 44.1638 62.9823 45.0269 62.9823 46.0478C62.9823 47.7906 62.4154 49.1103 61.2816 50.0066C60.1478 50.9029 58.5318 51.3594 56.4334 51.376H49.25ZM53.0575 43.4832V48.3758H56.3192C57.2161 48.3758 57.9141 48.1683 58.4133 47.7533C58.921 47.33 59.1748 46.7491 59.1748 46.0104C59.1748 44.3505 58.2991 43.5081 56.5476 43.4832H53.0575ZM53.0575 40.844H55.875C57.7957 40.8108 58.756 40.0597 58.756 38.5907C58.756 37.7691 58.5106 37.1798 58.0199 36.8229C57.5376 36.4577 56.7719 36.2752 55.7227 36.2752H53.0575V40.844Z" fill="#F0F3FF"/>
<path d="M68.4407 51.376H64.7601V37.906H68.4407V51.376Z" fill="#F0F3FF"/>
<path d="M74.8255 34.5945V37.906H77.1735V40.5452H74.8255V47.2678C74.8255 47.7658 74.9228 48.1226 75.1174 48.3384C75.312 48.5542 75.6843 48.6621 76.2343 48.6621C76.6404 48.6621 77 48.633 77.3131 48.5749V51.3013C76.5939 51.5171 75.8535 51.625 75.092 51.625C72.5199 51.625 71.2084 50.351 71.1577 47.8031V40.5452H69.1524V37.906H71.1577V34.5945H74.8255Z" fill="#F0F3FF"/>
<path d="M83.8883 48.7243C84.5652 48.7243 85.1152 48.5418 85.5382 48.1766C85.9613 47.8114 86.1813 47.3259 86.1982 46.72H89.6376C89.6291 47.633 89.3753 48.4712 88.8761 49.2348C88.3769 49.99 87.6916 50.5793 86.8201 51.0025C85.957 51.4175 85.0009 51.625 83.9518 51.625C81.9888 51.625 80.4404 51.015 79.3067 49.795C78.1729 48.5667 77.606 46.8736 77.606 44.7157V44.4792C77.606 42.4043 78.1687 40.7486 79.294 39.5119C80.4193 38.2753 81.9634 37.657 83.9264 37.657C85.644 37.657 87.0189 38.1384 88.0511 39.1011C89.0919 40.0556 89.6207 41.3295 89.6376 42.923H86.1982C86.1813 42.2259 85.9613 41.6615 85.5382 41.2299C85.1152 40.7901 84.5567 40.5701 83.8629 40.5701C83.0084 40.5701 82.3611 40.8772 81.9211 41.4914C81.4896 42.0972 81.2739 43.0849 81.2739 44.4543V44.8277C81.2739 46.2138 81.4896 47.2097 81.9211 47.8155C82.3526 48.4214 83.0084 48.7243 83.8883 48.7243Z" fill="#F0F3FF"/>
<path d="M90.1209 44.5165C90.1209 43.1803 90.3832 41.9893 90.9078 40.9436C91.4323 39.8979 92.1854 39.0887 93.1669 38.516C94.1568 37.9433 95.3033 37.657 96.6063 37.657C98.4592 37.657 99.9695 38.2131 101.137 39.3252C102.313 40.4373 102.969 41.9478 103.104 43.8567L103.13 44.7779C103.13 46.8445 102.542 48.5044 101.366 49.7576C100.19 51.0025 98.6115 51.625 96.6317 51.625C94.6518 51.625 93.0696 51.0025 91.885 49.7576C90.7089 48.5127 90.1209 46.8196 90.1209 44.6784V44.5165ZM93.7887 44.7779C93.7887 46.0561 94.0341 47.0354 94.5249 47.716C95.0156 48.3882 95.7179 48.7243 96.6317 48.7243C97.5201 48.7243 98.2139 48.3924 98.7131 47.7284C99.2123 47.0561 99.4619 45.9855 99.4619 44.5165C99.4619 43.2633 99.2123 42.2923 98.7131 41.6034C98.2139 40.9145 97.5116 40.5701 96.6063 40.5701C95.7094 40.5701 95.0156 40.9145 94.5249 41.6034C94.0341 42.284 93.7887 43.3421 93.7887 44.7779Z" fill="#F0F3FF"/>
<path d="M108.22 51.376H104.54V37.906H108.22V51.376Z" fill="#F0F3FF"/>
<path d="M113.59 37.906L113.704 39.4621C114.685 38.2587 116.001 37.657 117.651 37.657C119.106 37.657 120.189 38.0761 120.9 38.9144C121.611 39.7526 121.975 41.0058 121.991 42.674V51.376H118.324V42.7612C118.324 41.9976 118.154 41.4457 117.816 41.1054C117.477 40.7569 116.915 40.5826 116.128 40.5826C115.096 40.5826 114.321 41.0141 113.805 41.8773V51.376H110.138V37.906H113.59Z" fill="#F0F3FF"/>
<path d="M135.98 48.7243C136.656 48.7243 137.206 48.5418 137.629 48.1766C138.053 47.8114 138.272 47.3259 138.289 46.72H141.729C141.72 47.633 141.467 48.4712 140.967 49.2348C140.468 49.99 139.783 50.5793 138.911 51.0025C138.048 51.4175 137.092 51.625 136.043 51.625C134.08 51.625 132.532 51.015 131.398 49.795C130.264 48.5667 129.697 46.8736 129.697 44.7157V44.4792C129.697 42.4043 130.26 40.7486 131.385 39.5119C132.511 38.2753 134.055 37.657 136.018 37.657C137.735 37.657 139.11 38.1384 140.142 39.1011C141.183 40.0556 141.712 41.3295 141.729 42.923H138.289C138.272 42.2259 138.053 41.6615 137.629 41.2299C137.206 40.7901 136.648 40.5701 135.954 40.5701C135.1 40.5701 134.452 40.8772 134.012 41.4914C133.581 42.0972 133.365 43.0849 133.365 44.4543V44.8277C133.365 46.2138 133.581 47.2097 134.012 47.8155C134.444 48.4214 135.1 48.7243 135.98 48.7243Z" fill="#F0F3FF"/>
<path d="M142.212 44.5165C142.212 43.1803 142.474 41.9893 142.999 40.9436C143.524 39.8979 144.277 39.0887 145.258 38.516C146.248 37.9433 147.395 37.657 148.698 37.657C150.55 37.657 152.061 38.2131 153.228 39.3252C154.404 40.4373 155.06 41.9478 155.196 43.8567L155.221 44.7779C155.221 46.8445 154.633 48.5044 153.457 49.7576C152.281 51.0025 150.703 51.625 148.723 51.625C146.743 51.625 145.161 51.0025 143.976 49.7576C142.8 48.5127 142.212 46.8196 142.212 44.6784V44.5165ZM145.88 44.7779C145.88 46.0561 146.125 47.0354 146.616 47.716C147.107 48.3882 147.809 48.7243 148.723 48.7243C149.611 48.7243 150.305 48.3924 150.804 47.7284C151.304 47.0561 151.553 45.9855 151.553 44.5165C151.553 43.2633 151.304 42.2923 150.804 41.6034C150.305 40.9145 149.603 40.5701 148.698 40.5701C147.801 40.5701 147.107 40.9145 146.616 41.6034C146.125 42.284 145.88 43.3421 145.88 44.7779Z" fill="#F0F3FF"/>
<path d="M159.88 37.906L159.994 39.4123C160.967 38.2421 162.283 37.657 163.941 37.657C165.709 37.657 166.924 38.3417 167.584 39.7111C168.548 38.3417 169.923 37.657 171.708 37.657C173.197 37.657 174.306 38.0844 175.034 38.9393C175.761 39.7858 176.125 41.0639 176.125 42.7736V51.376H172.444V42.7861C172.444 42.0225 172.292 41.4665 171.988 41.1179C171.683 40.761 171.146 40.5826 170.376 40.5826C169.276 40.5826 168.514 41.0971 168.091 42.1263L168.104 51.376H164.436V42.7985C164.436 42.0184 164.28 41.454 163.966 41.1054C163.653 40.7569 163.12 40.5826 162.367 40.5826C161.327 40.5826 160.574 41.0058 160.108 41.8524V51.376H156.44V37.906H159.88Z" fill="#F0F3FF"/>
<path d="M64.7851 33.4655H68.4407V36.8896H64.7851V33.4655Z" fill="#F0F3FF"/>
<path d="M104.525 33.4655H108.22V36.8896H104.525V33.4655Z" fill="#F0F3FF"/>
<path d="M123.859 47.6885H127.618V51.376H123.859V47.6885Z" fill="#F0F3FF"/>
</g>
<g filter="url(#filter1_dd)">
<rect x="16" y="28" width="9.33333" height="9.33333" fill="#C2EFE3"/>
<rect x="34.6667" y="46.6665" width="9.33333" height="9.33333" fill="#C2EFE3"/>
<rect x="25.3333" y="28" width="9.33333" height="9.33333" fill="#84E0C6"/>
<rect x="16" y="37.3335" width="9.33333" height="9.33333" fill="#84E0C6"/>
<rect x="25.3333" y="46.6665" width="9.33333" height="9.33333" fill="#84E0C6"/>
<rect x="34.6667" y="37.3335" width="9.33333" height="9.33333" fill="#84E0C6"/>
<rect x="34.6667" y="28" width="9.33333" height="9.33333" fill="#0AC18E"/>
<rect x="25.3333" y="37.3335" width="9.33333" height="9.33333" fill="#0AC18E"/>
<rect x="16" y="46.6665" width="9.33333" height="9.33333" fill="#0AC18E"/>
</g>
<defs>
<filter id="filter0_dd" x="31.25" y="3.25" width="162.875" height="80.375" filterUnits="userSpaceOnUse" color-interpolation-filters="sRGB">
<feFlood flood-opacity="0" result="BackgroundImageFix"/>
<feColorMatrix in="SourceAlpha" type="matrix" values="0 0 0 0 0 0 0 0 0 0 0 0 0 0 0 0 0 0 127 0"/>
<feOffset dy="-12"/>
<feGaussianBlur stdDeviation="9"/>
<feColorMatrix type="matrix" values="0 0 0 0 0.313726 0 0 0 0 0.345098 0 0 0 0 0.498039 0 0 0 0.8 0"/>
<feBlend mode="normal" in2="BackgroundImageFix" result="effect1_dropShadow"/>
<feColorMatrix in="SourceAlpha" type="matrix" values="0 0 0 0 0 0 0 0 0 0 0 0 0 0 0 0 0 0 127 0"/>
<feOffset dy="16"/>
<feGaussianBlur stdDeviation="8"/>
<feColorMatrix type="matrix" values="0 0 0 0 0.13875 0 0 0 0 0.168501 0 0 0 0 0.308333 0 0 0 0.24 0"/>
<feBlend mode="normal" in2="effect1_dropShadow" result="effect2_dropShadow"/>
<feBlend mode="normal" in="SourceGraphic" in2="effect2_dropShadow" result="shape"/>
</filter>
<filter id="filter1_dd" x="0" y="0" width="60" height="87.9998" filterUnits="userSpaceOnUse" color-interpolation-filters="sRGB">
<feFlood flood-opacity="0" result="BackgroundImageFix"/>
<feColorMatrix in="SourceAlpha" type="matrix" values="0 0 0 0 0 0 0 0 0 0 0 0 0 0 0 0 0 0 127 0"/>
<feOffset dy="-12"/>
<feGaussianBlur stdDeviation="8"/>
<feColorMatrix type="matrix" values="0 0 0 0 0.0392157 0 0 0 0 0.756863 0 0 0 0 0.556863 0 0 0 0.2 0"/>
<feBlend mode="normal" in2="BackgroundImageFix" result="effect1_dropShadow"/>
<feColorMatrix in="SourceAlpha" type="matrix" values="0 0 0 0 0 0 0 0 0 0 0 0 0 0 0 0 0 0 127 0"/>
<feOffset dy="16"/>
<feGaussianBlur stdDeviation="8"/>
<feColorMatrix type="matrix" values="0 0 0 0 0.13875 0 0 0 0 0.168501 0 0 0 0 0.308333 0 0 0 0.24 0"/>
<feBlend mode="normal" in2="effect1_dropShadow" result="effect2_dropShadow"/>
<feBlend mode="normal" in="SourceGraphic" in2="effect2_dropShadow" result="shape"/>
</filter>
</defs>
</svg>
