<svg width="162" height="110" viewBox="0 0 162 110" fill="none" xmlns="http://www.w3.org/2000/svg">
<g clip-path="url(#clip0)" filter="url(#filter0_dd)">
<path d="M18.3722 38.397H25.8134L30.1464 49.4204L34.5354 38.397H41.7805L30.871 64.493H23.5798L26.5661 57.5779L18.3722 38.397Z" fill="#8927FF"/>
<path d="M49.328 37.958C43.737 37.958 40.2027 42.9442 40.2027 47.9095C40.2027 53.4971 44.0777 57.9269 49.2218 57.9269C53.0592 57.9269 54.5059 55.6021 54.5059 55.6021V57.4131H60.996V38.3971H54.5059V40.1258C54.5061 40.1258 52.8918 37.958 49.328 37.958ZM50.7084 44.0692C53.288 44.0692 54.6194 46.099 54.6194 47.9305C54.6194 49.9027 53.1931 51.8383 50.7084 51.8383C48.6491 51.8383 46.7882 50.1647 46.7882 48.0143C46.7884 45.8338 48.2851 44.0692 50.7084 44.0692Z" fill="#8927FF"/>
<path d="M63.2314 57.4132V30H70.0197V40.1916C70.0197 40.1916 71.6319 37.9604 75.0088 37.9604C79.1394 37.9604 81.5597 41.021 81.5597 45.3943V57.4132H74.821V47.0405C74.821 45.5605 74.1119 44.1308 72.5061 44.1308C70.8715 44.1308 70.0197 45.5822 70.0197 47.0405V57.413H63.2314V57.4132Z" fill="#8927FF"/>
<path d="M93.1334 37.96C86.7306 37.96 82.9185 42.8012 82.9185 47.9883C82.9185 53.8911 87.5344 57.9265 93.1577 57.9265C98.6078 57.9265 103.377 54.0742 103.377 48.0871C103.377 41.5366 98.3838 37.96 93.1334 37.96ZM93.1946 44.1248C95.4562 44.1248 97.021 45.998 97.021 47.9956C97.021 49.6992 95.5628 51.8008 93.1946 51.8008C91.0245 51.8008 89.396 50.0696 89.396 47.9769C89.3959 45.9609 90.7498 44.1248 93.1946 44.1248Z" fill="#8927FF"/>
<path d="M114.686 37.96C108.283 37.96 104.471 42.8012 104.471 47.9883C104.471 53.8911 109.087 57.9265 114.71 57.9265C120.161 57.9265 124.93 54.0742 124.93 48.0871C124.93 41.5366 119.936 37.96 114.686 37.96ZM114.747 44.1248C117.009 44.1248 118.574 45.998 118.574 47.9956C118.574 49.6992 117.116 51.8008 114.747 51.8008C112.577 51.8008 110.949 50.0696 110.949 47.9769C110.949 45.9609 112.302 44.1248 114.747 44.1248Z" fill="#8927FF"/>
<path d="M130.286 48.8521C132.776 48.8521 134.794 50.8589 134.794 53.3346C134.794 55.8102 132.776 57.8171 130.286 57.8171C127.797 57.8171 125.779 55.8102 125.779 53.3346C125.779 50.8589 127.797 48.8521 130.286 48.8521Z" fill="#8927FF"/>
<path d="M136.275 47.2052H128.16L135.362 30H143.447L136.275 47.2052Z" fill="#8927FF"/>
<path d="M62.8205 70.5309V66.673H64.6175V66.0824C64.6175 65.2614 64.7432 64.5493 64.9945 63.9461C65.2542 63.3429 65.5432 62.8989 65.8616 62.6141C66.1799 62.3293 66.5653 62.1114 67.0177 61.9606C67.4785 61.8015 67.8136 61.7135 68.023 61.6967C68.2408 61.68 68.4497 61.6436 68.6759 61.6436H71.0537V65.4181C70.4246 65.4181 70.0134 65.4181 69.7955 65.4181C69.1665 65.4181 68.7644 65.5379 68.7644 66.1076V66.673H71.1269V70.5309H68.7644V77.5807H64.6175V70.5309H62.8205ZM72.5501 77.5807V66.673H76.697V77.5807H72.5501Z" fill="#F0F3FF"/>
<path d="M81.9996 66.673V67.4396C82.2425 67.0961 82.6028 66.8364 83.0803 66.6605C83.5578 66.4762 83.9893 66.384 84.3746 66.384C85.0951 66.384 85.7234 66.5306 86.2596 66.8238C86.8041 67.1171 87.2063 67.4522 87.466 67.8291C87.7341 68.2061 87.9477 68.6208 88.1069 69.0732C88.2744 69.5256 88.3749 69.8775 88.4085 70.1288C88.442 70.3801 88.4587 70.5728 88.4587 70.7069V77.5807H84.3118V71.5865C84.3118 70.6985 83.9599 70.2503 83.2562 70.2419C82.8122 70.2419 82.4897 70.422 82.2886 70.7823C82.0959 71.1425 81.9996 71.4776 81.9996 71.7876V77.5807H77.8527V66.673H81.9996Z" fill="#F0F3FF"/>
<path d="M95.7735 73.9993C96.3264 73.9993 96.783 73.8191 97.1432 73.4589C97.5118 73.0987 97.6961 72.6547 97.6961 72.1269C97.6961 71.5907 97.5118 71.1425 97.1432 70.7823C96.7746 70.422 96.318 70.2419 95.7735 70.2419C95.2625 70.2419 94.8184 70.422 94.4414 70.7823C94.0728 71.1425 93.8885 71.5907 93.8885 72.1269C93.8885 72.6547 94.0728 73.0987 94.4414 73.4589C94.8184 73.8191 95.2625 73.9993 95.7735 73.9993ZM97.6961 67.515V66.673H101.843V77.5807H97.6961V76.7262C97.1684 77.4802 96.2761 77.8613 95.0195 77.8697C93.4948 77.8697 92.234 77.3168 91.237 76.2109C90.2401 75.0967 89.7416 73.7354 89.7416 72.1269C89.7416 70.51 90.2401 69.1486 91.237 68.0428C92.234 66.9369 93.4948 66.384 95.0195 66.384C96.2761 66.384 97.1684 66.761 97.6961 67.515Z" fill="#F0F3FF"/>
<path d="M107.704 66.673V67.4396C107.947 67.0961 108.307 66.8364 108.785 66.6605C109.262 66.4762 109.694 66.384 110.079 66.384C110.799 66.384 111.428 66.5306 111.964 66.8238C112.508 67.1171 112.911 67.4522 113.17 67.8291C113.438 68.2061 113.652 68.6208 113.811 69.0732C113.979 69.5256 114.079 69.8775 114.113 70.1288C114.146 70.3801 114.163 70.5728 114.163 70.7069V77.5807H110.016V71.5865C110.016 70.6985 109.664 70.2503 108.961 70.2419C108.517 70.2419 108.194 70.422 107.993 70.7823C107.8 71.1425 107.704 71.4776 107.704 71.7876V77.5807H103.557V66.673H107.704Z" fill="#F0F3FF"/>
<path d="M135.851 73.3835H128.585C128.811 74.0202 129.619 74.6449 130.398 74.6449C131.363 74.6449 131.657 74.4352 132.076 73.8061L135.641 74.8546C135.012 75.9031 134.592 76.3225 134.383 76.5322C134.121 76.7934 133.631 77.2414 132.81 77.4927C131.989 77.744 131.172 77.8697 130.359 77.8697C128.709 77.8697 127.31 77.3084 126.162 76.1858C125.516 75.5497 125.052 74.8434 124.77 74.0669C124.639 73.7075 124.547 73.3331 124.494 72.9437C124.458 72.6784 124.44 72.4061 124.44 72.1269C124.44 70.5435 125.014 69.1905 126.162 68.0679C127.318 66.9453 128.717 66.384 130.359 66.384C131.867 66.384 133.157 66.9118 134.23 67.9674C135.31 69.023 135.851 70.443 135.851 72.2274V73.3835ZM131.829 70.8577C131.62 70.1372 131.113 69.7769 130.309 69.7769C129.505 69.7769 129.002 70.1372 128.801 70.8577H131.829Z" fill="#F0F3FF"/>
<path d="M121.225 77.8697C119.633 77.8697 118.251 77.3084 117.078 76.1858C115.914 75.0548 115.331 73.7019 115.331 72.1269C115.331 70.5435 115.914 69.1905 117.078 68.0679C118.251 66.9453 119.633 66.384 121.225 66.384C122.028 66.384 122.779 66.5427 123.478 66.86V70.6606C122.64 70.0315 122.102 70.0315 121.381 70.0315C120.904 70.0315 120.291 70.422 119.956 70.7823C119.621 71.1425 119.453 71.5907 119.453 72.1269C119.453 72.6547 119.621 73.0987 119.956 73.4589C120.291 73.8191 120.752 74.2255 121.172 74.2255C122.01 74.2255 123.059 74.2255 123.478 73.8061V77.3894C122.779 77.7096 122.028 77.8697 121.225 77.8697Z" fill="#F0F3FF"/>
</g>
<defs>
<filter id="filter0_dd" x="0" y="0" width="161.714" height="110" filterUnits="userSpaceOnUse" color-interpolation-filters="sRGB">
<feFlood flood-opacity="0" result="BackgroundImageFix"/>
<feColorMatrix in="SourceAlpha" type="matrix" values="0 0 0 0 0 0 0 0 0 0 0 0 0 0 0 0 0 0 127 0"/>
<feOffset dy="-12"/>
<feGaussianBlur stdDeviation="9"/>
<feColorMatrix type="matrix" values="0 0 0 0 0.313726 0 0 0 0 0.345098 0 0 0 0 0.498039 0 0 0 0.8 0"/>
<feBlend mode="normal" in2="BackgroundImageFix" result="effect1_dropShadow"/>
<feColorMatrix in="SourceAlpha" type="matrix" values="0 0 0 0 0 0 0 0 0 0 0 0 0 0 0 0 0 0 127 0"/>
<feOffset dy="16"/>
<feGaussianBlur stdDeviation="8"/>
<feColorMatrix type="matrix" values="0 0 0 0 0.13875 0 0 0 0 0.168501 0 0 0 0 0.308333 0 0 0 0.24 0"/>
<feBlend mode="normal" in2="effect1_dropShadow" result="effect2_dropShadow"/>
<feBlend mode="normal" in="SourceGraphic" in2="effect2_dropShadow" result="shape"/>
</filter>
<clipPath id="clip0">
<rect width="125.714" height="48" fill="white" transform="translate(18 30)"/>
</clipPath>
</defs>
</svg>
