<svg width="165" height="102" viewBox="0 0 165 102" fill="none" xmlns="http://www.w3.org/2000/svg">
<g clip-path="url(#clip0)" filter="url(#filter0_dd)">
<path fill-rule="evenodd" clip-rule="evenodd" d="M27.98 70H30.975V54H27.98V70ZM38.9587 69.76H41.6413V59.665L52.9325 70V54.24H50.2575V64.1625L38.9587 54V69.76ZM59.0563 65.885C60.5163 67.0225 62.2687 67.68 64.1475 67.68C65.9775 67.68 67.2612 67.05 67.2612 65.6588C67.2612 64.4463 66.4425 63.9713 65.0087 63.44L62.6875 62.6338C60.5475 61.8738 58.92 60.7638 58.92 58.2125C58.92 55.4837 61.3837 54 64.33 54C66.135 54 67.78 54.4537 69.065 55.2575V57.9638C67.7288 56.9762 66.2663 56.2963 64.3875 56.2963C62.77 56.2963 61.5612 56.9 61.5612 58.1588C61.5612 59.2963 62.32 59.7512 63.6562 60.2087L66.2425 61.1162C68.7488 61.9975 69.8988 63.3638 69.8988 65.6113C69.8988 68.4388 67.4112 70 64.1475 70C62.0025 70 60.1788 69.4 59.0563 68.6425V65.885ZM76.8863 70H79.88V54H76.8863V70ZM93.925 67.5788C97.3 67.5788 99.1038 65.4137 99.1038 61.9963C99.1038 58.5538 97.2988 56.3963 93.925 56.3963H90.5875V67.5788H93.925ZM87.8625 54H94.025C98.7688 54 101.836 57.125 101.836 61.9963C101.836 66.8713 98.7688 70 94.025 70H87.8625V54ZM116.809 54V56.3963H109.562V60.2463H116.061V62.615H109.561V67.5788H116.809V70H106.827V54H116.809ZM127.436 61.245H130.408C132.166 61.245 133.158 60.28 133.158 58.7963C133.158 57.3125 132.166 56.3462 130.408 56.3462H127.436V61.2463V61.245ZM127.436 63.5075V70H124.792V54H130.458C133.688 54 135.777 55.6638 135.777 58.7963C135.777 61.475 134.618 63.0137 132.146 63.4087L137.768 70H134.76L129.318 63.5088H127.438L127.436 63.5075ZM26.9338 38.2375C28.105 37.8088 29.0175 36.5225 29.0175 34.7537C29.0175 31.8062 26.9338 30.2788 23.6 30.2788H18V46.7325H24.12C27.4537 46.7325 29.5375 45.0975 29.5375 42.0162C29.5375 40.2738 28.4437 38.7463 26.9338 38.2375ZM20.63 37.1925V32.6913H23.575C25.425 32.6913 26.4137 33.3612 26.4137 34.915C26.4137 36.4688 25.4237 37.1925 23.575 37.1925H20.63ZM20.63 39.4975H24.0675C25.8925 39.4975 26.8813 40.4075 26.8813 41.9088C26.8813 43.3825 25.8913 44.3212 24.0687 44.3212H20.6312V39.4963L20.63 39.4975ZM41.7562 47C45.585 47 48.1637 44.695 48.1637 40.1937V30.2788H45.455V39.8713C45.455 43.0337 44.1525 44.5088 41.7562 44.5088C39.36 44.5088 38.0588 43.0337 38.0588 39.8713V30.2788H35.35V40.1663C35.35 44.695 37.9537 47 41.7562 47ZM54.5412 45.5525C55.6613 46.3575 57.485 47 59.62 47C62.8763 47 65.35 45.3375 65.35 42.3375C65.35 39.9525 64.205 38.505 61.7038 37.5675L59.1263 36.6025C57.7975 36.1213 57.0425 35.6388 57.0425 34.4325C57.0425 33.0925 58.24 32.45 59.855 32.45C61.73 32.45 63.1888 33.1725 64.5175 34.2188V31.35C63.2412 30.4938 61.6 30.0112 59.8025 30.0112C56.86 30.0112 54.4113 31.5925 54.4113 34.4862C54.4113 37.1925 56.0263 38.3713 58.1613 39.175L60.48 40.0325C61.9125 40.595 62.72 41.105 62.72 42.3913C62.72 43.865 61.4438 44.535 59.62 44.535C57.745 44.535 56 43.8375 54.5412 42.6325V45.5525ZM75.0288 30.2788H72.3213V46.7313H75.0288V30.2788ZM82.7562 46.7113H85.3662V36.0075L96.3512 46.9662V30.2537H93.7487V40.775L82.7562 30V46.7113ZM113.277 30.2825V32.7463H106.245V36.7062H112.551V39.1425H106.245V44.2463H113.277V46.7362H103.59V30.2825H113.277ZM119.584 45.5412C120.704 46.3462 122.526 46.9888 124.663 46.9888C127.918 46.9888 130.393 45.3275 130.393 42.3263C130.393 39.9412 129.246 38.495 126.746 37.5563L124.167 36.5925C122.839 36.11 122.084 35.6275 122.084 34.4212C122.084 33.0812 123.281 32.4388 124.896 32.4388C126.771 32.4388 128.23 33.1625 129.559 34.2075V31.34C128.283 30.4825 126.641 30 124.844 30C121.901 30 119.452 31.5812 119.452 34.475C119.452 37.1812 121.068 38.36 123.202 39.1637L125.521 40.0212C126.954 40.5837 127.761 41.0938 127.761 42.38C127.761 43.8538 126.486 44.5238 124.661 44.5238C122.786 44.5238 121.041 43.8275 119.584 42.6213V45.5412ZM135.941 45.5412C137.061 46.3462 138.885 46.9888 141.02 46.9888C144.276 46.9888 146.75 45.3275 146.75 42.3263C146.75 39.9412 145.604 38.495 143.104 37.5563L140.525 36.5925C139.197 36.11 138.441 35.6275 138.441 34.4212C138.441 33.0812 139.64 32.4388 141.254 32.4388C143.129 32.4388 144.589 33.1625 145.916 34.2075V31.34C144.641 30.4825 143 30 141.202 30C138.259 30 135.811 31.5812 135.811 34.475C135.811 37.1812 137.426 38.36 139.561 39.1637L141.88 40.0212C143.312 40.5837 144.12 41.0938 144.12 42.38C144.12 43.8538 142.844 44.5238 141.02 44.5238C139.145 44.5238 137.4 43.8275 135.941 42.6213V45.5412Z" fill="#F0F3FF"/>
</g>
<defs>
<filter id="filter0_dd" x="0" y="0" width="164.75" height="102" filterUnits="userSpaceOnUse" color-interpolation-filters="sRGB">
<feFlood flood-opacity="0" result="BackgroundImageFix"/>
<feColorMatrix in="SourceAlpha" type="matrix" values="0 0 0 0 0 0 0 0 0 0 0 0 0 0 0 0 0 0 127 0"/>
<feOffset dy="-12"/>
<feGaussianBlur stdDeviation="9"/>
<feColorMatrix type="matrix" values="0 0 0 0 0.313726 0 0 0 0 0.345098 0 0 0 0 0.498039 0 0 0 0.8 0"/>
<feBlend mode="normal" in2="BackgroundImageFix" result="effect1_dropShadow"/>
<feColorMatrix in="SourceAlpha" type="matrix" values="0 0 0 0 0 0 0 0 0 0 0 0 0 0 0 0 0 0 127 0"/>
<feOffset dy="16"/>
<feGaussianBlur stdDeviation="8"/>
<feColorMatrix type="matrix" values="0 0 0 0 0.13875 0 0 0 0 0.168501 0 0 0 0 0.308333 0 0 0 0.24 0"/>
<feBlend mode="normal" in2="effect1_dropShadow" result="effect2_dropShadow"/>
<feBlend mode="normal" in="SourceGraphic" in2="effect2_dropShadow" result="shape"/>
</filter>
<clipPath id="clip0">
<rect width="128.75" height="40" fill="white" transform="translate(18 30)"/>
</clipPath>
</defs>
</svg>
