<svg width="188" height="82" viewBox="0 0 188 82" fill="none" xmlns="http://www.w3.org/2000/svg">
<g filter="url(#filter0_dd)">
<path fill-rule="evenodd" clip-rule="evenodd" d="M39.1298 32.374L32.6132 42.1522V32.374H29.4596L18 49.5651H22.4262L28.946 39.787V49.5651H32.1225L38.6424 39.787V49.5651H42.3096V32.374H39.1298ZM69.848 32.4002H73.5152L71.8043 41.6876H71.8567L76.0931 37.2059H80.4408L74.8173 42.6396L78.0232 49.5651H73.8686L71.5033 43.6178H71.451L70.3649 49.5651H66.6977L69.848 32.4002ZM52.7911 49.5649H56.4583L56.4452 49.5617L58.7352 37.2024H55.0712L54.8259 38.5109H54.7703C54.4431 37.7553 53.5075 36.7738 51.4989 36.7738C48.2112 36.7738 44.8449 39.3255 44.1121 43.3722C43.4578 46.9315 45.172 50 49.0552 50C50.5109 50 52.1401 49.4275 52.9808 48.2335H53.0364L52.7911 49.5649ZM53.9328 43.3984C53.7136 44.5859 52.5752 46.5487 50.2656 46.5487C48.0672 46.5487 47.5765 44.5957 47.8088 43.4278C48.0378 42.0408 49.3169 40.248 51.4073 40.248C53.4977 40.248 54.2043 41.9066 53.9328 43.3984ZM64.1722 37.2058H60.7209L58.4669 49.5781H62.1341L63.3838 42.7867C63.7371 40.9057 64.9868 40.5524 66.6977 40.4968L67.3749 36.7772C65.2583 36.7772 64.3881 37.9156 63.9825 38.5143H63.9268L64.1722 37.2058ZM87.8275 48.8584C89.0891 48.0707 90.1418 46.99 90.8961 45.7081L87.1471 45.7146C86.5255 46.3656 85.8451 46.8825 84.7034 46.8825C83.264 46.8825 82.204 46.0123 82.2596 44.5467H91.4587C91.5869 44.2312 91.678 43.9018 91.7303 43.5653C92.4173 39.7902 90.2451 36.8034 86.4961 36.8034C82.7471 36.8034 79.4626 39.9799 78.8378 43.4312C78.1573 47.0919 80.6043 49.9739 84.1341 49.9739C85.4462 49.9605 86.7274 49.5736 87.8275 48.8584ZM85.9268 39.8948C87.8275 39.8948 88.2888 41.2819 88.315 42.0147H82.7471C83.0083 41.3867 83.4497 40.8501 84.0157 40.4728C84.5816 40.0955 85.2467 39.8944 85.9268 39.8948ZM98.7179 37.2058H101.028L100.458 40.0061H98.1487L96.3822 49.5585H92.715L94.4815 39.9996H92.6888L93.2057 37.1993H93.258C94.6189 37.0651 95.5938 36.5777 95.8947 34.9747L96.1663 33.5615H99.3984L98.7179 37.2058Z" fill="#F0F3FF"/>
</g>
<g filter="url(#filter1_dd)">
<path fill-rule="evenodd" clip-rule="evenodd" d="M127.428 28L120.365 32.4H122.321L115.801 42.152V32.3738H112.625L106.105 42.152V32.3738H102.441V49.5649H105.617L112.134 39.7868V49.5649H115.287L126.747 32.4H128.54L127.428 28ZM165.071 32.4H161.404L158.306 49.5649H161.973L163.223 42.6951L163.224 42.6897C163.333 42.0855 163.664 40.2481 165.722 40.2481C167.678 40.2481 167.325 42.2305 167.214 42.8292L165.964 49.5649H169.648L170.927 42.6656C171.333 40.4673 171.414 39.3812 170.6 38.1577C170.001 37.2351 168.67 36.8 167.502 36.8C166.193 36.8 164.852 37.2351 164.037 38.3474H163.982L165.071 32.4ZM134.487 49.5648H130.82L131.065 48.2333H131.013C130.169 49.4274 128.54 49.9999 127.087 49.9999C123.204 49.9999 121.493 46.9313 122.144 43.372C122.877 39.3254 126.247 36.7737 129.531 36.7737C131.543 36.7737 132.475 37.7551 132.802 38.5108H132.858L133.103 37.2022H136.771L134.481 49.5615L134.487 49.5648ZM128.294 46.5486C130.604 46.5486 131.746 44.5857 131.962 43.3982C132.233 41.9065 131.527 40.2479 129.436 40.2479C127.346 40.2479 126.07 42.0406 125.838 43.4277C125.605 44.5955 126.096 46.5486 128.294 46.5486ZM157.953 44.8673C156.785 47.6643 153.906 49.9739 150.566 49.9739C146.846 49.9739 144.537 47.0297 145.217 43.3723C145.898 39.7149 149.234 36.8001 152.902 36.8001C156.173 36.8001 158.388 38.9723 158.443 41.9885H154.721C154.479 41.1445 153.906 40.2481 152.385 40.2481C150.648 40.1663 149.208 41.6057 148.881 43.3985C148.554 45.1912 149.48 46.5488 151.217 46.5488C152.738 46.5488 153.634 45.6524 154.161 44.8935H157.936L157.953 44.8673ZM143.64 37.2056H145.95L145.378 39.9994H143.071L141.305 49.5583H137.637L139.404 39.9994H137.611L138.128 37.1991H138.181C139.538 37.065 140.516 36.5775 140.817 34.9746L141.089 33.5613H144.321L143.64 37.2056Z" fill="#4ED354"/>
</g>
<defs>
<filter id="filter0_dd" x="0" y="2.37402" width="119.028" height="79.626" filterUnits="userSpaceOnUse" color-interpolation-filters="sRGB">
<feFlood flood-opacity="0" result="BackgroundImageFix"/>
<feColorMatrix in="SourceAlpha" type="matrix" values="0 0 0 0 0 0 0 0 0 0 0 0 0 0 0 0 0 0 127 0"/>
<feOffset dy="-12"/>
<feGaussianBlur stdDeviation="9"/>
<feColorMatrix type="matrix" values="0 0 0 0 0.313726 0 0 0 0 0.345098 0 0 0 0 0.498039 0 0 0 0.8 0"/>
<feBlend mode="normal" in2="BackgroundImageFix" result="effect1_dropShadow"/>
<feColorMatrix in="SourceAlpha" type="matrix" values="0 0 0 0 0 0 0 0 0 0 0 0 0 0 0 0 0 0 127 0"/>
<feOffset dy="16"/>
<feGaussianBlur stdDeviation="8"/>
<feColorMatrix type="matrix" values="0 0 0 0 0.13875 0 0 0 0 0.168501 0 0 0 0 0.308333 0 0 0 0.24 0"/>
<feBlend mode="normal" in2="effect1_dropShadow" result="effect2_dropShadow"/>
<feBlend mode="normal" in="SourceGraphic" in2="effect2_dropShadow" result="shape"/>
</filter>
<filter id="filter1_dd" x="86.4408" y="0" width="100.785" height="81.9999" filterUnits="userSpaceOnUse" color-interpolation-filters="sRGB">
<feFlood flood-opacity="0" result="BackgroundImageFix"/>
<feColorMatrix in="SourceAlpha" type="matrix" values="0 0 0 0 0 0 0 0 0 0 0 0 0 0 0 0 0 0 127 0"/>
<feOffset dy="-12"/>
<feGaussianBlur stdDeviation="8"/>
<feColorMatrix type="matrix" values="0 0 0 0 0.4302 0 0 0 0 0.8 0 0 0 0 0.37 0 0 0 0.24 0"/>
<feBlend mode="normal" in2="BackgroundImageFix" result="effect1_dropShadow"/>
<feColorMatrix in="SourceAlpha" type="matrix" values="0 0 0 0 0 0 0 0 0 0 0 0 0 0 0 0 0 0 127 0"/>
<feOffset dy="16"/>
<feGaussianBlur stdDeviation="8"/>
<feColorMatrix type="matrix" values="0 0 0 0 0.13875 0 0 0 0 0.168501 0 0 0 0 0.308333 0 0 0 0.24 0"/>
<feBlend mode="normal" in2="effect1_dropShadow" result="effect2_dropShadow"/>
<feBlend mode="normal" in="SourceGraphic" in2="effect2_dropShadow" result="shape"/>
</filter>
</defs>
</svg>
