<svg xmlns="http://www.w3.org/2000/svg" xmlns:xlink="http://www.w3.org/1999/xlink" viewBox="0,0,256,256" width="500px" height="500px"><g fill="#ffffff" fill-rule="nonzero" stroke="none" stroke-width="1" stroke-linecap="butt" stroke-linejoin="miter" stroke-miterlimit="10" stroke-dasharray="" stroke-dashoffset="0" font-family="none" font-weight="none" font-size="none" text-anchor="none" style="mix-blend-mode: normal"><g transform="scale(5.12,5.12)"><path d="M25,1c-1.6551,0 -3.31876,0.63594 -4.57812,1.89648l-17.52539,17.52539c-1.26016,1.26016 -1.89453,2.92189 -1.89453,4.57617c0,1.65429 0.63377,3.31854 1.89453,4.57813l17.52734,17.52734c1.26016,1.26016 2.92189,1.89453 4.57617,1.89453c1.65376,0 3.31673,-0.63456 4.57617,-1.89453l11.73047,-11.72852l5.79688,-5.79687c1.24897,-1.24897 1.88459,-2.89499 1.89453,-4.53711v-0.00195c0.01132,-1.66949 -0.62581,-3.34728 -1.89453,-4.61719l-17.52539,-17.52539c-1.26096,-1.25979 -2.92302,-1.89648 -4.57812,-1.89648zM25,3c1.1469,0 2.28698,0.43233 3.16602,1.31055l5.0918,5.09375l-8.25391,8.25781l-8.25977,-8.25781l5.09375,-5.09375c0.87664,-0.87746 2.01521,-1.31055 3.16211,-1.31055zM15.33008,10.81836l8.25977,8.25781l-14.17969,14.18555l-5.09961,-5.09961c-0.87724,-0.87642 -1.30859,-2.01835 -1.30859,-3.16406c0,-1.14571 0.43076,-2.28427 1.30859,-3.16211zM34.67188,10.81836l8.15234,8.15234l-8.30664,8.20313l-8.09961,-8.09766zM44.23828,20.38477l1.45117,1.45117c0.88398,0.88545 1.31872,2.03605 1.31055,3.19141h-0.00195c-0.0065,1.13725 -0.43805,2.26617 -1.30859,3.13672l-5.08984,5.08984l-4.66797,-4.66797zM25.00391,20.49023l14.18164,14.17773l-11.02344,11.02148c-0.87642,0.87724 -2.01639,1.30859 -3.16211,1.30859c-1.14571,0 -2.28427,-0.43076 -3.16211,-1.30859l-11.01367,-11.01367z"></path></g></g></svg>