<svg xmlns="http://www.w3.org/2000/svg" xmlns:xlink="http://www.w3.org/1999/xlink" viewBox="0,0,256,256" width="240px" height="240px"><g fill="#ffffff" fill-rule="nonzero" stroke="none" stroke-width="1" stroke-linecap="butt" stroke-linejoin="miter" stroke-miterlimit="10" stroke-dasharray="" stroke-dashoffset="0" font-family="none" font-weight="none" font-size="none" text-anchor="none" style="mix-blend-mode: normal"><g transform="scale(3.2,3.2)"><path d="M40,7c-18.21345,0 -33,14.78655 -33,33c0,18.21345 14.78655,33 33,33c18.21345,0 33,-14.78655 33,-33c0,-18.21345 -14.78655,-33 -33,-33zM40,9c17.13255,0 31,13.86745 31,31c0,17.13255 -13.86745,31 -31,31c-17.13255,0 -31,-13.86745 -31,-31c0,-17.13255 13.86745,-31 31,-31zM40,12c-0.552,0 -1,0.448 -1,1c0,0.552 0.448,1 1,1c0.552,0 1,-0.448 1,-1c0,-0.552 -0.448,-1 -1,-1zM34.53906,12.53711c-0.542,0.108 -0.89216,0.63574 -0.78516,1.17774c0.107,0.542 0.63378,0.89216 1.17578,0.78516c0.542,-0.108 0.89216,-0.63378 0.78516,-1.17578c-0.108,-0.542 -0.63478,-0.89511 -1.17578,-0.78711zM45.46289,12.53711c-0.542,-0.107 -1.06778,0.24316 -1.17578,0.78516c-0.108,0.542 0.24316,1.06778 0.78516,1.17578c0.542,0.108 1.06778,-0.24316 1.17578,-0.78516c0.108,-0.542 -0.24316,-1.06778 -0.78516,-1.17578zM29.67383,14.05469c-0.12988,-0.00099 -0.26117,0.02342 -0.38867,0.07617c-0.51,0.211 -0.75302,0.79564 -0.54102,1.30664c0.212,0.511 0.79564,0.75302 1.30664,0.54102c0.511,-0.212 0.75302,-0.79564 0.54102,-1.30664c-0.159,-0.3825 -0.52834,-0.61423 -0.91797,-0.61719zM50.32422,14.05469c-0.39,0.00295 -0.75777,0.23469 -0.91602,0.61719c-0.211,0.51 0.03102,1.09464 0.54102,1.30664c0.51,0.211 1.09464,-0.03102 1.30664,-0.54102c0.211,-0.51 -0.03102,-1.09464 -0.54102,-1.30664c-0.12775,-0.05275 -0.26062,-0.07716 -0.39062,-0.07617zM24.81055,16.56641c-0.12756,0.02433 -0.25244,0.07389 -0.36719,0.15039c-0.459,0.307 -0.58239,0.92772 -0.27539,1.38672c0.307,0.459 0.92772,0.58434 1.38672,0.27734c0.459,-0.307 0.58239,-0.92967 0.27539,-1.38867c-0.23025,-0.34425 -0.63684,-0.49877 -1.01953,-0.42578zM55.1875,16.56641c-0.38269,-0.07336 -0.78928,0.08273 -1.01953,0.42773c-0.307,0.459 -0.18361,1.07972 0.27539,1.38672c0.459,0.307 1.07972,0.18361 1.38672,-0.27539c0.307,-0.459 0.18361,-1.07972 -0.27539,-1.38672c-0.11475,-0.07675 -0.23963,-0.12789 -0.36719,-0.15234zM20.9082,19.9082c-0.256,0 -0.51203,0.09747 -0.70703,0.29297c-0.391,0.391 -0.391,1.02406 0,1.41406c0.391,0.391 1.02406,0.391 1.41406,0c0.391,-0.391 0.391,-1.02406 0,-1.41406c-0.195,-0.1955 -0.45103,-0.29297 -0.70703,-0.29297zM59.0918,19.9082c-0.25588,0 -0.51153,0.09797 -0.70703,0.29297c-0.391,0.391 -0.391,1.02406 0,1.41406c0.391,0.391 1.02406,0.391 1.41406,0c0.391,-0.391 0.391,-1.02406 0,-1.41406c-0.195,-0.195 -0.45116,-0.29297 -0.70703,-0.29297zM62.26172,24.01563c-0.12769,0.02437 -0.25219,0.07364 -0.36719,0.15039c-0.459,0.307 -0.58434,0.92772 -0.27734,1.38672c0.307,0.459 0.92967,0.58239 1.38867,0.27539c0.459,-0.307 0.58239,-0.92772 0.27539,-1.38672c-0.2295,-0.34425 -0.63647,-0.49891 -1.01953,-0.42578zM17.73828,24.01758c-0.38269,-0.07313 -0.78928,0.08153 -1.01953,0.42578c-0.307,0.459 -0.18361,1.07972 0.27539,1.38672c0.459,0.307 1.08167,0.18361 1.38867,-0.27539c0.307,-0.459 0.18166,-1.07972 -0.27734,-1.38672c-0.11475,-0.07675 -0.23963,-0.12602 -0.36719,-0.15039zM29.03711,26c-0.27158,-0.01006 -0.53555,0.09084 -0.73119,0.27947c-0.19563,0.18863 -0.30608,0.44876 -0.30592,0.72053v14.32227c0,7.95242 5.87106,15.13901 13.88867,14.67383c0.41806,-0.02395 0.84029,-0.06979 1.26563,-0.13672c0.32981,-0.05205 0.61189,-0.26526 0.75195,-0.56836c1.10145,-2.384 1.13054,-4.0535 1.25586,-6.06445c0.25582,-4.09579 -1.26531,-8.43916 -4.24023,-12.30078c4.76279,3.5881 6.88019,7.72378 6.91016,12.24219c-0.0012,2.00008 -1.11523,5.51367 -1.11523,5.51367c-0.15056,0.45227 0.039,0.94794 0.45293,1.18434c0.41393,0.23639 0.93716,0.1478 1.2502,-0.21168c0,0 2.79475,-3.13591 3.93945,-6.24805c0.00066,-0.00195 0.00131,-0.0039 0.00195,-0.00586c1.93369,-5.34986 0.9534,-11.12716 -2.98437,-15.55273c-3.93778,-4.42557 -10.74041,-7.49295 -20.33984,-7.84766zM30,28.11719c8.60055,0.52631 14.54395,3.30808 17.88281,7.06055c3.48097,3.91218 4.30592,8.81687 2.59766,13.54297c-0.17011,0.46143 -0.52807,0.90566 -0.78906,1.38672c0.02885,-0.32373 0.14063,-0.63482 0.14063,-0.94336c0.00001,-0.00195 0.00001,-0.00391 0,-0.00586c-0.04645,-7.27158 -4.7914,-13.81285 -15.64648,-18.34375c-0.003,-0.0018 -0.00481,-0.00406 -0.00781,-0.00586v0.00195c-0.0496,-0.02069 -0.07904,-0.04775 -0.12891,-0.06836c-0.48368,-0.19661 -1.03722,0.01194 -1.27092,0.47883c-0.2337,0.46689 -0.06892,1.035 0.37835,1.30437c7.2556,4.31792 10.36406,10.90373 10.00977,16.57617c-0.11661,1.87131 -0.19861,3.08875 -0.91602,4.8457c-0.15857,0.01626 -0.32048,0.04184 -0.47656,0.05078c-6.7704,0.39281 -11.77344,-5.69421 -11.77344,-12.67578zM64.95117,28.66602c-0.13,-0.00099 -0.26092,0.02342 -0.38867,0.07617c-0.51,0.211 -0.75302,0.79759 -0.54102,1.30859c0.211,0.51 0.79564,0.75302 1.30664,0.54102c0.51,-0.211 0.75302,-0.79759 0.54102,-1.30859c-0.15825,-0.3825 -0.52797,-0.61423 -0.91797,-0.61719zM15.04883,28.66797c-0.39,0.00258 -0.75777,0.23394 -0.91602,0.61719c-0.211,0.51 0.03102,1.09464 0.54102,1.30664c0.51,0.211 1.09464,-0.03102 1.30664,-0.54102c0.211,-0.51 -0.03102,-1.09464 -0.54102,-1.30664c-0.12775,-0.053 -0.26063,-0.07703 -0.39062,-0.07617zM13.7168,33.75195c-0.542,-0.107 -1.06973,0.24316 -1.17774,0.78516c-0.108,0.542 0.24511,1.06974 0.78711,1.17773c0.542,0.108 1.06778,-0.24511 1.17578,-0.78711c0.108,-0.542 -0.24316,-1.06778 -0.78516,-1.17578zM66.28711,33.75195c-0.542,0.108 -0.89216,0.63378 -0.78516,1.17578c0.108,0.542 0.63378,0.89411 1.17578,0.78711c0.542,-0.108 0.89216,-0.63573 0.78516,-1.17773c-0.108,-0.542 -0.63378,-0.89316 -1.17578,-0.78516zM13,39c-0.552,0 -1,0.448 -1,1c0,0.552 0.448,1 1,1c0.552,0 1,-0.448 1,-1c0,-0.552 -0.448,-1 -1,-1zM67,39c-0.552,0 -1,0.448 -1,1c0,0.552 0.448,1 1,1c0.552,0 1,-0.448 1,-1c0,-0.552 -0.448,-1 -1,-1zM66.67773,44.28516c-0.542,-0.108 -1.06778,0.24511 -1.17578,0.78711c-0.108,0.542 0.24316,1.06778 0.78516,1.17578c0.542,0.108 1.06973,-0.24316 1.17773,-0.78516c0.108,-0.542 -0.24511,-1.06974 -0.78711,-1.17773zM13.32422,44.28711c-0.542,0.108 -0.89411,0.63378 -0.78711,1.17578c0.108,0.542 0.63574,0.89216 1.17774,0.78516c0.542,-0.108 0.89216,-0.63378 0.78516,-1.17578c-0.107,-0.542 -0.63378,-0.89316 -1.17578,-0.78516zM64.9375,49.33008c-0.38962,0.00281 -0.75702,0.23469 -0.91602,0.61719c-0.211,0.51 0.03102,1.09659 0.54102,1.30859c0.51,0.211 1.09464,-0.03102 1.30664,-0.54102c0.211,-0.51 -0.03102,-1.09659 -0.54102,-1.30859c-0.1275,-0.053 -0.26075,-0.07711 -0.39062,-0.07617zM15.0625,49.33203c-0.12988,-0.00094 -0.26117,0.02317 -0.38867,0.07617c-0.51,0.211 -0.75302,0.79564 -0.54102,1.30664c0.211,0.51 0.79564,0.75301 1.30664,0.54102c0.51,-0.211 0.75302,-0.79564 0.54102,-1.30664c-0.159,-0.3825 -0.52834,-0.61438 -0.91797,-0.61719zM62.63867,54.01563c-0.38269,-0.07312 -0.78928,0.08153 -1.01953,0.42578c-0.307,0.459 -0.18361,1.07972 0.27539,1.38672c0.459,0.307 1.07972,0.18361 1.38672,-0.27539c0.307,-0.459 0.18361,-1.07972 -0.27539,-1.38672c-0.11475,-0.07675 -0.23963,-0.12602 -0.36719,-0.15039zM17.36328,54.01758c-0.12756,0.02437 -0.25244,0.07364 -0.36719,0.15039c-0.459,0.307 -0.58239,0.92772 -0.27539,1.38672c0.307,0.459 0.92772,0.58239 1.38672,0.27539c0.459,-0.307 0.58239,-0.92772 0.27539,-1.38672c-0.23025,-0.34425 -0.63684,-0.49891 -1.01953,-0.42578zM20.9082,58.0918c-0.256,0 -0.51203,0.09747 -0.70703,0.29297c-0.391,0.391 -0.391,1.02406 0,1.41406c0.391,0.391 1.02406,0.391 1.41406,0c0.391,-0.391 0.391,-1.02406 0,-1.41406c-0.195,-0.1955 -0.45103,-0.29297 -0.70703,-0.29297zM59.0918,58.0918c-0.256,0 -0.51203,0.09797 -0.70703,0.29297c-0.391,0.391 -0.391,1.02406 0,1.41406c0.391,0.391 1.02406,0.391 1.41406,0c0.391,-0.391 0.391,-1.02406 0,-1.41406c-0.195,-0.195 -0.45103,-0.29297 -0.70703,-0.29297zM25.19141,61.46484c-0.38292,-0.07312 -0.79003,0.08348 -1.01953,0.42773c-0.307,0.459 -0.18361,1.07972 0.27539,1.38672c0.459,0.307 1.07972,0.18361 1.38672,-0.27539c0.307,-0.459 0.18361,-1.08167 -0.27539,-1.38867c-0.11475,-0.07675 -0.23955,-0.12602 -0.36719,-0.15039zM54.8125,61.46484c-0.12756,0.02437 -0.25244,0.07364 -0.36719,0.15039c-0.459,0.307 -0.58239,0.92967 -0.27539,1.38867c0.307,0.459 0.92772,0.58239 1.38672,0.27539c0.459,-0.307 0.58239,-0.92772 0.27539,-1.38672c-0.23025,-0.34425 -0.63684,-0.50086 -1.01953,-0.42773zM29.66211,63.94336c-0.38963,0.00295 -0.75897,0.23469 -0.91797,0.61719c-0.211,0.51 0.03102,1.09464 0.54102,1.30664c0.51,0.212 1.09659,-0.03102 1.30859,-0.54102c0.211,-0.51 -0.03102,-1.09464 -0.54102,-1.30664c-0.1275,-0.05275 -0.26075,-0.07716 -0.39062,-0.07617zM50.33984,63.94336c-0.13,-0.00098 -0.26288,0.02342 -0.39062,0.07617c-0.51,0.211 -0.75302,0.79564 -0.54102,1.30664c0.211,0.51 0.79759,0.75302 1.30859,0.54102c0.51,-0.211 0.75302,-0.79564 0.54102,-1.30664c-0.15825,-0.3825 -0.52797,-0.61424 -0.91797,-0.61719zM34.92969,65.49805c-0.542,-0.107 -1.06778,0.24511 -1.17578,0.78711c-0.108,0.542 0.24316,1.06778 0.78516,1.17578c0.542,0.108 1.06778,-0.24316 1.17578,-0.78516c0.108,-0.542 -0.24316,-1.06973 -0.78516,-1.17773zM45.07227,65.50195c-0.542,0.108 -0.89216,0.63378 -0.78516,1.17578c0.107,0.542 0.63378,0.89216 1.17578,0.78516c0.542,-0.108 0.89216,-0.63378 0.78516,-1.17578c-0.107,-0.542 -0.63378,-0.89316 -1.17578,-0.78516zM40,66c-0.552,0 -1,0.448 -1,1c0,0.552 0.448,1 1,1c0.552,0 1,-0.448 1,-1c0,-0.552 -0.448,-1 -1,-1z"></path></g></g></svg>