<svg xmlns="http://www.w3.org/2000/svg" width="500" height="500" style="width:100%;height:100%;transform:translate3d(0,0,0);content-visibility:visible" viewBox="0 0 500 500"><defs><clipPath id="a"><path d="M0 0h500v500H0z"/></clipPath></defs><g clip-path="url(#a)"><path fill="none" stroke="#07A889" stroke-linecap="round" stroke-linejoin="round" stroke-width="12.6" d="M-55.29-120.902c16.754-11.768 65.293-26.211 110.598 0M-.453 24.839c-33.226 53.821-82.311 77.382-82.311 77.382m-18.754-24.697c11.055-4.784 53.097-24.133 67.839-47.64 4.107-6.549 8.525-14.241 12.919-21.172C-12.87-3.734 3.975-6.771 15.72 2.13c0 0 0 0 0 0 9.719 7.365 12.794 20.645 7.234 31.498-10.918 21.31-33.433 57.435-83.08 90.998m26.488 11.651c43.574-37.95 64.215-71.233 77.842-97.83 10.064-19.643 4.498-43.679-13.093-57.01 0 0 0 0 0 0-21.258-16.11-50.466-9.751-66.026 11.912-21.895 30.483-51.662 47.482-78.054 56.962m-6.607-34.354c20.442 3.91 43.866-4.553 68.258-38.511 23.247-32.364 66.882-41.865 98.64-17.797v.001c26.28 19.916 38.425 57.247 23.39 86.593-15.085 29.443-37.072 60.044-71.973 95.863m57.621-17.48s46.34-51.563 50.433-99.787C110.886-23.385 72.46-66.447 40.4-76.031-6.45-90.036-44.485-51.006-81.481-100.508m-20.037 27.89s36.091 4.204 34.239 24.446c-1.61 17.593-31.261 35.524-52.047 34.483m23.595-32.308c-8.834 3.047-16.496 2.969-16.496 2.969m74.323-55.826c37.451-13.908 105.459-12.48 144.697 45.02" style="display:block" transform="translate(250 250)"/><path fill="none" style="display:none"/><path fill="none" stroke="#121330" stroke-linecap="round" stroke-linejoin="round" stroke-width="12.6" d="M187.154.81c0 103.17-83.636 186.806-186.806 186.806-103.17 0-186.806-83.636-186.806-186.806 0-103.17 83.636-186.805 186.806-186.805 103.17 0 186.806 83.635 186.806 186.805z" style="display:block" transform="translate(250 250)"/><g class="com" style="display:none"><path/><path/><path/><path/><path/><path/><path/><path/><path/><path/><path/><path/></g></g></svg>