<svg id="SvgjsSvg1013" width="288" height="288" xmlns="http://www.w3.org/2000/svg" version="1.1" xmlns:xlink="http://www.w3.org/1999/xlink" xmlns:svgjs="http://svgjs.com/svgjs"><defs id="SvgjsDefs1014"></defs><g id="SvgjsG1015"><svg xmlns="http://www.w3.org/2000/svg" viewBox="0 0 24 24" width="288" height="288"><g data-name="6" fill="#ffffff" class="color000 svgShape"><path fill="none" d="M24 0v24H0V0z"></path><path d="M7.76 16.24a.74.74 0 0 0 1.06 0L15 10.1v2.78a.75.75 0 0 0 .75.75.75.75 0 0 0 .75-.75V8.29a.93.93 0 0 0-.09-.29.82.82 0 0 0-.41-.41.93.93 0 0 0-.29 0h-4.59a.75.75 0 0 0 0 1.5h2.78l-6.14 6.09a.74.74 0 0 0 0 1.06Z" fill="#ffffff" class="color000 svgShape"></path></g></svg></g></svg>